<svg width="1073" height="758" viewBox="0 0 1073 758" fill="none" xmlns="http://www.w3.org/2000/svg">
<mask id="path-1-outside-1_71_663" maskUnits="userSpaceOnUse" x="202.048" y="725" width="661" height="33" fill="black">
<rect fill="white" x="202.048" y="725" width="661" height="33"/>
<path d="M212.048 738C212.048 743.523 216.525 748 222.048 748H842.517C848.04 748 852.517 743.523 852.517 738V735C852.517 729.477 848.04 725 842.517 725H222.048C216.525 725 212.048 729.477 212.048 735V738Z"/>
</mask>
<path d="M212.048 738C212.048 743.523 216.525 748 222.048 748H842.517C848.04 748 852.517 743.523 852.517 738V735C852.517 729.477 848.04 725 842.517 725H222.048C216.525 725 212.048 729.477 212.048 735V738Z" fill="#EAD6BA"/>
<path d="M202.048 741.5C202.048 750.613 209.435 758 218.548 758H846.017C855.13 758 862.517 750.613 862.517 741.5L842.517 738H222.048L202.048 741.5ZM852.517 725H212.048H852.517ZM218.548 725C209.435 725 202.048 732.387 202.048 741.5C202.048 750.613 209.435 758 218.548 758L222.048 738V735C222.048 729.477 222.048 725 222.048 725H218.548ZM846.017 758C855.13 758 862.517 750.613 862.517 741.5C862.517 732.387 855.13 725 846.017 725H842.517C842.517 725 842.517 729.477 842.517 735V738L846.017 758Z" fill="black" mask="url(#path-1-outside-1_71_663)"/>
<g filter="url(#filter0_d_71_663)">
<rect x="14" y="12" width="1044.67" height="713" rx="10" fill="#EAD6BA"/>
<rect x="9" y="7" width="1054.67" height="723" rx="15" stroke="black" stroke-width="10"/>
</g>
<g filter="url(#filter1_i_71_663)">
<rect x="42.9543" y="32" width="980.973" height="676" rx="10" fill="#D4BF95"/>
</g>
<path d="M944.013 448.105C944.013 449.704 945.31 451 946.909 451V451C948.508 451 949.804 449.704 949.804 448.105V58.8954C949.804 57.2963 948.508 56 946.909 56V56C945.31 56 944.013 57.2963 944.013 58.8954V448.105Z" fill="#BCA880"/>
<path d="M909.268 465.105C909.268 466.704 910.564 468 912.163 468V468C913.763 468 915.059 466.704 915.059 465.105V75.8954C915.059 74.2963 913.763 73 912.163 73V73C910.564 73 909.268 74.2963 909.268 75.8954V465.105Z" fill="#1A1A1A"/>
<path d="M906.768 677C908.149 677 909.268 675.881 909.268 674.5V674.5C909.268 673.119 908.149 672 906.768 672H454.29C452.909 672 451.79 673.119 451.79 674.5V674.5C451.79 675.881 452.909 677 454.29 677H906.768Z" fill="#1A1A1A"/>
<path d="M416.07 677C414.689 677 413.57 675.881 413.57 674.5V674.5C413.57 673.119 414.689 672 416.07 672H433.075C434.456 672 435.575 673.119 435.575 674.5V674.5C435.575 675.881 434.456 677 433.075 677H416.07Z" fill="#1A1A1A"/>
<path d="M956.753 414.105C956.753 415.704 958.049 417 959.648 417V417C961.247 417 962.544 415.704 962.544 414.105V92.8954C962.544 91.2963 961.247 90 959.648 90V90C958.049 90 956.753 91.2963 956.753 92.8954V414.105Z" fill="#BCA880"/>
<path d="M969.493 375.105C969.493 376.704 970.789 378 972.388 378V378C973.987 378 975.284 376.704 975.284 375.105V132.895C975.284 131.296 973.987 130 972.388 130V130C970.789 130 969.493 131.296 969.493 132.895V375.105Z" fill="#BCA880"/>
<path d="M1030.88 705.105C1030.88 706.704 1032.17 708 1033.77 708V708C1035.37 708 1036.67 706.704 1036.67 705.105V75.8954C1036.67 74.2963 1035.37 73 1033.77 73V73C1032.17 73 1030.88 74.2963 1030.88 75.8954V705.105Z" fill="#DAC4A7"/>
<path d="M31.3726 664.105C31.3726 665.704 32.6689 667 34.268 667V667C35.8671 667 37.1634 665.704 37.1634 664.105L37.1634 34.8954C37.1634 33.2963 35.8671 32 34.268 32V32C32.6689 32 31.3726 33.2963 31.3726 34.8954L31.3726 664.105Z" fill="#DAC4A7"/>
<path d="M31.3726 677.895C31.3726 676.296 32.6689 675 34.268 675V675C35.8671 675 37.1634 676.296 37.1634 677.895L37.1634 705.105C37.1634 706.704 35.8671 708 34.268 708V708C32.6689 708 31.3726 706.704 31.3726 705.105L31.3726 677.895Z" fill="#DAC4A7"/>
<path d="M1030.88 37.8954C1030.88 36.2963 1032.17 35 1033.77 35V35C1035.37 35 1036.67 36.2963 1036.67 37.8954V61.1046C1036.67 62.7037 1035.37 64 1033.77 64V64C1032.17 64 1030.88 62.7037 1030.88 61.1046V37.8954Z" fill="#DAC4A7"/>
<path d="M969.493 111.895C969.493 110.296 970.789 109 972.388 109V109C973.987 109 975.284 110.296 975.284 111.895V119.105C975.284 120.704 973.987 122 972.388 122V122C970.789 122 969.493 120.704 969.493 119.105V111.895Z" fill="#BCA880"/>
<path d="M956.753 72.8954C956.753 71.2963 958.049 70 959.648 70V70C961.247 70 962.544 71.2963 962.544 72.8954V80.1046C962.544 81.7037 961.247 83 959.648 83V83C958.049 83 956.753 81.7037 956.753 80.1046V72.8954Z" fill="#BCA880"/>
<path d="M85.8068 82.8445C85.8068 77.4075 90.2143 73 95.6512 73V73C101.088 73 105.496 77.4075 105.496 82.8445V139.156C105.496 144.592 101.088 149 95.6512 149V149C90.2143 149 85.8068 144.592 85.8068 139.156V82.8445Z" fill="#8C8F96"/>
<path d="M95.465 90C90.7706 90 86.965 86.1944 86.965 81.5V81.5C86.965 76.8056 90.7705 73 95.465 73L159.537 73C164.232 73 168.037 76.8056 168.037 81.5V81.5C168.037 86.1944 164.232 90 159.537 90L95.465 90Z" fill="#8C8F96"/>
<path d="M186.96 90C182.266 90 178.46 86.1944 178.46 81.5V81.5C178.46 76.8056 182.266 73 186.96 73H215.129C219.824 73 223.629 76.8056 223.629 81.5V81.5C223.629 86.1944 219.824 90 215.129 90L186.96 90Z" fill="#8C8F96"/>
<path d="M97.7302 69C96.9018 69 96.2302 68.3284 96.2302 67.5V67.5C96.2302 66.6716 96.9018 66 97.7302 66L139.899 66C140.727 66 141.399 66.6716 141.399 67.5V67.5C141.399 68.3284 140.727 69 139.899 69L97.7302 69Z" fill="#8C8F96"/>
<path d="M154.955 69C155.784 69 156.455 68.3284 156.455 67.5V67.5C156.455 66.6716 155.784 66 154.955 66H147.532C146.703 66 146.032 66.6716 146.032 67.5V67.5C146.032 68.3284 146.703 69 147.532 69H154.955Z" fill="#8C8F96"/>
<g filter="url(#filter2_d_71_663)">
<circle cx="979.804" cy="514" r="30" fill="#212121"/>
</g>
<circle cx="980" cy="514" r="25" fill="#2D2D2D"/>
<circle cx="980" cy="514" r="25" fill="#2D2D2D"/>
<circle cx="980" cy="457" r="17" fill="#3ABA5E"/>
<g filter="url(#filter3_d_71_663)">
<circle cx="979.804" cy="584" r="30" fill="#212121"/>
</g>
<g filter="url(#filter4_d_71_663)">
<circle cx="979.804" cy="654" r="30" fill="#212121"/>
</g>
<circle cx="980" cy="584" r="25" fill="#2D2D2D"/>
<circle cx="980" cy="584" r="25" fill="#2D2D2D"/>
<circle cx="980" cy="654" r="25" fill="#2D2D2D"/>
<circle cx="980" cy="654" r="25" fill="#2D2D2D"/>
<defs>
<filter id="filter0_d_71_663" x="0" y="0" width="1072.67" height="741" filterUnits="userSpaceOnUse" color-interpolation-filters="sRGB">
<feFlood flood-opacity="0" result="BackgroundImageFix"/>
<feColorMatrix in="SourceAlpha" type="matrix" values="0 0 0 0 0 0 0 0 0 0 0 0 0 0 0 0 0 0 127 0" result="hardAlpha"/>
<feOffset dy="2"/>
<feGaussianBlur stdDeviation="2"/>
<feComposite in2="hardAlpha" operator="out"/>
<feColorMatrix type="matrix" values="0 0 0 0 0 0 0 0 0 0 0 0 0 0 0 0 0 0 0.25 0"/>
<feBlend mode="normal" in2="BackgroundImageFix" result="effect1_dropShadow_71_663"/>
<feBlend mode="normal" in="SourceGraphic" in2="effect1_dropShadow_71_663" result="shape"/>
</filter>
<filter id="filter1_i_71_663" x="42.9543" y="32" width="980.973" height="680" filterUnits="userSpaceOnUse" color-interpolation-filters="sRGB">
<feFlood flood-opacity="0" result="BackgroundImageFix"/>
<feBlend mode="normal" in="SourceGraphic" in2="BackgroundImageFix" result="shape"/>
<feColorMatrix in="SourceAlpha" type="matrix" values="0 0 0 0 0 0 0 0 0 0 0 0 0 0 0 0 0 0 127 0" result="hardAlpha"/>
<feMorphology radius="2" operator="erode" in="SourceAlpha" result="effect1_innerShadow_71_663"/>
<feOffset dy="4"/>
<feGaussianBlur stdDeviation="2.6"/>
<feComposite in2="hardAlpha" operator="arithmetic" k2="-1" k3="1"/>
<feColorMatrix type="matrix" values="0 0 0 0 0 0 0 0 0 0 0 0 0 0 0 0 0 0 0.25 0"/>
<feBlend mode="normal" in2="shape" result="effect1_innerShadow_71_663"/>
</filter>
<filter id="filter2_d_71_663" x="949.804" y="484" width="65.1" height="65.1" filterUnits="userSpaceOnUse" color-interpolation-filters="sRGB">
<feFlood flood-opacity="0" result="BackgroundImageFix"/>
<feColorMatrix in="SourceAlpha" type="matrix" values="0 0 0 0 0 0 0 0 0 0 0 0 0 0 0 0 0 0 127 0" result="hardAlpha"/>
<feOffset dx="3" dy="3"/>
<feGaussianBlur stdDeviation="1.05"/>
<feComposite in2="hardAlpha" operator="out"/>
<feColorMatrix type="matrix" values="0 0 0 0 0 0 0 0 0 0 0 0 0 0 0 0 0 0 0.25 0"/>
<feBlend mode="normal" in2="BackgroundImageFix" result="effect1_dropShadow_71_663"/>
<feBlend mode="normal" in="SourceGraphic" in2="effect1_dropShadow_71_663" result="shape"/>
</filter>
<filter id="filter3_d_71_663" x="949.804" y="554" width="65.1" height="65.1" filterUnits="userSpaceOnUse" color-interpolation-filters="sRGB">
<feFlood flood-opacity="0" result="BackgroundImageFix"/>
<feColorMatrix in="SourceAlpha" type="matrix" values="0 0 0 0 0 0 0 0 0 0 0 0 0 0 0 0 0 0 127 0" result="hardAlpha"/>
<feOffset dx="3" dy="3"/>
<feGaussianBlur stdDeviation="1.05"/>
<feComposite in2="hardAlpha" operator="out"/>
<feColorMatrix type="matrix" values="0 0 0 0 0 0 0 0 0 0 0 0 0 0 0 0 0 0 0.25 0"/>
<feBlend mode="normal" in2="BackgroundImageFix" result="effect1_dropShadow_71_663"/>
<feBlend mode="normal" in="SourceGraphic" in2="effect1_dropShadow_71_663" result="shape"/>
</filter>
<filter id="filter4_d_71_663" x="949.804" y="624" width="65.1" height="65.1" filterUnits="userSpaceOnUse" color-interpolation-filters="sRGB">
<feFlood flood-opacity="0" result="BackgroundImageFix"/>
<feColorMatrix in="SourceAlpha" type="matrix" values="0 0 0 0 0 0 0 0 0 0 0 0 0 0 0 0 0 0 127 0" result="hardAlpha"/>
<feOffset dx="3" dy="3"/>
<feGaussianBlur stdDeviation="1.05"/>
<feComposite in2="hardAlpha" operator="out"/>
<feColorMatrix type="matrix" values="0 0 0 0 0 0 0 0 0 0 0 0 0 0 0 0 0 0 0.25 0"/>
<feBlend mode="normal" in2="BackgroundImageFix" result="effect1_dropShadow_71_663"/>
<feBlend mode="normal" in="SourceGraphic" in2="effect1_dropShadow_71_663" result="shape"/>
</filter>
</defs>
</svg>
