<svg width="930" height="758" viewBox="0 0 930 758" fill="none" xmlns="http://www.w3.org/2000/svg">
<mask id="path-1-outside-1_71_663" maskUnits="userSpaceOnUse" x="175" y="725" width="573" height="33" fill="black">
<rect fill="white" x="175" y="725" width="573" height="33"/>
<path d="M185 738C185 743.523 189.477 748 195 748H728C733.523 748 738 743.523 738 738V735C738 729.477 733.523 725 728 725H195C189.477 725 185 729.477 185 735V738Z"/>
</mask>
<path d="M185 738C185 743.523 189.477 748 195 748H728C733.523 748 738 743.523 738 738V735C738 729.477 733.523 725 728 725H195C189.477 725 185 729.477 185 735V738Z" fill="#EAD6BA"/>
<path d="M175 741.5C175 750.613 182.387 758 191.5 758H731.5C740.613 758 748 750.613 748 741.5L728 738H195L175 741.5ZM738 725H185H738ZM191.5 725C182.387 725 175 732.387 175 741.5C175 750.613 182.387 758 191.5 758L195 738V735C195 729.477 195 725 195 725H191.5ZM731.5 758C740.613 758 748 750.613 748 741.5C748 732.387 740.613 725 731.5 725H728C728 725 728 729.477 728 735V738L731.5 758Z" fill="black" mask="url(#path-1-outside-1_71_663)"/>
<g filter="url(#filter0_d_71_663)">
<rect x="14" y="12" width="902" height="713" rx="10" fill="#EAD6BA"/>
<rect x="9" y="7" width="912" height="723" rx="15" stroke="black" stroke-width="10"/>
</g>
<g filter="url(#filter1_i_71_663)">
<rect x="39" y="32" width="847" height="676" rx="10" fill="#D4BF95"/>
</g>
<path d="M817 448.5C817 449.881 818.119 451 819.5 451V451C820.881 451 822 449.881 822 448.5V58.5C822 57.1193 820.881 56 819.5 56V56C818.119 56 817 57.1193 817 58.5V448.5Z" fill="#BCA880"/>
<path d="M787 465.5C787 466.881 788.119 468 789.5 468V468C790.881 468 792 466.881 792 465.5V75.5C792 74.1193 790.881 73 789.5 73V73C788.119 73 787 74.1193 787 75.5V465.5Z" fill="#1A1A1A"/>
<path d="M784.5 677C785.881 677 787 675.881 787 674.5V674.5C787 673.119 785.881 672 784.5 672H394.5C393.119 672 392 673.119 392 674.5V674.5C392 675.881 393.119 677 394.5 677H784.5Z" fill="#1A1A1A"/>
<path d="M361.5 677C360.119 677 359 675.881 359 674.5V674.5C359 673.119 360.119 672 361.5 672H375.5C376.881 672 378 673.119 378 674.5V674.5C378 675.881 376.881 677 375.5 677H361.5Z" fill="#1A1A1A"/>
<path d="M828 414.5C828 415.881 829.119 417 830.5 417V417C831.881 417 833 415.881 833 414.5V92.5C833 91.1193 831.881 90 830.5 90V90C829.119 90 828 91.1193 828 92.5V414.5Z" fill="#BCA880"/>
<path d="M839 375.5C839 376.881 840.119 378 841.5 378V378C842.881 378 844 376.881 844 375.5V132.5C844 131.119 842.881 130 841.5 130V130C840.119 130 839 131.119 839 132.5V375.5Z" fill="#BCA880"/>
<path d="M892 705.5C892 706.881 893.119 708 894.5 708V708C895.881 708 897 706.881 897 705.5L897 75.5C897 74.1193 895.881 73 894.5 73V73C893.119 73 892 74.1193 892 75.5L892 705.5Z" fill="#DAC4A7"/>
<path d="M29 664.5C29 665.881 30.1193 667 31.5 667V667C32.8807 667 34 665.881 34 664.5L34 34.5C34 33.1193 32.8807 32 31.5 32V32C30.1193 32 29 33.1193 29 34.5L29 664.5Z" fill="#DAC4A7"/>
<path d="M29 677.5C29 676.119 30.1193 675 31.5 675V675C32.8807 675 34 676.119 34 677.5V705.5C34 706.881 32.8807 708 31.5 708V708C30.1193 708 29 706.881 29 705.5L29 677.5Z" fill="#DAC4A7"/>
<path d="M892 37.5C892 36.1193 893.119 35 894.5 35V35C895.881 35 897 36.1193 897 37.5V61.5C897 62.8807 895.881 64 894.5 64V64C893.119 64 892 62.8807 892 61.5V37.5Z" fill="#DAC4A7"/>
<path d="M839 111.5C839 110.119 840.119 109 841.5 109V109C842.881 109 844 110.119 844 111.5V119.5C844 120.881 842.881 122 841.5 122V122C840.119 122 839 120.881 839 119.5V111.5Z" fill="#BCA880"/>
<path d="M828 72.5C828 71.1193 829.119 70 830.5 70V70C831.881 70 833 71.1193 833 72.5V80.5C833 81.8807 831.881 83 830.5 83V83C829.119 83 828 81.8807 828 80.5V72.5Z" fill="#BCA880"/>
<path d="M76 81.5C76 76.8056 79.8056 73 84.5 73V73C89.1944 73 93 76.8056 93 81.5V140.5C93 145.194 89.1944 149 84.5 149V149C79.8056 149 76 145.194 76 140.5V81.5Z" fill="#8C8F96"/>
<path d="M85.5 90C80.8056 90 77 86.1944 77 81.5V81.5C77 76.8056 80.8056 73 85.5 73L138.5 73C143.194 73 147 76.8056 147 81.5V81.5C147 86.1944 143.194 90 138.5 90L85.5 90Z" fill="#8C8F96"/>
<path d="M164.5 90C159.806 90 156 86.1944 156 81.5V81.5C156 76.8056 159.806 73 164.5 73H186.5C191.194 73 195 76.8056 195 81.5V81.5C195 86.1944 191.194 90 186.5 90L164.5 90Z" fill="#8C8F96"/>
<path d="M86.5 69C85.6716 69 85 68.3284 85 67.5V67.5C85 66.6716 85.6716 66 86.5 66L122.5 66C123.328 66 124 66.6716 124 67.5V67.5C124 68.3284 123.328 69 122.5 69L86.5 69Z" fill="#8C8F96"/>
<path d="M135.5 69C136.328 69 137 68.3284 137 67.5V67.5C137 66.6716 136.328 66 135.5 66H129.5C128.672 66 128 66.6716 128 67.5V67.5C128 68.3284 128.672 69 129.5 69H135.5Z" fill="#8C8F96"/>
<g filter="url(#filter2_d_71_663)">
<circle cx="847.5" cy="509.5" r="25.5" fill="#212121"/>
</g>
<circle cx="847.5" cy="509.5" r="21.5" fill="#2D2D2D"/>
<circle cx="847.5" cy="509.5" r="21.5" fill="#2D2D2D"/>
<circle cx="848" cy="461" r="10" fill="#72ED94"/>
<g filter="url(#filter3_d_71_663)">
<circle cx="847.5" cy="579.5" r="25.5" fill="#212121"/>
</g>
<g filter="url(#filter4_d_71_663)">
<circle cx="847.5" cy="649.5" r="25.5" fill="#212121"/>
</g>
<circle cx="847.5" cy="579.5" r="21.5" fill="#2D2D2D"/>
<circle cx="847.5" cy="579.5" r="21.5" fill="#2D2D2D"/>
<circle cx="847.5" cy="649.5" r="21.5" fill="#2D2D2D"/>
<circle cx="847.5" cy="649.5" r="21.5" fill="#2D2D2D"/>
<defs>
<filter id="filter0_d_71_663" x="0" y="0" width="930" height="741" filterUnits="userSpaceOnUse" color-interpolation-filters="sRGB">
<feFlood flood-opacity="0" result="BackgroundImageFix"/>
<feColorMatrix in="SourceAlpha" type="matrix" values="0 0 0 0 0 0 0 0 0 0 0 0 0 0 0 0 0 0 127 0" result="hardAlpha"/>
<feOffset dy="2"/>
<feGaussianBlur stdDeviation="2"/>
<feComposite in2="hardAlpha" operator="out"/>
<feColorMatrix type="matrix" values="0 0 0 0 0 0 0 0 0 0 0 0 0 0 0 0 0 0 0.25 0"/>
<feBlend mode="normal" in2="BackgroundImageFix" result="effect1_dropShadow_71_663"/>
<feBlend mode="normal" in="SourceGraphic" in2="effect1_dropShadow_71_663" result="shape"/>
</filter>
<filter id="filter1_i_71_663" x="39" y="32" width="847" height="680" filterUnits="userSpaceOnUse" color-interpolation-filters="sRGB">
<feFlood flood-opacity="0" result="BackgroundImageFix"/>
<feBlend mode="normal" in="SourceGraphic" in2="BackgroundImageFix" result="shape"/>
<feColorMatrix in="SourceAlpha" type="matrix" values="0 0 0 0 0 0 0 0 0 0 0 0 0 0 0 0 0 0 127 0" result="hardAlpha"/>
<feMorphology radius="2" operator="erode" in="SourceAlpha" result="effect1_innerShadow_71_663"/>
<feOffset dy="4"/>
<feGaussianBlur stdDeviation="2.6"/>
<feComposite in2="hardAlpha" operator="arithmetic" k2="-1" k3="1"/>
<feColorMatrix type="matrix" values="0 0 0 0 0 0 0 0 0 0 0 0 0 0 0 0 0 0 0.25 0"/>
<feBlend mode="normal" in2="shape" result="effect1_innerShadow_71_663"/>
</filter>
<filter id="filter2_d_71_663" x="822" y="484" width="56.1" height="56.1" filterUnits="userSpaceOnUse" color-interpolation-filters="sRGB">
<feFlood flood-opacity="0" result="BackgroundImageFix"/>
<feColorMatrix in="SourceAlpha" type="matrix" values="0 0 0 0 0 0 0 0 0 0 0 0 0 0 0 0 0 0 127 0" result="hardAlpha"/>
<feOffset dx="3" dy="3"/>
<feGaussianBlur stdDeviation="1.05"/>
<feComposite in2="hardAlpha" operator="out"/>
<feColorMatrix type="matrix" values="0 0 0 0 0 0 0 0 0 0 0 0 0 0 0 0 0 0 0.25 0"/>
<feBlend mode="normal" in2="BackgroundImageFix" result="effect1_dropShadow_71_663"/>
<feBlend mode="normal" in="SourceGraphic" in2="effect1_dropShadow_71_663" result="shape"/>
</filter>
<filter id="filter3_d_71_663" x="822" y="554" width="56.1" height="56.1" filterUnits="userSpaceOnUse" color-interpolation-filters="sRGB">
<feFlood flood-opacity="0" result="BackgroundImageFix"/>
<feColorMatrix in="SourceAlpha" type="matrix" values="0 0 0 0 0 0 0 0 0 0 0 0 0 0 0 0 0 0 127 0" result="hardAlpha"/>
<feOffset dx="3" dy="3"/>
<feGaussianBlur stdDeviation="1.05"/>
<feComposite in2="hardAlpha" operator="out"/>
<feColorMatrix type="matrix" values="0 0 0 0 0 0 0 0 0 0 0 0 0 0 0 0 0 0 0.25 0"/>
<feBlend mode="normal" in2="BackgroundImageFix" result="effect1_dropShadow_71_663"/>
<feBlend mode="normal" in="SourceGraphic" in2="effect1_dropShadow_71_663" result="shape"/>
</filter>
<filter id="filter4_d_71_663" x="822" y="624" width="56.1" height="56.1" filterUnits="userSpaceOnUse" color-interpolation-filters="sRGB">
<feFlood flood-opacity="0" result="BackgroundImageFix"/>
<feColorMatrix in="SourceAlpha" type="matrix" values="0 0 0 0 0 0 0 0 0 0 0 0 0 0 0 0 0 0 127 0" result="hardAlpha"/>
<feOffset dx="3" dy="3"/>
<feGaussianBlur stdDeviation="1.05"/>
<feComposite in2="hardAlpha" operator="out"/>
<feColorMatrix type="matrix" values="0 0 0 0 0 0 0 0 0 0 0 0 0 0 0 0 0 0 0.25 0"/>
<feBlend mode="normal" in2="BackgroundImageFix" result="effect1_dropShadow_71_663"/>
<feBlend mode="normal" in="SourceGraphic" in2="effect1_dropShadow_71_663" result="shape"/>
</filter>
</defs>
</svg>
