<svg width="831" height="611" viewBox="0 0 831 611" fill="none" xmlns="http://www.w3.org/2000/svg">
<path d="M824.268 399.105C824.268 400.704 825.564 402 827.163 402V402C828.763 402 830.059 400.704 830.059 399.105V9.89544C830.059 8.29634 828.763 7 827.163 7V7C825.564 7 824.268 8.29633 824.268 9.89543V399.105Z" fill="#1A1A1A"/>
<path d="M821.768 611C823.149 611 824.268 609.881 824.268 608.5V608.5C824.268 607.119 823.149 606 821.768 606H369.29C367.909 606 366.79 607.119 366.79 608.5V608.5C366.79 609.881 367.909 611 369.29 611H821.768Z" fill="#1A1A1A"/>
<path d="M331.07 611C329.689 611 328.57 609.881 328.57 608.5V608.5C328.57 607.119 329.689 606 331.07 606H348.075C349.456 606 350.575 607.119 350.575 608.5V608.5C350.575 609.881 349.456 611 348.075 611H331.07Z" fill="#1A1A1A"/>
<path d="M0.806763 16.8445C0.806763 11.4075 5.21428 7 10.6512 7V7C16.0882 7 20.4957 11.4075 20.4957 16.8445V73.1555C20.4957 78.5925 16.0882 83 10.6512 83V83C5.21428 83 0.806763 78.5925 0.806763 73.1555V16.8445Z" fill="#8C8F96"/>
<path d="M10.465 24C5.77056 24 1.96497 20.1944 1.96497 15.5V15.5C1.96497 10.8056 5.77055 7 10.465 7L74.5371 7C79.2315 7 83.0371 10.8056 83.0371 15.5V15.5C83.0371 20.1944 79.2315 24 74.5371 24L10.465 24Z" fill="#8C8F96"/>
<path d="M101.96 24C97.266 24 93.4604 20.1944 93.4604 15.5V15.5C93.4604 10.8056 97.266 7 101.96 7L130.129 7C134.824 7 138.629 10.8056 138.629 15.5V15.5C138.629 20.1944 134.824 24 130.129 24L101.96 24Z" fill="#8C8F96"/>
<path d="M12.7302 3C11.9018 3 11.2302 2.32843 11.2302 1.5V1.5C11.2302 0.671573 11.9018 0 12.7302 0L54.899 0C55.7274 0 56.399 0.671573 56.399 1.5V1.5C56.399 2.32843 55.7274 3 54.899 3L12.7302 3Z" fill="#8C8F96"/>
<path d="M69.9552 3C70.7836 3 71.4552 2.32843 71.4552 1.5V1.5C71.4552 0.671573 70.7836 0 69.9552 0L62.5316 0C61.7032 0 61.0316 0.671573 61.0316 1.5V1.5C61.0316 2.32843 61.7032 3 62.5316 3L69.9552 3Z" fill="#8C8F96"/>
</svg>
