<svg width="71" height="86" viewBox="0 0 71 86" fill="none" xmlns="http://www.w3.org/2000/svg">
<g clip-path="url(#clip0_71_752)">
<mask id="mask0_71_752" style="mask-type:luminance" maskUnits="userSpaceOnUse" x="0" y="0" width="71" height="86">
<path d="M71 0H0V86H71V0Z" fill="white"/>
</mask>
<g mask="url(#mask0_71_752)">
<path d="M45 0H3.96648C1.77585 0 0 1.75815 0 3.92694V82.0731C0 84.2419 1.77585 86 3.96648 86H67.0335C69.2242 86 71 84.2419 71 82.0731V27L45 0Z" fill="#D9D9D9"/>
<path d="M46.3539 26.4441C45.707 26.4387 45.183 25.9226 45.1743 25.2821L44.7503 -5.52071C44.7356 -6.57647 42.7904 0.351308 44.8194 -0.5L71 26.6498C73.1818 28.4033 71 26.6498 77.469 26.7038L46.3539 26.4441Z" fill="#ABAAAA"/>
</g>
</g>
<defs>
<clipPath id="clip0_71_752">
<rect width="71" height="86" fill="white"/>
</clipPath>
</defs>
</svg>
