<svg width="307" height="307" viewBox="0 0 307 307" fill="none" xmlns="http://www.w3.org/2000/svg">
<g filter="url(#filter0_d_100_169)">
<path d="M20.8789 202.287C21.0961 202.287 21.2722 202.114 21.2722 201.9C21.2722 201.685 21.0961 201.511 20.8789 201.511C20.6617 201.511 20.4856 201.685 20.4856 201.9C20.4856 202.114 20.6617 202.287 20.8789 202.287Z" fill="white"/>
</g>
<path d="M152.619 86.7792C153.435 86.7792 154.257 86.7792 155.067 86.819H155.379C158.014 86.9246 160.64 87.1821 163.244 87.5898L163.47 87.6299C176.467 89.7334 188.553 95.5507 198.232 104.362C207.911 113.172 214.757 124.59 217.924 137.2C217.988 137.452 218.046 137.697 218.109 137.954L218.197 138.342C218.521 139.741 218.775 141.162 219.03 142.595L219.082 142.898C219.117 143.121 219.151 143.349 219.18 143.577C221.32 158.072 218.534 172.858 211.259 185.627C203.984 198.396 192.628 208.429 178.963 214.162L178.68 214.282C176.45 215.213 174.17 216.023 171.85 216.709L171.457 216.823C157.576 220.8 142.765 220.266 129.216 215.298C115.666 210.33 104.097 201.193 96.2199 189.237C94.2004 186.185 92.4443 182.971 90.9708 179.629V179.595C90.2529 177.968 89.5931 176.301 89.0087 174.605C88.945 174.428 88.8812 174.245 88.8235 174.068C85.4675 164.096 84.5596 153.48 86.1748 143.093C87.7898 132.707 91.8812 122.847 98.1131 114.325C104.345 105.803 112.539 98.8623 122.02 94.0732C131.502 89.2844 142.001 86.7846 152.653 86.7792H152.619Z" fill="url(#paint0_linear_100_169)"/>
<path opacity="0.1" d="M219.459 145.361C220.967 158.3 218.583 171.39 212.602 183.001C206.62 194.612 197.308 204.23 185.823 210.657C174.34 217.083 161.192 220.034 148.02 219.141C134.848 218.248 122.233 213.551 111.749 205.636C174.045 218.492 205.737 174.237 219.459 145.361Z" fill="#3456FF"/>
<path d="M152.065 116.044C151.865 114.781 150.805 116.497 150.81 116.044C150.817 115.591 150.201 116.144 150.201 115.742C150.201 115.339 149.445 115.539 150.301 114.932C151.156 114.328 150.359 114.467 150.717 113.694C151.076 112.921 150.281 112.497 150.337 111.931C150.396 111.366 149.394 111.78 149.428 111.327C149.467 110.873 148.653 111.537 148.672 111.137C148.694 110.739 147.955 111.025 147.997 110.949C148.036 110.873 147.897 110.552 147.519 110.362C147.141 110.174 146.422 109.796 147.158 109.586C147.897 109.377 146.783 109.133 147.18 108.714C147.578 108.299 146.251 108.392 146.517 107.734C146.783 107.071 146.064 107.049 145.93 106.559C145.796 106.069 145.552 107.146 144.852 107.695C144.153 108.243 143.548 107.941 143.282 107.714C143.012 107.488 143.036 107.619 143.073 107.375C143.112 107.129 143.056 107.202 142.849 107.014C142.639 106.827 143.036 106.276 143.246 105.937C143.455 105.596 142.697 105.823 142.432 105.786C142.166 105.747 142.317 105.313 142.222 105.047C142.127 104.782 141.505 104.499 141.43 104.594C141.354 104.689 140.803 104.728 140.313 104.443C139.823 104.158 139.745 104.274 139.102 104.594C138.461 104.916 139.48 104.804 139.085 105.218C138.685 105.633 138.895 105.428 138.987 105.769C139.085 106.108 138.951 106.032 138.629 106.544C138.307 107.054 138.288 106.829 137.854 107.017C137.417 107.207 137.529 107.017 137.795 107.585C138.058 108.151 138.229 107.809 138.134 108.662C138.041 109.513 137.773 109.494 137.074 110.042C136.374 110.591 135.806 110.647 135.279 110.647C134.753 110.647 135.24 111.025 135.182 112.217C135.128 113.406 134.653 112.975 134.246 113.504C133.844 114.033 133.48 113.352 133.31 112.86C133.137 112.37 132.856 112.161 133.008 111.763C133.159 111.366 132.91 111.288 133.556 110.513C134.197 109.738 133.614 110.286 133.027 109.774C132.44 109.264 132.23 109.813 131.871 109.32C131.513 108.831 131.116 108.545 130.928 107.922C130.74 107.297 130.416 107.885 130.097 107.432C129.775 106.978 129.851 107.695 129.3 107.432C128.751 107.166 130.173 106.276 129.624 106.049C129.075 105.823 129.149 105.728 130.455 104.477C131.759 103.229 131.004 104.043 131.647 103.497C132.289 102.946 132.347 103.287 133.047 103.195C133.746 103.097 133.839 102.532 134.787 102.246C135.735 101.961 134.863 102.38 135.487 102.266C136.111 102.154 136.133 101.869 136.679 101.415C137.227 100.962 137.169 101.51 136.905 101.905C136.642 102.305 136.508 102.493 136.225 102.853C135.94 103.214 136.32 103.383 136.813 103.307C137.303 103.231 137.098 102.966 137.425 103.022C137.754 103.08 138.005 103.212 138.536 102.758C139.07 102.305 137.91 101.983 137.776 101.583C137.646 101.186 137.927 101.583 138.461 101.432C138.758 101.347 138.994 101.01 139.148 100.733C139.475 100.633 139.797 100.499 140.047 100.355C140.845 99.9014 140.996 99.1067 141.449 98.841C141.903 98.5752 142.51 99.0677 143.075 99.4089C143.643 99.7477 143.643 100.318 143.76 100.923C143.872 101.527 143.494 101.488 142.622 102.056C141.754 102.624 142.51 102.853 142.736 103.458C142.963 104.063 143.226 103.911 143.833 104.708C144.438 105.501 145.008 105.047 145.688 105.199C146.368 105.35 145.915 104.479 146.444 104.518C146.973 104.557 146.858 103.383 146.332 103.117C145.798 102.853 145.952 102.361 146.293 102.02C146.634 101.681 146.785 102.775 147.446 102.758C148.109 102.744 147.919 101.642 147.997 101.074C148.07 100.506 146.785 100.581 146.217 100.126C145.649 99.6723 146.181 99.4797 146.898 99.4456C147.614 99.4089 147.01 98.724 145.878 98.5021C144.74 98.273 145.425 98.4631 145.311 97.8975C145.196 97.3273 145.084 98.122 144.589 97.8195C144.099 97.5174 144.438 97.1785 144.174 96.4959C143.911 95.8159 143.494 96.7981 142.812 96.3838C142.446 96.1596 142.256 96.2327 142.025 96.2911C142.042 96.2788 142.066 96.1815 142.029 96.1741C141.878 96.1448 141.337 96.3471 141.337 96.3471C141.337 96.3471 139.772 96.8177 139.443 97.1028C139.134 97.3711 139.709 98.6557 139.709 98.6557C139.709 98.6557 139.197 98.9531 138.656 99.3286C138.565 98.9994 138.329 98.6509 138.044 98.4657C137.403 98.0511 137.929 98.0511 138.31 97.5174C139.275 96.1644 139.436 96.6567 140.277 96.0814C141.6 95.1723 140.277 96.0814 138.987 95.8523C137.702 95.6281 138.497 96.6885 137.588 96.725C136.679 96.7617 136.34 97.5586 135.355 97.71C135.301 97.7197 135.25 97.7293 135.204 97.7367C135.177 97.8195 135.231 96.6934 135.189 96.6641C135.335 96.6006 135.565 96.4837 135.925 96.2717C137.59 95.2867 136.342 95.3649 135.925 95.0966C135.508 94.8335 135.508 95.5502 135.133 95.2477C134.753 94.9456 134.831 94.7214 135.357 93.812C135.889 92.9027 134.297 93.6609 133.58 94.0362C132.864 94.4166 132.293 94.0752 132.293 94.0752C131.157 94.6798 131.764 94.9089 132.369 94.8724C132.973 94.8335 132.671 95.2113 132.369 95.5892C132.067 95.967 131.955 96.3059 131.42 95.9303C130.894 95.5502 131.157 96.3059 130.628 96.7591C130.099 97.2126 129.987 96.3059 130.326 95.8134C130.665 95.3234 129.758 95.6987 129.96 95.2844C130.163 94.8699 130.594 95.0212 131.121 94.3751C131.655 93.7292 130.024 93.9218 129.041 94.3751C128.057 94.8286 128.437 94.3361 130.026 92.9368C130.994 92.0861 130.516 91.5424 129.885 91.0743C125.541 92.7078 121.412 94.7845 117.553 97.2468C118.908 97.1176 119.973 96.8593 119.578 97.5441C119.022 98.5047 117.972 100.126 115.183 103.075C111.156 107.334 110.503 110.344 108.635 112.36C106.771 114.379 103.138 115.037 102.836 120.032C102.534 125.027 101.474 128.656 101.474 128.656C101.474 128.656 101.02 131.584 100.764 133.4C100.513 135.216 101.42 137.283 101.927 137.184C102.429 137.084 102.178 136.83 101.776 135.921C101.371 135.011 101.256 133.315 101.8 130.475C101.99 129.483 102.112 128.761 102.412 127.754C102.712 126.745 102.885 126.74 103.29 128.154C103.692 129.568 103.39 129.517 102.836 131.484C102.28 133.451 103.39 135.216 103.641 136.63C103.894 138.044 104.55 140.362 103.641 141.272C102.731 142.178 104.299 144.35 104.652 144.701C105.003 145.055 105.713 145.662 105.713 146.318C105.713 146.973 108.789 148.182 110.052 147.983C111.314 147.78 110.861 148.285 111.112 148.687C111.363 149.092 112.073 150.05 113.079 151.615C114.088 153.177 113.784 151.512 114.442 152.319C115.1 153.126 115.298 152.621 116.509 152.924C117.721 153.226 116.409 153.779 116.811 153.931C117.216 154.082 118.023 155.193 117.923 156.2C117.823 157.212 117.621 157.212 118.779 157.312C119.941 157.414 120.042 157.914 120.292 158.823C120.546 159.732 121.555 160.039 122.362 160.746C123.166 161.451 123.725 161.197 123.371 160.544C123.018 159.888 123.12 159.684 124.027 159.23C124.936 158.777 124.429 160.342 125.692 160.746C126.952 161.151 125.39 159.835 125.287 158.879C125.187 157.919 124.532 158.828 123.622 158.474C122.715 158.123 123.423 159.435 122.715 159.13C122.011 158.828 121.86 159.432 121.911 158.577C121.96 157.716 121.202 158.223 120.648 157.516C120.095 156.807 120.195 157.063 119.993 156.254C119.793 155.449 119.591 155.398 120.346 154.187C121.102 152.975 120.549 152.319 120.899 151.712C121.253 151.108 120.295 151.208 120.095 151.008C119.893 150.805 119.235 150.352 118.581 150.252C117.926 150.15 117.872 150.805 117.067 150.252C116.258 149.696 115.251 150.101 115.654 149.596C116.056 149.094 116.409 148.587 116.663 148.182C116.916 147.78 116.814 146.72 117.723 146.52C118.632 146.318 117.397 146.179 117.472 145.764C117.557 145.296 118.328 144.653 118.481 143.846C118.632 143.041 116.363 143.695 115.556 143.646C114.747 143.595 115.254 145.462 114.193 145.964C113.133 146.469 113.637 147.629 112.931 146.873C112.226 146.118 110.863 146.32 110.51 145.462C110.157 144.601 109.549 143.948 109.35 143.039C109.147 142.132 109.147 140.011 110.003 138.9C110.863 137.788 110.712 136.379 111.317 135.419C111.922 134.458 112.377 134.258 113.991 133.603C115.605 132.947 115.354 133.149 115.958 133.3C116.563 133.451 117.17 134.209 117.723 133.702C118.279 133.2 117.723 133.702 119.288 133.451C120.853 133.2 121.155 133.805 121.658 133.754C122.162 133.702 122.262 134.865 122.92 134.563C123.578 134.261 123.525 134.612 124.334 135.623C125.139 136.63 124.788 136.884 124.232 137.893C123.679 138.902 124.585 139.204 125.292 140.413C126.001 141.625 125.697 139.709 126.048 138.8C126.401 137.891 126.199 137.032 125.848 135.621C125.494 134.207 125.697 133.754 126.652 132.542C127.613 131.331 128.066 131.08 129.68 130.977C131.296 130.877 131.798 129.264 132.205 128.354C132.608 127.447 131.852 127.294 132.457 125.982C133.061 124.671 132.961 127.043 133.266 125.982C133.568 124.922 133.266 125.982 134.275 125.329C135.284 124.673 134.326 124.317 135.789 124.142C137.251 123.964 138.463 122.099 139.068 121.816C139.672 121.531 139.572 120.939 140.179 121.19C140.784 121.441 140.279 120.38 141.793 120.029C143.307 119.676 143.056 119.978 142.729 120.432C142.405 120.885 142.3 120.432 141.693 121.341C141.089 122.248 142.754 121.694 143.358 120.987C143.962 120.283 145.628 120.334 146.839 119.576C148.051 118.82 146.89 119.071 146.334 118.667C145.781 118.262 145.832 119.32 144.821 119.727C143.811 120.13 143.865 119.374 143.458 118.516C143.056 117.655 143.863 117.504 144.167 116.7C144.47 115.893 143.056 116.597 142.098 116.549C141.142 116.497 140.837 116.597 141.544 116.195C142.249 115.793 142.354 116.044 142.249 115.69C142.149 115.339 142.249 115.388 143.763 115.237C145.276 115.086 146.941 115.841 148.255 114.735C149.567 113.623 148.455 114.077 149.667 114.381C150.878 114.683 149.718 114.935 148.911 115.342C148.107 115.744 149.265 116.448 148.258 116.753C147.246 117.056 148.66 117.916 150.476 117.714C152.292 117.511 151.232 118.016 151.787 118.521C152.343 119.023 152.141 118.823 152.697 118.218C153.252 117.614 152.294 117.309 152.092 116.049L152.065 116.044ZM135.182 96.6618C134.792 96.8251 135.053 96.5739 135.182 96.6618V96.6618Z" fill="#40F5F9" fill-opacity="0.2"/>
<path d="M219.933 153.433C219.933 166.226 216.328 178.176 210.073 188.321C209.305 186.232 210.69 182.088 212.835 176.489C214.977 170.889 214.022 165.59 212.835 162.716C211.648 159.839 212.508 158.781 212.811 156.661C213.113 154.542 210.541 157.721 210.39 156.358C210.239 154.996 208.725 154.542 207.664 154.693C206.604 154.845 206.604 157.872 205.09 157.419C203.576 156.965 204.637 155.905 202.821 158.781C201.005 161.658 196.916 158.177 194.949 156.663C192.982 155.149 191.771 155.149 191.771 151.819C191.771 148.49 191.771 145.159 190.861 144.857C189.952 144.555 189.197 142.588 188.441 139.56C187.685 136.532 190.861 135.17 193.436 132.9C196.01 130.631 192.831 130.48 192.831 130.48C192.831 130.48 191.62 129.268 191.922 126.848C192.224 124.427 193.587 125.485 194.949 125.485C196.312 125.485 196.916 124.729 197.826 122.306C198.733 119.883 198.43 120.188 200.853 120.332C203.276 120.473 202.67 124.273 203.428 124.108C204.183 123.942 203.881 122.609 204.79 123.215C205.697 123.82 207.06 124.88 207.818 123.215C208.574 121.55 206.455 121.853 207.818 121.248C209.181 120.644 210.241 121.55 209.634 119.886C209.376 119.181 209.473 118.479 209.671 117.899C216.174 128.183 219.936 140.37 219.936 153.438L219.933 153.433Z" fill="#40F5F9" fill-opacity="0.2"/>
<path d="M205.251 115.606C203.557 113.95 202.092 111.179 202.333 109.926C202.369 109.728 203.125 110.53 202.974 109.436C202.962 109.358 203.025 109.277 203.127 109.202C203.881 110.048 204.612 110.908 205.319 111.793C205.268 112.219 205.321 112.685 205.546 113.183C206.006 114.197 206.606 116.927 205.248 115.603L205.251 115.606Z" fill="#40F5F9" fill-opacity="0.2"/>
<path d="M203.885 116.889C203.244 116.889 200.857 114.127 199.344 112.767C197.83 111.405 198.72 112.828 198.352 113.479C197.981 114.13 197.074 111.556 196.467 112.314C196.38 112.423 196.275 112.499 196.155 112.55C196.394 112.792 196.682 113.074 196.996 113.374C197.876 114.21 198.398 114.32 198.549 114.166C198.7 114.015 199.076 114.376 199.076 114.376L200.365 114.661C200.365 114.661 201.23 115.161 201.201 115.422C201.179 115.583 200.438 115.398 200.372 115.383C200.475 115.48 201.672 116.582 201.25 117.197C201.038 117.508 200.553 116.555 199.948 115.912C199.588 115.527 198.812 115.19 198.586 115.419C198.359 115.646 197.864 115.532 197.338 114.664C196.935 114.008 195.434 113.825 194.724 113.774C194.734 113.923 194.758 114.091 194.8 114.286C195.253 116.404 193.437 115.346 193.437 115.346C193.437 115.346 193.74 117.616 193.437 118.072C193.135 118.525 192.984 119.283 194.193 121.25C195.405 123.218 192.074 121.855 192.377 123.066C192.679 124.278 191.09 125.185 188.325 121.704C185.563 118.223 185.793 116.524 188.325 117.223C190.068 117.277 190.863 116.558 189.652 115.12C187.57 113.567 186.66 113.672 185.6 112.811C184.539 111.951 186.168 111.412 187.229 111.11C188.021 111.187 187.909 110.542 187.404 110.113C186.005 108.935 188.591 109.293 187.682 107.524C187.229 106.388 187.499 106.025 187.682 105.544C188.111 104.416 189.498 106.19 189.045 104.145C188.591 102.1 191.39 105.054 190.18 103.314C188.969 101.573 186.246 101.498 187.38 101.044C188.515 100.591 186.451 100.652 186.168 99.3792C185.866 98.0167 185.5 97.6217 184.539 97.3366C184.466 98.3971 186.243 99.4549 184.957 99.2281C183.669 99.0014 182.536 98.5481 181.551 97.412C180.566 96.2762 177.539 94.6112 179.357 96.5784C181.173 98.5456 182.007 99.5306 183.367 99.9084C184.579 100.06 184.427 100.135 185.561 101.271C186.697 102.407 187.792 105.337 186.551 104.715C184.601 103.736 184.725 102.295 183.518 101.498C183.467 101.451 183.708 102.899 183.14 103.011C181.778 103.692 180.795 101.195 179.281 100.437C177.768 99.6817 180.795 99.9084 179.584 98.848C178.372 97.7876 175.8 96.1983 175.118 94.9134C174.438 93.6265 174.438 92.1882 175.949 93.2486C176.554 94.309 176.629 92.3393 178.067 93.4751C179.506 94.6112 178.514 93.9409 179.884 94.6869C181.5 95.5618 182.76 95.3669 182.153 94.8769C180.776 93.7579 174.808 92.3757 174.964 90.711C174.974 90.6134 174.979 90.5206 174.979 90.4355C184.793 93.8069 193.569 99.4085 200.704 106.634C200.282 106.814 199.056 107.453 199.817 108.465C200.726 109.676 201.728 109.744 201.211 111.107C200.694 112.47 205.596 116.899 203.873 116.894L203.885 116.889Z" fill="#40F5F9" fill-opacity="0.2"/>
<path d="M178.15 103.307C179.628 102.327 179.06 104.972 179.891 104.745C180.725 104.518 181.12 105.471 181.671 105.881C182.499 106.498 182.058 106.183 183.752 107.244C184.54 107.736 184.661 108.153 184.888 108.682C185.115 109.211 185.722 107.622 185.949 108.304C186.175 108.984 187.538 109.364 185.269 110.271C184.437 110.271 184.815 111.256 184.359 111.18C183.906 111.105 184.111 109.63 183.428 109.706C182.748 109.781 183.601 108.911 182.692 108.835C181.783 108.76 183.713 108.457 182.655 108.08C181.595 107.702 180.934 106.573 181.086 107.48C181.237 108.387 182.468 110.122 181.785 109.745C181.105 109.367 181.861 110.729 181.332 110.729C180.803 110.729 180.422 110.503 180.196 109.745C179.969 108.989 178.228 108.684 179.135 108.457C180.045 108.231 178.37 107.524 179.287 107.249C179.65 107.139 179.118 106.22 179.118 106.22C178.058 105.679 176.468 104.884 177.831 105.111C179.194 105.337 177.77 103.565 178.15 103.312V103.307Z" fill="#40F5F9" fill-opacity="0.2"/>
<path d="M168.237 99.9768C168.539 99.8501 169.449 100.128 169.449 100.469C169.449 100.81 170.66 101.018 170.255 101.354C169.575 101.922 170.092 102.475 169.6 102.361C169.107 102.246 169.675 102.965 168.805 102.702C167.935 102.436 167.669 102.739 166.838 102.098C166.004 101.454 164.795 101.569 165.209 100.81C165.777 100.167 166.572 100.62 166.913 100.886C167.291 101.264 167.13 100.34 167.442 100.469C168.086 100.735 168.023 100.067 168.237 99.9768Z" fill="#40F5F9" fill-opacity="0.2"/>
<path d="M148.698 93.7019C149.022 93.5946 150.223 92.9388 151.057 92.5977C151.399 92.2955 151.625 92.3709 152.003 92.5977C152.381 92.8244 153.256 91.6883 153.629 92.0298C154.004 92.3709 154.499 90.7059 156.279 91.803C157.093 91.7714 157.183 91.1059 157.749 91.8249C158.317 92.5442 158.716 90.9816 159.343 92.5197C159.76 93.5411 160.479 94.1699 160.857 94.2991C161.708 94.5916 163.048 95.1402 162.595 95.6716C162.142 96.2006 161.615 96.1909 162.295 96.7978C162.975 97.4024 163.999 97.0246 163.999 97.4778C163.999 97.8557 162.658 97.5925 161.805 97.5925C161.464 97.5925 161.352 98.085 161.805 98.2361C162.258 98.3871 162.865 98.1604 163.28 98.2361C163.697 98.3117 163.885 99.0307 163.129 99.2965C162.371 99.5622 161.691 100.015 160.971 99.789C160.216 99.828 162.22 101.152 160.554 101.605C158.889 102.058 159.419 101.264 158.965 101.605C158.512 101.946 159.911 102.134 158.85 102.436C157.79 102.739 158.056 103.116 158.131 103.458C158.207 103.799 157.941 104.026 157.603 104.216C157.261 104.406 157.98 104.481 157.754 105.503C157.527 106.524 158.587 106.978 157.678 106.826C156.769 106.675 157.337 105.654 156.466 105.805C155.596 105.956 153.899 105.047 153.329 103.989C152.759 102.929 152.683 102.741 152.04 102.248C151.396 101.756 150.943 101.037 151.511 100.849C152.079 100.659 151.964 100.396 152.532 100.396C153.1 100.396 153.561 100.637 153.329 99.9475C153.1 99.2598 153.363 99.2598 152.607 99.4111C151.849 99.5622 151.245 98.9943 152.003 98.9576C152.759 98.9212 153.366 99.0723 152.949 98.5041C152.532 97.9362 152.456 97.4439 152.04 97.8998C151.623 98.353 151.396 98.8088 151.36 97.7094C151.321 96.6126 151.208 96.649 150.867 95.9326C150.526 95.2133 151.169 95.1379 149.846 95.2523C148.522 95.3669 147.481 95.518 147.445 95.1012C147.406 94.6844 148.018 93.9335 148.698 93.7067V93.7019Z" fill="#40F5F9" fill-opacity="0.2"/>
<path d="M163.278 90.326C163.51 89.9871 165.396 90.3624 164.867 90.7428C164.338 91.1207 165.094 91.0086 165.928 91.1207C166.759 91.2328 167.517 91.5739 167.29 91.6496C167.064 91.7253 165.957 91.3059 165.852 91.6496C165.781 91.8812 166.922 92.0957 166.683 92.1421C165.879 92.2955 164.845 91.9179 164.263 91.7253C164.002 91.6399 163.251 91.5059 163.278 91.2328C163.298 91.045 163.997 91.006 163.997 91.006C163.997 91.006 163.139 90.5283 163.278 90.326Z" fill="#40F5F9" fill-opacity="0.2"/>
<path d="M123.761 168.72C123.257 168.82 122.893 169.217 122.793 171.033C122.694 172.849 122.16 174.148 122.764 175.784C124.025 177.298 126.284 182.493 127.293 183.1C129.514 187.236 133.651 189.255 135.213 189.962C136.779 190.669 136.627 199.093 136.072 199.447C135.516 199.8 136.676 200.858 136.374 201.012C136.072 201.163 136.878 202.223 136.878 203.535C136.878 204.846 137.03 204.644 136.425 205.602C135.821 206.56 137.383 210.395 137.888 212.06C138.392 213.725 139.653 214.483 140.36 214.834C141.066 215.187 141.671 215.238 142.934 215.646C144.194 216.053 146.466 216.55 145.961 215.641C144.65 215.741 143.187 213.976 143.59 213.976C143.992 213.976 143.59 213.522 143.741 213.066C143.892 212.61 144.65 212.764 144.85 212.411C145.052 212.057 144.043 212.006 143.638 211.553C143.234 211.099 143.892 210.997 144.647 210.846C145.403 210.695 144.798 210.09 145.403 209.634C146.008 209.181 144.294 208.676 144.95 208.827C145.605 208.978 146.059 208.927 146.161 208.423C146.261 207.918 145.252 207.413 146.515 207.465C148.129 207.918 150.147 206.809 150.651 206.607C151.156 206.404 150.298 205.244 149.642 204.907C148.987 204.571 147.826 203.881 148.077 203.277C148.328 202.672 148.935 203.377 149.337 204.035C149.742 204.691 151.71 204.488 152.112 204.842C152.516 205.195 153.677 204.083 154.332 203.379C154.988 202.672 155.997 201.261 157.46 200.454C158.922 199.647 158.72 199.04 158.52 198.284C158.318 197.529 159.429 196.619 160.539 196.064C161.648 195.508 162.608 194.903 164.373 194.903C166.138 194.903 165.383 193.743 166.543 193.087C167.703 192.431 168.764 189.152 169.117 188.243C169.471 187.337 169.419 185.974 169.419 185.116C169.419 184.258 169.471 184.258 170.075 184.511C170.68 184.762 170.377 183.856 170.933 183.451C171.489 183.046 170.933 182.542 171.589 182.29C172.245 182.039 172.547 180.525 173.405 179.97C174.263 179.414 174.01 178.154 173.858 177.196C173.707 176.238 172.798 175.733 171.891 175.682C170.982 175.631 169.973 174.926 169.268 173.993C168.561 173.059 166.594 174.068 165.838 173.993C165.083 173.917 164.829 173.31 164.225 173.815C163.62 174.319 163.164 173.663 162.913 172.857C162.66 172.05 161.702 172.454 160.895 171.82C160.088 171.187 159.985 171.747 159.33 171.799C158.674 171.85 158.42 171.799 157.918 171.799C157.416 171.799 156.858 170.538 156.96 169.578C157.214 168.62 156.002 168.266 156.002 168.266C156.002 168.266 155.498 167.257 155.093 165.946C154.688 164.634 153.377 165.19 152.57 164.432C151.763 163.676 149.594 164.13 148.835 164.078C148.08 164.027 147.322 163.474 147.119 162.667C146.917 161.86 145.908 161.253 145.303 161.173C144.699 161.092 144.699 161.002 144.699 160.346C144.699 159.691 143.992 159.791 143.538 159.591C143.085 159.388 142.934 159.439 142.783 158.884C142.632 158.328 142.127 158.43 141.471 158.128C140.815 157.826 140.715 158.279 140.613 158.732C140.513 159.186 139.704 159.288 139.15 158.833C138.595 158.379 138.292 158.428 137.99 158.479C137.688 158.53 136.579 158.833 136.425 158.225C136.274 157.621 135.567 157.368 134.458 157.165C133.349 156.963 133.651 156.812 133.651 156.509C133.651 156.207 132.895 156.005 132.188 156.509C131.481 157.014 131.079 157.165 130.726 157.158C130.372 157.15 130.019 157.921 129.466 157.316C128.91 156.712 129.716 158.023 128.495 158.225C127.274 158.428 126.779 159.235 126.779 159.235V160.749C126.779 160.749 126.969 160.649 126.779 162.667C126.589 164.685 125.984 166.906 124.873 167.813L123.764 168.72H123.761Z" fill="#40F5F9" fill-opacity="0.2"/>
<path d="M120.936 143.09C120.936 143.09 122.652 142.181 123.256 142.585C123.861 142.99 124.646 142.485 126.776 143.797C128.907 145.108 132.034 146.522 130.623 146.622C129.211 146.722 128.907 146.622 128.1 146.622C127.293 146.622 127.539 146.01 127.242 145.713C126.299 144.762 126.081 144.852 125.375 144.628C124.668 144.404 123.861 143.543 123.761 144.15C123.661 144.755 120.936 143.09 120.936 143.09Z" fill="#40F5F9" fill-opacity="0.2"/>
<path d="M131.832 147.329C131.832 147.329 132.639 148.64 131.832 148.64C131.025 148.64 130.218 149.347 130.218 149.347C130.218 149.347 132.539 149.55 133.143 149.347C133.748 149.145 134.252 149.727 135.261 149.438C136.271 149.147 137.785 148.511 136.573 148.426C135.362 148.338 133.619 147.734 133.619 147.734C133.619 147.734 132.436 147.229 131.829 147.329H131.832Z" fill="#40F5F9" fill-opacity="0.2"/>
<g filter="url(#filter1_i_100_169)">
<path d="M200.563 106.23C242.5 108.183 273.17 120.987 276.279 140.729C280.634 168.383 229.255 199.181 161.52 209.521C93.7846 219.86 35.3425 205.802 30.9862 178.148C27.8755 158.398 53.1929 137.045 92.5933 122.687" stroke="#3456FF" stroke-width="2.76458" stroke-miterlimit="10" stroke-linecap="round"/>
</g>
<g filter="url(#filter2_i_100_169)">
<path d="M208.135 113.349C238.789 116.782 260.34 127.449 262.774 142.937C266.623 167.425 221.23 194.695 161.388 203.846C101.545 212.997 49.9133 200.562 46.0649 176.073C43.6305 160.583 60.8996 143.982 89.0673 131.552" stroke="#3456FF" stroke-width="1.21641" stroke-miterlimit="10" stroke-linecap="round"/>
</g>
<g filter="url(#filter3_i_100_169)">
<path d="M213.468 123.619C229.852 127.819 240.691 135.288 242.227 145.115C245.379 165.27 208.208 187.714 159.205 195.24C110.202 202.766 67.9235 192.537 64.773 172.382C63.2348 162.544 71.3039 152.159 85.6692 143.231" stroke="#3456FF" stroke-width="2.76458" stroke-miterlimit="10" stroke-linecap="round"/>
</g>
<g filter="url(#filter4_i_100_169)">
<path d="M217.892 136.49C222.95 139.668 226.115 143.598 226.83 148.146C229.419 164.63 198.835 182.988 158.518 189.161C118.2 195.332 83.4181 186.969 80.829 170.481C80.1629 166.208 81.7172 161.811 85.0925 157.532" stroke="#3456FF" stroke-width="1.17189" stroke-miterlimit="10" stroke-linecap="round"/>
</g>
<g filter="url(#filter5_d_100_169)">
<path d="M96.4085 197.011C96.843 197.011 97.195 196.664 97.195 196.235C97.195 195.807 96.843 195.459 96.4085 195.459C95.9741 195.459 95.6218 195.807 95.6218 196.235C95.6218 196.664 95.9741 197.011 96.4085 197.011Z" fill="white"/>
</g>
<g filter="url(#filter6_d_100_169)">
<path d="M52.9489 202.055C53.2746 202.055 53.5387 201.794 53.5387 201.473C53.5387 201.151 53.2746 200.891 52.9489 200.891C52.6231 200.891 52.3588 201.151 52.3588 201.473C52.3588 201.794 52.6231 202.055 52.9489 202.055Z" fill="white"/>
</g>
<g filter="url(#filter7_d_100_169)">
<path d="M55.5061 153.948C55.7235 153.948 55.8996 153.774 55.8996 153.56C55.8996 153.346 55.7235 153.172 55.5061 153.172C55.289 153.172 55.1129 153.346 55.1129 153.56C55.1129 153.774 55.289 153.948 55.5061 153.948Z" fill="white"/>
</g>
<g filter="url(#filter8_d_100_169)">
<path d="M261.985 153.172C262.202 153.172 262.379 152.999 262.379 152.784C262.379 152.57 262.202 152.396 261.985 152.396C261.768 152.396 261.592 152.57 261.592 152.784C261.592 152.999 261.768 153.172 261.985 153.172Z" fill="white"/>
</g>
<g filter="url(#filter9_d_100_169)">
<path d="M64.9444 171.794C65.1617 171.794 65.3379 171.62 65.3379 171.406C65.3379 171.192 65.1617 171.018 64.9444 171.018C64.7273 171.018 64.5511 171.192 64.5511 171.406C64.5511 171.62 64.7273 171.794 64.9444 171.794Z" fill="white"/>
</g>
<g filter="url(#filter10_d_100_169)">
<path d="M217.149 178.778C217.366 178.778 217.542 178.604 217.542 178.39C217.542 178.176 217.366 178.002 217.149 178.002C216.931 178.002 216.755 178.176 216.755 178.39C216.755 178.604 216.931 178.778 217.149 178.778Z" fill="white"/>
</g>
<g filter="url(#filter11_d_100_169)">
<path d="M225.409 116.704C225.626 116.704 225.802 116.531 225.802 116.317C225.802 116.102 225.626 115.928 225.409 115.928C225.191 115.928 225.015 116.102 225.015 116.317C225.015 116.531 225.191 116.704 225.409 116.704Z" fill="white"/>
</g>
<g filter="url(#filter12_d_100_169)">
<path d="M234.555 75.0213C234.773 75.0213 234.949 74.8477 234.949 74.6335C234.949 74.4192 234.773 74.2454 234.555 74.2454C234.338 74.2454 234.162 74.4192 234.162 74.6335C234.162 74.8477 234.338 75.0213 234.555 75.0213Z" fill="white"/>
</g>
<g filter="url(#filter13_d_100_169)">
<path d="M125.119 191.58C125.336 191.58 125.512 191.406 125.512 191.192C125.512 190.978 125.336 190.804 125.119 190.804C124.901 190.804 124.725 190.978 124.725 191.192C124.725 191.406 124.901 191.58 125.119 191.58Z" fill="white"/>
</g>
<g filter="url(#filter14_d_100_169)">
<path d="M202.204 106.618C202.422 106.618 202.597 106.444 202.597 106.23C202.597 106.016 202.422 105.842 202.204 105.842C201.987 105.842 201.811 106.016 201.811 106.23C201.811 106.444 201.987 106.618 202.204 106.618Z" fill="white"/>
</g>
<g filter="url(#filter15_d_100_169)">
<path d="M148.716 205.934C149.15 205.934 149.503 205.587 149.503 205.158C149.503 204.73 149.15 204.382 148.716 204.382C148.282 204.382 147.93 204.73 147.93 205.158C147.93 205.587 148.282 205.934 148.716 205.934Z" fill="white"/>
</g>
<g filter="url(#filter16_d_100_169)">
<path d="M249.006 115.928C249.44 115.928 249.792 115.581 249.792 115.152C249.792 114.724 249.44 114.376 249.006 114.376C248.571 114.376 248.219 114.724 248.219 115.152C248.219 115.581 248.571 115.928 249.006 115.928Z" fill="white"/>
</g>
<g filter="url(#filter17_d_100_169)">
<path d="M226.589 153.56C227.023 153.56 227.375 153.213 227.375 152.784C227.375 152.356 227.023 152.009 226.589 152.009C226.154 152.009 225.802 152.356 225.802 152.784C225.802 153.213 226.154 153.56 226.589 153.56Z" fill="white"/>
</g>
<g filter="url(#filter18_d_100_169)">
<path d="M31.5151 170.243C31.9493 170.243 32.3015 169.895 32.3015 169.467C32.3015 169.038 31.9493 168.691 31.5151 168.691C31.0806 168.691 30.7284 169.038 30.7284 169.467C30.7284 169.895 31.0806 170.243 31.5151 170.243Z" fill="white"/>
</g>
<g filter="url(#filter19_d_100_169)">
<path d="M250.186 179.942C250.621 179.942 250.973 179.594 250.973 179.166C250.973 178.737 250.621 178.39 250.186 178.39C249.752 178.39 249.4 178.737 249.4 179.166C249.4 179.594 249.752 179.942 250.186 179.942Z" fill="white"/>
</g>
<g filter="url(#filter20_d_100_169)">
<path d="M74.778 131.059C75.2125 131.059 75.5647 130.711 75.5647 130.283C75.5647 129.854 75.2125 129.507 74.778 129.507C74.3435 129.507 73.9916 129.854 73.9916 130.283C73.9916 130.711 74.3435 131.059 74.778 131.059Z" fill="white"/>
</g>
<g opacity="0.9">
<g filter="url(#filter21_d_100_169)">
<path d="M100.169 98.6796C98.1168 98.868 96.6117 100.665 96.8074 102.694C97.0032 104.723 98.8252 106.215 100.877 106.027C102.929 105.838 104.434 104.041 104.239 102.012C104.043 99.9833 102.221 98.4913 100.169 98.6796ZM100.275 99.7782C100.953 99.7158 101.556 100.209 101.621 100.88C101.686 101.552 101.188 102.146 100.509 102.208C99.8305 102.271 99.2278 101.777 99.163 101.106C99.0984 100.435 99.596 99.8405 100.275 99.7782ZM100.784 105.066C100.107 105.128 99.4629 104.941 98.9456 104.582C98.8198 104.494 98.7385 104.356 98.7239 104.205C98.6582 103.525 99.163 102.929 99.8512 102.866L101.281 102.734C101.97 102.671 102.577 103.165 102.643 103.845C102.657 103.997 102.605 104.147 102.497 104.256C102.058 104.703 101.461 105.004 100.784 105.066Z" fill="#F8F8FA"/>
</g>
<g filter="url(#filter22_d_100_169)">
<path d="M114.744 80.2536C112.692 80.4417 111.187 82.239 111.383 84.2679C111.578 86.2969 113.4 87.7886 115.452 87.6003C117.504 87.4119 119.009 85.6146 118.813 83.5859C118.618 81.557 116.796 80.0652 114.744 80.2536ZM114.85 81.3519C115.529 81.2895 116.131 81.7832 116.196 82.4541C116.261 83.1253 115.763 83.7196 115.084 83.782C114.405 83.8443 113.803 83.3509 113.738 82.6797C113.673 82.0088 114.171 81.4142 114.85 81.3519ZM115.359 86.64C114.682 86.702 114.038 86.5154 113.521 86.1555C113.395 86.0681 113.314 85.9301 113.299 85.7787C113.233 85.0984 113.738 84.5027 114.426 84.4395L115.856 84.3083C116.545 84.2452 117.152 84.7388 117.218 85.4191C117.233 85.5705 117.179 85.7204 117.072 85.8294C116.633 86.2769 116.036 86.5777 115.359 86.64Z" fill="#F8F8FA"/>
</g>
<g filter="url(#filter23_d_100_169)">
<path d="M123.451 104.927C121.399 105.115 119.894 106.912 120.089 108.941C120.285 110.97 122.107 112.462 124.159 112.274C126.211 112.085 127.716 110.288 127.521 108.259C127.325 106.23 125.503 104.738 123.451 104.927ZM123.557 106.025C124.236 105.963 124.838 106.457 124.903 107.128C124.968 107.799 124.47 108.393 123.791 108.455C123.112 108.518 122.51 108.024 122.445 107.353C122.38 106.682 122.878 106.088 123.557 106.025ZM124.066 111.313C123.389 111.376 122.745 111.189 122.228 110.829C122.102 110.741 122.021 110.604 122.006 110.452C121.94 109.772 122.445 109.176 123.133 109.113L124.563 108.982C125.252 108.918 125.859 109.412 125.925 110.093C125.939 110.244 125.886 110.394 125.779 110.503C125.34 110.95 124.743 111.251 124.066 111.313Z" fill="#F8F8FA"/>
</g>
<g filter="url(#filter24_d_100_169)">
<path d="M144.959 73.1872C142.907 73.3755 141.402 75.1726 141.598 77.2015C141.793 79.2305 143.615 80.7222 145.667 80.5339C147.72 80.3455 149.224 78.5484 149.029 76.5195C148.833 74.4906 147.011 72.9988 144.959 73.1872ZM145.065 74.2854C145.744 74.2231 146.346 74.7168 146.411 75.3877C146.476 76.0589 145.978 76.6532 145.299 76.7156C144.621 76.7779 144.018 76.2845 143.953 75.6133C143.889 74.9424 144.386 74.3478 145.065 74.2854ZM145.574 79.5736C144.897 79.6356 144.253 79.449 143.736 79.089C143.61 79.0017 143.529 78.8637 143.514 78.7126C143.448 78.032 143.953 77.4363 144.641 77.3731L146.071 77.2419C146.76 77.1788 147.367 77.6724 147.433 78.3527C147.448 78.5041 147.394 78.654 147.287 78.763C146.848 79.2105 146.251 79.5116 145.574 79.5736Z" fill="#F8F8FA"/>
</g>
<g filter="url(#filter25_d_100_169)">
<path d="M154.401 96.2851C152.35 96.4734 150.845 98.2708 151.04 100.3C151.236 102.328 153.058 103.82 155.11 103.632C157.162 103.444 158.667 101.646 158.471 99.6177C158.276 97.5888 156.454 96.0967 154.401 96.2851ZM154.508 97.3836C155.186 97.3213 155.789 97.815 155.854 98.4859C155.918 99.1571 155.421 99.7514 154.742 99.8137C154.063 99.876 153.46 99.3824 153.396 98.7115C153.331 98.0406 153.829 97.4459 154.508 97.3836ZM155.017 102.672C154.339 102.734 153.696 102.547 153.179 102.187C153.052 102.1 152.971 101.962 152.957 101.811C152.891 101.13 153.396 100.534 154.084 100.471L155.514 100.34C156.203 100.277 156.81 100.77 156.876 101.451C156.89 101.602 156.837 101.752 156.73 101.861C156.291 102.309 155.694 102.609 155.017 102.672Z" fill="#F8F8FA"/>
</g>
<g filter="url(#filter26_d_100_169)">
<path d="M169.812 79.3315C167.761 79.5198 166.255 81.3172 166.451 83.3461C166.647 85.3747 168.469 86.8668 170.521 86.6784C172.573 86.4901 174.078 84.6927 173.882 82.6641C173.687 80.6352 171.865 79.1431 169.812 79.3315ZM169.918 80.43C170.597 80.3677 171.2 80.8614 171.264 81.5323C171.329 82.2034 170.832 82.7978 170.153 82.8601C169.474 82.9224 168.871 82.4288 168.807 81.7579C168.742 81.087 169.24 80.4923 169.918 80.43ZM170.427 85.7182C169.75 85.7802 169.107 85.5932 168.589 85.2336C168.463 85.146 168.382 85.0083 168.368 84.8569C168.302 84.1766 168.806 83.5808 169.495 83.5177L170.925 83.3862C171.614 83.323 172.221 83.8167 172.286 84.4973C172.301 84.6486 172.248 84.7986 172.141 84.9075C171.702 85.3551 171.105 85.6558 170.427 85.7182Z" fill="#F8F8FA"/>
</g>
</g>
<g opacity="0.4">
<mask id="mask0_100_169" style="mask-type:alpha" maskUnits="userSpaceOnUse" x="114" y="98" width="103" height="104">
<g opacity="0.4">
<path d="M211.653 172.288C224.076 146.766 213.458 116.006 187.937 103.583C162.415 91.1598 131.655 101.778 119.232 127.299C106.809 152.821 117.427 183.581 142.948 196.004C168.469 208.427 199.23 197.809 211.653 172.288Z" fill="#D9D9D9"/>
</g>
</mask>
<g mask="url(#mask0_100_169)">
<g opacity="0.5">
<path d="M138.274 163.915C138.801 164.615 139.799 164.763 140.501 164.246C141.203 163.73 141.344 162.745 140.817 162.045C140.289 161.346 139.292 161.198 138.589 161.714C137.887 162.231 137.745 163.216 138.274 163.915Z" fill="white"/>
<path d="M200.531 141.53C201.058 142.229 202.056 142.378 202.758 141.861C203.46 141.345 203.602 140.36 203.074 139.66C202.546 138.961 201.549 138.813 200.846 139.329C200.144 139.846 200.003 140.831 200.531 141.53Z" fill="white"/>
<path d="M160.455 141.16C160.788 141.602 161.419 141.696 161.862 141.37C162.306 141.043 162.395 140.421 162.062 139.979C161.728 139.537 161.098 139.443 160.654 139.77C160.211 140.096 160.121 140.719 160.455 141.16Z" fill="white"/>
<path d="M134.072 176.643C134.405 177.084 135.036 177.178 135.48 176.852C135.923 176.525 136.013 175.903 135.679 175.461C135.346 175.019 134.715 174.925 134.271 175.252C133.828 175.578 133.738 176.201 134.072 176.643Z" fill="white"/>
<path d="M125.821 167.414C126.154 167.855 126.785 167.949 127.228 167.623C127.672 167.297 127.762 166.674 127.428 166.232C127.094 165.79 126.464 165.697 126.02 166.023C125.576 166.349 125.487 166.972 125.821 167.414Z" fill="white"/>
<path d="M172.805 137.822C173.138 138.264 173.769 138.357 174.212 138.031C174.656 137.704 174.745 137.082 174.412 136.64C174.078 136.198 173.448 136.104 173.004 136.431C172.561 136.757 172.471 137.38 172.805 137.822Z" fill="white"/>
<path d="M152.79 149.043C153.124 149.485 153.754 149.579 154.198 149.252C154.642 148.926 154.731 148.303 154.397 147.862C154.064 147.42 153.434 147.326 152.99 147.652C152.546 147.979 152.457 148.601 152.79 149.043Z" fill="white"/>
<path d="M147.435 191.163C147.769 191.605 148.399 191.698 148.843 191.372C149.287 191.046 149.376 190.423 149.043 189.981C148.709 189.54 148.079 189.446 147.635 189.772C147.191 190.099 147.102 190.721 147.435 191.163Z" fill="white"/>
<path d="M170.793 187.706C171.127 188.148 171.757 188.242 172.201 187.916C172.644 187.589 172.734 186.967 172.4 186.525C172.067 186.083 171.436 185.989 170.993 186.315C170.549 186.642 170.46 187.265 170.793 187.706Z" fill="white"/>
<path d="M153.459 179.635C153.793 180.077 154.423 180.17 154.867 179.844C155.311 179.518 155.4 178.895 155.067 178.453C154.733 178.012 154.103 177.918 153.659 178.244C153.215 178.57 153.126 179.193 153.459 179.635Z" fill="white"/>
<path d="M175.383 156.445C175.717 156.887 176.347 156.981 176.791 156.654C177.235 156.328 177.324 155.705 176.99 155.263C176.657 154.822 176.027 154.728 175.583 155.054C175.139 155.38 175.05 156.003 175.383 156.445Z" fill="white"/>
<path d="M210.151 152.176C210.484 152.618 211.115 152.711 211.558 152.385C212.002 152.059 212.091 151.436 211.758 150.994C211.424 150.553 210.794 150.459 210.35 150.785C209.907 151.111 209.817 151.734 210.151 152.176Z" fill="white"/>
<path d="M158.75 128.85C159.083 129.291 159.713 129.385 160.157 129.059C160.601 128.733 160.69 128.11 160.357 127.668C160.023 127.226 159.393 127.132 158.949 127.459C158.506 127.785 158.416 128.408 158.75 128.85Z" fill="white"/>
<path d="M171.978 103.713C172.312 104.155 172.942 104.248 173.385 103.922C173.829 103.596 173.919 102.973 173.585 102.531C173.251 102.089 172.621 101.996 172.177 102.322C171.734 102.648 171.644 103.271 171.978 103.713Z" fill="white"/>
<path d="M135.888 108.955C136.222 109.397 136.852 109.49 137.296 109.164C137.739 108.838 137.829 108.215 137.495 107.773C137.161 107.331 136.531 107.237 136.088 107.564C135.644 107.89 135.554 108.513 135.888 108.955Z" fill="white"/>
<path d="M168.278 164.905C168.473 165.163 168.841 165.217 169.1 165.027C169.36 164.837 169.412 164.473 169.217 164.215C169.022 163.957 168.654 163.902 168.395 164.092C168.136 164.283 168.084 164.647 168.278 164.905Z" fill="white"/>
<path d="M177.252 162.958C177.447 163.216 177.815 163.271 178.074 163.081C178.333 162.89 178.386 162.526 178.191 162.268C177.996 162.01 177.628 161.956 177.369 162.146C177.109 162.337 177.057 162.7 177.252 162.958Z" fill="white"/>
<path d="M160.723 153.66C160.918 153.918 161.286 153.973 161.545 153.782C161.804 153.591 161.856 153.228 161.662 152.97C161.467 152.712 161.099 152.657 160.84 152.848C160.58 153.038 160.528 153.402 160.723 153.66Z" fill="white"/>
<path d="M145.585 175.503C145.78 175.761 146.149 175.816 146.407 175.626C146.667 175.435 146.719 175.071 146.524 174.813C146.329 174.555 145.961 174.501 145.702 174.691C145.443 174.882 145.391 175.245 145.585 175.503Z" fill="white"/>
<path d="M149.051 170.083C149.246 170.341 149.614 170.396 149.873 170.205C150.132 170.015 150.184 169.651 149.99 169.393C149.795 169.135 149.427 169.08 149.168 169.271C148.908 169.461 148.856 169.825 149.051 170.083Z" fill="white"/>
<path d="M155.74 173.889C155.934 174.147 156.302 174.202 156.562 174.012C156.821 173.821 156.873 173.458 156.678 173.199C156.483 172.941 156.115 172.887 155.856 173.077C155.597 173.268 155.545 173.631 155.74 173.889Z" fill="white"/>
<path d="M127.007 198.266C127.202 198.524 127.57 198.579 127.829 198.388C128.088 198.198 128.141 197.834 127.946 197.576C127.751 197.318 127.383 197.263 127.124 197.454C126.864 197.645 126.812 198.008 127.007 198.266Z" fill="white"/>
<path d="M187.408 134.358C187.603 134.616 187.971 134.671 188.23 134.48C188.49 134.29 188.542 133.926 188.347 133.668C188.152 133.41 187.784 133.355 187.525 133.546C187.266 133.736 187.213 134.1 187.408 134.358Z" fill="white"/>
<path d="M195.032 121.502C195.227 121.76 195.595 121.814 195.854 121.624C196.114 121.433 196.166 121.07 195.971 120.812C195.776 120.554 195.408 120.499 195.149 120.689C194.89 120.88 194.838 121.244 195.032 121.502Z" fill="white"/>
<path d="M179.657 172.129C179.852 172.387 180.22 172.442 180.479 172.251C180.738 172.06 180.791 171.697 180.596 171.439C180.401 171.181 180.033 171.126 179.774 171.317C179.515 171.507 179.463 171.871 179.657 172.129Z" fill="white"/>
<path d="M122.368 105.059C122.563 105.317 122.931 105.372 123.19 105.181C123.449 104.991 123.501 104.627 123.307 104.369C123.112 104.111 122.744 104.056 122.485 104.247C122.225 104.437 122.173 104.801 122.368 105.059Z" fill="white"/>
<path d="M138.084 106.11C138.278 106.368 138.646 106.423 138.906 106.233C139.165 106.042 139.217 105.678 139.022 105.42C138.827 105.162 138.459 105.108 138.2 105.298C137.941 105.489 137.889 105.852 138.084 106.11Z" fill="white"/>
<path d="M167.325 113.466C167.52 113.724 167.888 113.779 168.147 113.588C168.406 113.398 168.458 113.034 168.263 112.776C168.069 112.518 167.701 112.463 167.441 112.654C167.182 112.844 167.13 113.208 167.325 113.466Z" fill="white"/>
<path d="M177.694 118.088C177.889 118.346 178.257 118.4 178.516 118.21C178.776 118.019 178.828 117.656 178.633 117.398C178.438 117.14 178.07 117.085 177.811 117.275C177.552 117.466 177.5 117.83 177.694 118.088Z" fill="white"/>
<path d="M166.2 146.378C166.395 146.636 166.763 146.69 167.022 146.5C167.281 146.309 167.334 145.946 167.139 145.687C166.944 145.43 166.576 145.375 166.317 145.565C166.057 145.756 166.005 146.12 166.2 146.378Z" fill="white"/>
<path d="M152.043 107.384C152.238 107.642 152.606 107.696 152.865 107.506C153.124 107.315 153.176 106.952 152.981 106.694C152.787 106.436 152.419 106.381 152.159 106.571C151.9 106.762 151.848 107.126 152.043 107.384Z" fill="white"/>
<path d="M154.166 99.2404C154.36 99.4984 154.729 99.5531 154.988 99.3624C155.247 99.1721 155.299 98.8085 155.104 98.5504C154.91 98.2923 154.541 98.2374 154.282 98.4281C154.023 98.6187 153.971 98.9823 154.166 99.2404Z" fill="white"/>
<path d="M150.905 135.475C151.1 135.733 151.468 135.788 151.727 135.597C151.986 135.407 152.038 135.043 151.843 134.785C151.649 134.527 151.28 134.472 151.021 134.663C150.762 134.854 150.71 135.217 150.905 135.475Z" fill="white"/>
<path d="M136.976 136.767C137.171 137.025 137.54 137.079 137.799 136.889C138.058 136.698 138.11 136.334 137.915 136.076C137.72 135.818 137.352 135.764 137.093 135.954C136.834 136.145 136.782 136.509 136.976 136.767Z" fill="white"/>
<path d="M185.77 161.231C185.965 161.489 186.333 161.544 186.592 161.353C186.851 161.163 186.903 160.799 186.708 160.541C186.514 160.283 186.146 160.228 185.886 160.419C185.627 160.609 185.575 160.973 185.77 161.231Z" fill="white"/>
<path d="M169.052 172.836C169.247 173.094 169.615 173.149 169.874 172.958C170.133 172.768 170.185 172.404 169.991 172.146C169.796 171.888 169.428 171.833 169.169 172.024C168.909 172.214 168.857 172.578 169.052 172.836Z" fill="white"/>
<path d="M184.47 138.908C184.664 139.166 185.033 139.221 185.292 139.03C185.551 138.84 185.603 138.476 185.408 138.218C185.213 137.96 184.845 137.905 184.586 138.096C184.327 138.286 184.275 138.65 184.47 138.908Z" fill="white"/>
<path d="M190.027 129.849C190.221 130.107 190.59 130.162 190.849 129.971C191.108 129.781 191.16 129.417 190.965 129.159C190.771 128.901 190.402 128.846 190.143 129.037C189.884 129.227 189.832 129.591 190.027 129.849Z" fill="white"/>
<path d="M215.569 158.559C215.764 158.817 216.132 158.872 216.391 158.681C216.65 158.491 216.702 158.127 216.508 157.869C216.313 157.611 215.945 157.556 215.686 157.747C215.427 157.937 215.374 158.301 215.569 158.559Z" fill="white"/>
<path d="M202.89 164.187C203.085 164.446 203.453 164.5 203.712 164.31C203.972 164.119 204.024 163.755 203.829 163.497C203.634 163.239 203.266 163.185 203.007 163.375C202.748 163.566 202.695 163.929 202.89 164.187Z" fill="white"/>
<path d="M214.073 145.418C214.268 145.676 214.636 145.73 214.895 145.54C215.154 145.349 215.207 144.986 215.012 144.728C214.817 144.47 214.449 144.415 214.19 144.605C213.931 144.796 213.878 145.16 214.073 145.418Z" fill="white"/>
<path d="M148.7 190.448L127.237 198.232L126.531 166.198L139.219 162.978L148.7 190.448Z" stroke="white" stroke-width="0.265176" stroke-miterlimit="10"/>
<path d="M139.221 162.978L155.97 173.854L168.517 164.881L171.654 187.526L148.701 190.448L155.644 176.744L160.93 153.468L137.323 136.397L139.221 162.978Z" stroke="white" stroke-width="0.265176" stroke-miterlimit="10"/>
<path d="M126.543 166.754L148.085 190.527" stroke="white" stroke-width="0.265176" stroke-miterlimit="10"/>
<path d="M127.766 197.362L138.841 163.954" stroke="white" stroke-width="0.265176" stroke-miterlimit="10"/>
<path d="M153.153 148.836L139.93 162.246L160.32 153.787L145.948 175.102L170.911 186.889L156.444 173.515L169.568 172.471" stroke="white" stroke-width="0.265176" stroke-miterlimit="10"/>
<path d="M172.092 186.739L186.275 160.841L176.043 156.041L168.965 164.156L185.181 161.14" stroke="white" stroke-width="0.265176" stroke-miterlimit="10"/>
<path d="M170.058 172.542L180.191 171.949L176.333 156.966L173.485 137.575L161.413 140.557L151.136 135.441L137.322 136.397" stroke="white" stroke-width="0.265176" stroke-miterlimit="10"/>
<path d="M140.143 163.788L145.947 175.102L148.855 189.697" stroke="white" stroke-width="0.265176" stroke-miterlimit="10"/>
<path d="M138.505 136.729L161.414 140.557L154.182 148.062" stroke="white" stroke-width="0.265176" stroke-miterlimit="10"/>
<path d="M161.492 141.123L161.228 153.269L175.84 155.745L166.728 146.144L173.373 137.919" stroke="white" stroke-width="0.265176" stroke-miterlimit="10"/>
<path d="M161.999 141.285C162.203 141.581 166.451 146.003 166.451 146.003L161.503 152.913" stroke="white" stroke-width="0.265176" stroke-miterlimit="10"/>
<path d="M174.568 131.294L159.761 128.587L173.271 137.137C173.543 136.761 178.062 117.877 178.062 117.877L159.757 128.59L161.326 139.912" stroke="white" stroke-width="0.265176" stroke-miterlimit="10"/>
<path d="M161.322 136.392C161.643 136.355 173.264 137.141 173.264 137.141" stroke="white" stroke-width="0.265176" stroke-miterlimit="10"/>
<path d="M160.466 136.017L151.58 135.06L159.352 127.97L152.779 107.443L151.184 134.628L136.661 107.983L152.265 107.247L138.594 105.715L146.128 96.8868L152.186 106.674L156.967 90.8484L172.979 103.425L153.373 107.046L178.01 117.496L173.044 103.899" stroke="white" stroke-width="0.265176" stroke-miterlimit="10"/>
<path d="M159.687 128.053L172.863 103.76" stroke="white" stroke-width="0.265176" stroke-miterlimit="10"/>
<path d="M178.445 117.827L195.515 120.954L187.731 133.83L178.501 118.226L190.169 129.183L201.753 140.236L188.07 133.946L184.996 138.675L201.797 140.559L195.717 121.249" stroke="white" stroke-width="0.265176" stroke-miterlimit="10"/>
<path d="M184.656 138.557L173.608 137.235L187.592 134.007L175.073 131.426" stroke="white" stroke-width="0.265176" stroke-miterlimit="10"/>
<path d="M201.682 140.887C201.703 141.045 203.258 163.975 203.258 163.975L186.761 160.777L201.206 140.949L176.528 155.973L184.705 138.87" stroke="white" stroke-width="0.265176" stroke-miterlimit="10"/>
<path d="M202.159 140.827C202.658 140.924 214.601 145.185 214.601 145.185L203.505 163.944L216.074 158.168L202.018 141.008" stroke="white" stroke-width="0.265176" stroke-miterlimit="10"/>
<path d="M156.256 90.9349L141.673 78.7852C141.673 78.7852 128.21 70.5696 128.25 70.8049C128.289 71.0405 125.642 83.5874 125.642 83.5874L141.249 79.1906L134.061 89.1853L125.252 84.2782L122.797 104.025L133.774 89.6175L146.132 96.8783L123.181 104.459L137.96 105.789L136.289 107.768L123.406 104.911" stroke="white" stroke-width="0.265176" stroke-miterlimit="10"/>
<path d="M156.32 91.3682L146.622 96.8228L172.123 103.213" stroke="white" stroke-width="0.265176" stroke-miterlimit="10"/>
<path d="M128.68 70.7531L157.771 73.2386L142.032 78.4079L141.807 56.3201L172.586 65.1627L172.708 102.64L158.557 73.6327L172.261 65.4518L157.561 90.4514" stroke="white" stroke-width="0.265176" stroke-miterlimit="10"/>
</g>
</g>
</g>
<defs>
<filter id="filter0_d_100_169" x="6.66268" y="187.689" width="28.4325" height="28.4217" filterUnits="userSpaceOnUse" color-interpolation-filters="sRGB">
<feFlood flood-opacity="0" result="BackgroundImageFix"/>
<feColorMatrix in="SourceAlpha" type="matrix" values="0 0 0 0 0 0 0 0 0 0 0 0 0 0 0 0 0 0 127 0" result="hardAlpha"/>
<feOffset/>
<feGaussianBlur stdDeviation="6.91146"/>
<feComposite in2="hardAlpha" operator="out"/>
<feColorMatrix type="matrix" values="0 0 0 0 1 0 0 0 0 1 0 0 0 0 1 0 0 0 1 0"/>
<feBlend mode="normal" in2="BackgroundImageFix" result="effect1_dropShadow_100_169"/>
<feBlend mode="normal" in="SourceGraphic" in2="effect1_dropShadow_100_169" result="shape"/>
</filter>
<filter id="filter1_i_100_169" x="29.3452" y="104.847" width="248.574" height="114.982" filterUnits="userSpaceOnUse" color-interpolation-filters="sRGB">
<feFlood flood-opacity="0" result="BackgroundImageFix"/>
<feBlend mode="normal" in="SourceGraphic" in2="BackgroundImageFix" result="shape"/>
<feColorMatrix in="SourceAlpha" type="matrix" values="0 0 0 0 0 0 0 0 0 0 0 0 0 0 0 0 0 0 127 0" result="hardAlpha"/>
<feOffset dy="5.52917"/>
<feGaussianBlur stdDeviation="2.76458"/>
<feComposite in2="hardAlpha" operator="arithmetic" k2="-1" k3="1"/>
<feColorMatrix type="matrix" values="0 0 0 0 0 0 0 0 0 0 0 0 0 0 0 0 0 0 0.25 0"/>
<feBlend mode="normal" in2="shape" result="effect1_innerShadow_100_169"/>
</filter>
<filter id="filter2_i_100_169" x="45.2286" y="112.741" width="218.381" height="100.25" filterUnits="userSpaceOnUse" color-interpolation-filters="sRGB">
<feFlood flood-opacity="0" result="BackgroundImageFix"/>
<feBlend mode="normal" in="SourceGraphic" in2="BackgroundImageFix" result="shape"/>
<feColorMatrix in="SourceAlpha" type="matrix" values="0 0 0 0 0 0 0 0 0 0 0 0 0 0 0 0 0 0 127 0" result="hardAlpha"/>
<feOffset dy="5.52917"/>
<feGaussianBlur stdDeviation="2.76458"/>
<feComposite in2="hardAlpha" operator="arithmetic" k2="-1" k3="1"/>
<feColorMatrix type="matrix" values="0 0 0 0 0 0 0 0 0 0 0 0 0 0 0 0 0 0 0.25 0"/>
<feBlend mode="normal" in2="shape" result="effect1_innerShadow_100_169"/>
</filter>
<filter id="filter3_i_100_169" x="63.2039" y="122.236" width="180.592" height="82.3887" filterUnits="userSpaceOnUse" color-interpolation-filters="sRGB">
<feFlood flood-opacity="0" result="BackgroundImageFix"/>
<feBlend mode="normal" in="SourceGraphic" in2="BackgroundImageFix" result="shape"/>
<feColorMatrix in="SourceAlpha" type="matrix" values="0 0 0 0 0 0 0 0 0 0 0 0 0 0 0 0 0 0 127 0" result="hardAlpha"/>
<feOffset dy="5.52917"/>
<feGaussianBlur stdDeviation="2.76458"/>
<feComposite in2="hardAlpha" operator="arithmetic" k2="-1" k3="1"/>
<feColorMatrix type="matrix" values="0 0 0 0 0 0 0 0 0 0 0 0 0 0 0 0 0 0 0.25 0"/>
<feBlend mode="normal" in2="shape" result="effect1_innerShadow_100_169"/>
</filter>
<filter id="filter4_i_100_169" x="80.0916" y="135.904" width="147.478" height="61.4031" filterUnits="userSpaceOnUse" color-interpolation-filters="sRGB">
<feFlood flood-opacity="0" result="BackgroundImageFix"/>
<feBlend mode="normal" in="SourceGraphic" in2="BackgroundImageFix" result="shape"/>
<feColorMatrix in="SourceAlpha" type="matrix" values="0 0 0 0 0 0 0 0 0 0 0 0 0 0 0 0 0 0 127 0" result="hardAlpha"/>
<feOffset dy="5.52917"/>
<feGaussianBlur stdDeviation="2.76458"/>
<feComposite in2="hardAlpha" operator="arithmetic" k2="-1" k3="1"/>
<feColorMatrix type="matrix" values="0 0 0 0 0 0 0 0 0 0 0 0 0 0 0 0 0 0 0.25 0"/>
<feBlend mode="normal" in2="shape" result="effect1_innerShadow_100_169"/>
</filter>
<filter id="filter5_d_100_169" x="81.7989" y="181.637" width="29.219" height="29.1976" filterUnits="userSpaceOnUse" color-interpolation-filters="sRGB">
<feFlood flood-opacity="0" result="BackgroundImageFix"/>
<feColorMatrix in="SourceAlpha" type="matrix" values="0 0 0 0 0 0 0 0 0 0 0 0 0 0 0 0 0 0 127 0" result="hardAlpha"/>
<feOffset/>
<feGaussianBlur stdDeviation="6.91146"/>
<feComposite in2="hardAlpha" operator="out"/>
<feColorMatrix type="matrix" values="0 0 0 0 1 0 0 0 0 1 0 0 0 0 1 0 0 0 1 0"/>
<feBlend mode="normal" in2="BackgroundImageFix" result="effect1_dropShadow_100_169"/>
<feBlend mode="normal" in="SourceGraphic" in2="effect1_dropShadow_100_169" result="shape"/>
</filter>
<filter id="filter6_d_100_169" x="38.5358" y="187.068" width="28.8258" height="28.8098" filterUnits="userSpaceOnUse" color-interpolation-filters="sRGB">
<feFlood flood-opacity="0" result="BackgroundImageFix"/>
<feColorMatrix in="SourceAlpha" type="matrix" values="0 0 0 0 0 0 0 0 0 0 0 0 0 0 0 0 0 0 127 0" result="hardAlpha"/>
<feOffset/>
<feGaussianBlur stdDeviation="6.91146"/>
<feComposite in2="hardAlpha" operator="out"/>
<feColorMatrix type="matrix" values="0 0 0 0 1 0 0 0 0 1 0 0 0 0 1 0 0 0 1 0"/>
<feBlend mode="normal" in2="BackgroundImageFix" result="effect1_dropShadow_100_169"/>
<feBlend mode="normal" in="SourceGraphic" in2="effect1_dropShadow_100_169" result="shape"/>
</filter>
<filter id="filter7_d_100_169" x="41.29" y="139.349" width="28.4326" height="28.4217" filterUnits="userSpaceOnUse" color-interpolation-filters="sRGB">
<feFlood flood-opacity="0" result="BackgroundImageFix"/>
<feColorMatrix in="SourceAlpha" type="matrix" values="0 0 0 0 0 0 0 0 0 0 0 0 0 0 0 0 0 0 127 0" result="hardAlpha"/>
<feOffset/>
<feGaussianBlur stdDeviation="6.91146"/>
<feComposite in2="hardAlpha" operator="out"/>
<feColorMatrix type="matrix" values="0 0 0 0 1 0 0 0 0 1 0 0 0 0 1 0 0 0 1 0"/>
<feBlend mode="normal" in2="BackgroundImageFix" result="effect1_dropShadow_100_169"/>
<feBlend mode="normal" in="SourceGraphic" in2="effect1_dropShadow_100_169" result="shape"/>
</filter>
<filter id="filter8_d_100_169" x="247.769" y="138.573" width="28.4325" height="28.4217" filterUnits="userSpaceOnUse" color-interpolation-filters="sRGB">
<feFlood flood-opacity="0" result="BackgroundImageFix"/>
<feColorMatrix in="SourceAlpha" type="matrix" values="0 0 0 0 0 0 0 0 0 0 0 0 0 0 0 0 0 0 127 0" result="hardAlpha"/>
<feOffset/>
<feGaussianBlur stdDeviation="6.91146"/>
<feComposite in2="hardAlpha" operator="out"/>
<feColorMatrix type="matrix" values="0 0 0 0 1 0 0 0 0 1 0 0 0 0 1 0 0 0 1 0"/>
<feBlend mode="normal" in2="BackgroundImageFix" result="effect1_dropShadow_100_169"/>
<feBlend mode="normal" in="SourceGraphic" in2="effect1_dropShadow_100_169" result="shape"/>
</filter>
<filter id="filter9_d_100_169" x="50.7282" y="157.195" width="28.4326" height="28.4217" filterUnits="userSpaceOnUse" color-interpolation-filters="sRGB">
<feFlood flood-opacity="0" result="BackgroundImageFix"/>
<feColorMatrix in="SourceAlpha" type="matrix" values="0 0 0 0 0 0 0 0 0 0 0 0 0 0 0 0 0 0 127 0" result="hardAlpha"/>
<feOffset/>
<feGaussianBlur stdDeviation="6.91146"/>
<feComposite in2="hardAlpha" operator="out"/>
<feColorMatrix type="matrix" values="0 0 0 0 1 0 0 0 0 1 0 0 0 0 1 0 0 0 1 0"/>
<feBlend mode="normal" in2="BackgroundImageFix" result="effect1_dropShadow_100_169"/>
<feBlend mode="normal" in="SourceGraphic" in2="effect1_dropShadow_100_169" result="shape"/>
</filter>
<filter id="filter10_d_100_169" x="202.932" y="164.179" width="28.4325" height="28.4217" filterUnits="userSpaceOnUse" color-interpolation-filters="sRGB">
<feFlood flood-opacity="0" result="BackgroundImageFix"/>
<feColorMatrix in="SourceAlpha" type="matrix" values="0 0 0 0 0 0 0 0 0 0 0 0 0 0 0 0 0 0 127 0" result="hardAlpha"/>
<feOffset/>
<feGaussianBlur stdDeviation="6.91146"/>
<feComposite in2="hardAlpha" operator="out"/>
<feColorMatrix type="matrix" values="0 0 0 0 1 0 0 0 0 1 0 0 0 0 1 0 0 0 1 0"/>
<feBlend mode="normal" in2="BackgroundImageFix" result="effect1_dropShadow_100_169"/>
<feBlend mode="normal" in="SourceGraphic" in2="effect1_dropShadow_100_169" result="shape"/>
</filter>
<filter id="filter11_d_100_169" x="211.192" y="102.106" width="28.4322" height="28.4217" filterUnits="userSpaceOnUse" color-interpolation-filters="sRGB">
<feFlood flood-opacity="0" result="BackgroundImageFix"/>
<feColorMatrix in="SourceAlpha" type="matrix" values="0 0 0 0 0 0 0 0 0 0 0 0 0 0 0 0 0 0 127 0" result="hardAlpha"/>
<feOffset/>
<feGaussianBlur stdDeviation="6.91146"/>
<feComposite in2="hardAlpha" operator="out"/>
<feColorMatrix type="matrix" values="0 0 0 0 1 0 0 0 0 1 0 0 0 0 1 0 0 0 1 0"/>
<feBlend mode="normal" in2="BackgroundImageFix" result="effect1_dropShadow_100_169"/>
<feBlend mode="normal" in="SourceGraphic" in2="effect1_dropShadow_100_169" result="shape"/>
</filter>
<filter id="filter12_d_100_169" x="220.339" y="60.4224" width="28.4325" height="28.4217" filterUnits="userSpaceOnUse" color-interpolation-filters="sRGB">
<feFlood flood-opacity="0" result="BackgroundImageFix"/>
<feColorMatrix in="SourceAlpha" type="matrix" values="0 0 0 0 0 0 0 0 0 0 0 0 0 0 0 0 0 0 127 0" result="hardAlpha"/>
<feOffset/>
<feGaussianBlur stdDeviation="6.91146"/>
<feComposite in2="hardAlpha" operator="out"/>
<feColorMatrix type="matrix" values="0 0 0 0 1 0 0 0 0 1 0 0 0 0 1 0 0 0 1 0"/>
<feBlend mode="normal" in2="BackgroundImageFix" result="effect1_dropShadow_100_169"/>
<feBlend mode="normal" in="SourceGraphic" in2="effect1_dropShadow_100_169" result="shape"/>
</filter>
<filter id="filter13_d_100_169" x="110.902" y="176.981" width="28.4326" height="28.4217" filterUnits="userSpaceOnUse" color-interpolation-filters="sRGB">
<feFlood flood-opacity="0" result="BackgroundImageFix"/>
<feColorMatrix in="SourceAlpha" type="matrix" values="0 0 0 0 0 0 0 0 0 0 0 0 0 0 0 0 0 0 127 0" result="hardAlpha"/>
<feOffset/>
<feGaussianBlur stdDeviation="6.91146"/>
<feComposite in2="hardAlpha" operator="out"/>
<feColorMatrix type="matrix" values="0 0 0 0 1 0 0 0 0 1 0 0 0 0 1 0 0 0 1 0"/>
<feBlend mode="normal" in2="BackgroundImageFix" result="effect1_dropShadow_100_169"/>
<feBlend mode="normal" in="SourceGraphic" in2="effect1_dropShadow_100_169" result="shape"/>
</filter>
<filter id="filter14_d_100_169" x="187.988" y="92.019" width="28.4322" height="28.4217" filterUnits="userSpaceOnUse" color-interpolation-filters="sRGB">
<feFlood flood-opacity="0" result="BackgroundImageFix"/>
<feColorMatrix in="SourceAlpha" type="matrix" values="0 0 0 0 0 0 0 0 0 0 0 0 0 0 0 0 0 0 127 0" result="hardAlpha"/>
<feOffset/>
<feGaussianBlur stdDeviation="6.91146"/>
<feComposite in2="hardAlpha" operator="out"/>
<feColorMatrix type="matrix" values="0 0 0 0 1 0 0 0 0 1 0 0 0 0 1 0 0 0 1 0"/>
<feBlend mode="normal" in2="BackgroundImageFix" result="effect1_dropShadow_100_169"/>
<feBlend mode="normal" in="SourceGraphic" in2="effect1_dropShadow_100_169" result="shape"/>
</filter>
<filter id="filter15_d_100_169" x="134.107" y="190.559" width="29.219" height="29.1976" filterUnits="userSpaceOnUse" color-interpolation-filters="sRGB">
<feFlood flood-opacity="0" result="BackgroundImageFix"/>
<feColorMatrix in="SourceAlpha" type="matrix" values="0 0 0 0 0 0 0 0 0 0 0 0 0 0 0 0 0 0 127 0" result="hardAlpha"/>
<feOffset/>
<feGaussianBlur stdDeviation="6.91146"/>
<feComposite in2="hardAlpha" operator="out"/>
<feColorMatrix type="matrix" values="0 0 0 0 1 0 0 0 0 1 0 0 0 0 1 0 0 0 1 0"/>
<feBlend mode="normal" in2="BackgroundImageFix" result="effect1_dropShadow_100_169"/>
<feBlend mode="normal" in="SourceGraphic" in2="effect1_dropShadow_100_169" result="shape"/>
</filter>
<filter id="filter16_d_100_169" x="234.396" y="100.554" width="29.2191" height="29.1976" filterUnits="userSpaceOnUse" color-interpolation-filters="sRGB">
<feFlood flood-opacity="0" result="BackgroundImageFix"/>
<feColorMatrix in="SourceAlpha" type="matrix" values="0 0 0 0 0 0 0 0 0 0 0 0 0 0 0 0 0 0 127 0" result="hardAlpha"/>
<feOffset/>
<feGaussianBlur stdDeviation="6.91146"/>
<feComposite in2="hardAlpha" operator="out"/>
<feColorMatrix type="matrix" values="0 0 0 0 1 0 0 0 0 1 0 0 0 0 1 0 0 0 1 0"/>
<feBlend mode="normal" in2="BackgroundImageFix" result="effect1_dropShadow_100_169"/>
<feBlend mode="normal" in="SourceGraphic" in2="effect1_dropShadow_100_169" result="shape"/>
</filter>
<filter id="filter17_d_100_169" x="211.979" y="138.186" width="29.2191" height="29.1976" filterUnits="userSpaceOnUse" color-interpolation-filters="sRGB">
<feFlood flood-opacity="0" result="BackgroundImageFix"/>
<feColorMatrix in="SourceAlpha" type="matrix" values="0 0 0 0 0 0 0 0 0 0 0 0 0 0 0 0 0 0 127 0" result="hardAlpha"/>
<feOffset/>
<feGaussianBlur stdDeviation="6.91146"/>
<feComposite in2="hardAlpha" operator="out"/>
<feColorMatrix type="matrix" values="0 0 0 0 1 0 0 0 0 1 0 0 0 0 1 0 0 0 1 0"/>
<feBlend mode="normal" in2="BackgroundImageFix" result="effect1_dropShadow_100_169"/>
<feBlend mode="normal" in="SourceGraphic" in2="effect1_dropShadow_100_169" result="shape"/>
</filter>
<filter id="filter18_d_100_169" x="16.9055" y="154.868" width="29.219" height="29.1976" filterUnits="userSpaceOnUse" color-interpolation-filters="sRGB">
<feFlood flood-opacity="0" result="BackgroundImageFix"/>
<feColorMatrix in="SourceAlpha" type="matrix" values="0 0 0 0 0 0 0 0 0 0 0 0 0 0 0 0 0 0 127 0" result="hardAlpha"/>
<feOffset/>
<feGaussianBlur stdDeviation="6.91146"/>
<feComposite in2="hardAlpha" operator="out"/>
<feColorMatrix type="matrix" values="0 0 0 0 1 0 0 0 0 1 0 0 0 0 1 0 0 0 1 0"/>
<feBlend mode="normal" in2="BackgroundImageFix" result="effect1_dropShadow_100_169"/>
<feBlend mode="normal" in="SourceGraphic" in2="effect1_dropShadow_100_169" result="shape"/>
</filter>
<filter id="filter19_d_100_169" x="235.577" y="164.567" width="29.2191" height="29.1976" filterUnits="userSpaceOnUse" color-interpolation-filters="sRGB">
<feFlood flood-opacity="0" result="BackgroundImageFix"/>
<feColorMatrix in="SourceAlpha" type="matrix" values="0 0 0 0 0 0 0 0 0 0 0 0 0 0 0 0 0 0 127 0" result="hardAlpha"/>
<feOffset/>
<feGaussianBlur stdDeviation="6.91146"/>
<feComposite in2="hardAlpha" operator="out"/>
<feColorMatrix type="matrix" values="0 0 0 0 1 0 0 0 0 1 0 0 0 0 1 0 0 0 1 0"/>
<feBlend mode="normal" in2="BackgroundImageFix" result="effect1_dropShadow_100_169"/>
<feBlend mode="normal" in="SourceGraphic" in2="effect1_dropShadow_100_169" result="shape"/>
</filter>
<filter id="filter20_d_100_169" x="60.1687" y="115.684" width="29.219" height="29.1976" filterUnits="userSpaceOnUse" color-interpolation-filters="sRGB">
<feFlood flood-opacity="0" result="BackgroundImageFix"/>
<feColorMatrix in="SourceAlpha" type="matrix" values="0 0 0 0 0 0 0 0 0 0 0 0 0 0 0 0 0 0 127 0" result="hardAlpha"/>
<feOffset/>
<feGaussianBlur stdDeviation="6.91146"/>
<feComposite in2="hardAlpha" operator="out"/>
<feColorMatrix type="matrix" values="0 0 0 0 1 0 0 0 0 1 0 0 0 0 1 0 0 0 1 0"/>
<feBlend mode="normal" in2="BackgroundImageFix" result="effect1_dropShadow_100_169"/>
<feBlend mode="normal" in="SourceGraphic" in2="effect1_dropShadow_100_169" result="shape"/>
</filter>
<filter id="filter21_d_100_169" x="88.0361" y="89.9094" width="24.9739" height="24.8875" filterUnits="userSpaceOnUse" color-interpolation-filters="sRGB">
<feFlood flood-opacity="0" result="BackgroundImageFix"/>
<feColorMatrix in="SourceAlpha" type="matrix" values="0 0 0 0 0 0 0 0 0 0 0 0 0 0 0 0 0 0 127 0" result="hardAlpha"/>
<feOffset/>
<feGaussianBlur stdDeviation="4.37711"/>
<feComposite in2="hardAlpha" operator="out"/>
<feColorMatrix type="matrix" values="0 0 0 0 1 0 0 0 0 1 0 0 0 0 1 0 0 0 0.4 0"/>
<feBlend mode="normal" in2="BackgroundImageFix" result="effect1_dropShadow_100_169"/>
<feBlend mode="normal" in="SourceGraphic" in2="effect1_dropShadow_100_169" result="shape"/>
</filter>
<filter id="filter22_d_100_169" x="102.611" y="71.4833" width="24.9735" height="24.8872" filterUnits="userSpaceOnUse" color-interpolation-filters="sRGB">
<feFlood flood-opacity="0" result="BackgroundImageFix"/>
<feColorMatrix in="SourceAlpha" type="matrix" values="0 0 0 0 0 0 0 0 0 0 0 0 0 0 0 0 0 0 127 0" result="hardAlpha"/>
<feOffset/>
<feGaussianBlur stdDeviation="4.37711"/>
<feComposite in2="hardAlpha" operator="out"/>
<feColorMatrix type="matrix" values="0 0 0 0 1 0 0 0 0 1 0 0 0 0 1 0 0 0 0.4 0"/>
<feBlend mode="normal" in2="BackgroundImageFix" result="effect1_dropShadow_100_169"/>
<feBlend mode="normal" in="SourceGraphic" in2="effect1_dropShadow_100_169" result="shape"/>
</filter>
<filter id="filter23_d_100_169" x="111.318" y="96.1565" width="24.9738" height="24.8875" filterUnits="userSpaceOnUse" color-interpolation-filters="sRGB">
<feFlood flood-opacity="0" result="BackgroundImageFix"/>
<feColorMatrix in="SourceAlpha" type="matrix" values="0 0 0 0 0 0 0 0 0 0 0 0 0 0 0 0 0 0 127 0" result="hardAlpha"/>
<feOffset/>
<feGaussianBlur stdDeviation="4.37711"/>
<feComposite in2="hardAlpha" operator="out"/>
<feColorMatrix type="matrix" values="0 0 0 0 1 0 0 0 0 1 0 0 0 0 1 0 0 0 0.4 0"/>
<feBlend mode="normal" in2="BackgroundImageFix" result="effect1_dropShadow_100_169"/>
<feBlend mode="normal" in="SourceGraphic" in2="effect1_dropShadow_100_169" result="shape"/>
</filter>
<filter id="filter24_d_100_169" x="132.826" y="64.4169" width="24.9738" height="24.8872" filterUnits="userSpaceOnUse" color-interpolation-filters="sRGB">
<feFlood flood-opacity="0" result="BackgroundImageFix"/>
<feColorMatrix in="SourceAlpha" type="matrix" values="0 0 0 0 0 0 0 0 0 0 0 0 0 0 0 0 0 0 127 0" result="hardAlpha"/>
<feOffset/>
<feGaussianBlur stdDeviation="4.37711"/>
<feComposite in2="hardAlpha" operator="out"/>
<feColorMatrix type="matrix" values="0 0 0 0 1 0 0 0 0 1 0 0 0 0 1 0 0 0 0.4 0"/>
<feBlend mode="normal" in2="BackgroundImageFix" result="effect1_dropShadow_100_169"/>
<feBlend mode="normal" in="SourceGraphic" in2="effect1_dropShadow_100_169" result="shape"/>
</filter>
<filter id="filter25_d_100_169" x="142.269" y="87.5148" width="24.9735" height="24.8875" filterUnits="userSpaceOnUse" color-interpolation-filters="sRGB">
<feFlood flood-opacity="0" result="BackgroundImageFix"/>
<feColorMatrix in="SourceAlpha" type="matrix" values="0 0 0 0 0 0 0 0 0 0 0 0 0 0 0 0 0 0 127 0" result="hardAlpha"/>
<feOffset/>
<feGaussianBlur stdDeviation="4.37711"/>
<feComposite in2="hardAlpha" operator="out"/>
<feColorMatrix type="matrix" values="0 0 0 0 1 0 0 0 0 1 0 0 0 0 1 0 0 0 0.4 0"/>
<feBlend mode="normal" in2="BackgroundImageFix" result="effect1_dropShadow_100_169"/>
<feBlend mode="normal" in="SourceGraphic" in2="effect1_dropShadow_100_169" result="shape"/>
</filter>
<filter id="filter26_d_100_169" x="157.68" y="70.5612" width="24.9735" height="24.8875" filterUnits="userSpaceOnUse" color-interpolation-filters="sRGB">
<feFlood flood-opacity="0" result="BackgroundImageFix"/>
<feColorMatrix in="SourceAlpha" type="matrix" values="0 0 0 0 0 0 0 0 0 0 0 0 0 0 0 0 0 0 127 0" result="hardAlpha"/>
<feOffset/>
<feGaussianBlur stdDeviation="4.37711"/>
<feComposite in2="hardAlpha" operator="out"/>
<feColorMatrix type="matrix" values="0 0 0 0 1 0 0 0 0 1 0 0 0 0 1 0 0 0 0.4 0"/>
<feBlend mode="normal" in2="BackgroundImageFix" result="effect1_dropShadow_100_169"/>
<feBlend mode="normal" in="SourceGraphic" in2="effect1_dropShadow_100_169" result="shape"/>
</filter>
<linearGradient id="paint0_linear_100_169" x1="81.2131" y1="82.3492" x2="217.606" y2="221.267" gradientUnits="userSpaceOnUse">
<stop stop-color="#DECFFA"/>
<stop offset="0.03" stop-color="#C9C0FB"/>
<stop offset="0.12" stop-color="#949BFC"/>
<stop offset="0.2" stop-color="#6B7DFD"/>
<stop offset="0.27" stop-color="#4D68FE"/>
<stop offset="0.34" stop-color="#3B5BFF"/>
<stop offset="0.38" stop-color="#3456FF"/>
<stop offset="0.44" stop-color="#3050EE"/>
<stop offset="0.56" stop-color="#273FC0"/>
<stop offset="0.73" stop-color="#182577"/>
<stop offset="0.9" stop-color="#070928"/>
</linearGradient>
</defs>
</svg>
