<svg width="236" height="169" viewBox="0 0 236 169" fill="none" xmlns="http://www.w3.org/2000/svg">
<g clip-path="url(#clip0_100_91)">
<path d="M141.63 150.648L0 0.0352173L11.1722 30.6028L135.727 150.648H141.63Z" fill="url(#paint0_linear_100_91)"/>
<path d="M15.7014 42.0939L127.62 150.648H121.716L24.3423 66.2239L15.7014 42.0939Z" fill="url(#paint1_linear_100_91)"/>
<path d="M28.0312 76.2402L113.916 150.648H108.013L35.4089 96.4743L28.0312 76.2402Z" fill="url(#paint2_linear_100_91)"/>
<path d="M40.1494 109.017L46.1582 125.567L94.1584 150.648H100.062L40.1494 109.017Z" fill="url(#paint3_linear_100_91)"/>
<path d="M49.9529 135.578L85.88 150.648H55.5339L49.9529 135.578Z" fill="url(#paint4_linear_100_91)"/>
<path d="M94.3699 150.648L236 0.0352173L224.828 30.6028L100.273 150.648H94.3699Z" fill="url(#paint5_linear_100_91)"/>
<path d="M220.299 42.0939L108.38 150.648H114.284L211.658 66.2239L220.299 42.0939Z" fill="url(#paint6_linear_100_91)"/>
<path d="M207.974 76.2402L122.084 150.648H127.987L200.591 96.4743L207.974 76.2402Z" fill="url(#paint7_linear_100_91)"/>
<path d="M195.851 109.017L189.847 125.567L141.842 150.648H135.938L195.851 109.017Z" fill="url(#paint8_linear_100_91)"/>
<path d="M186.052 135.578L150.12 150.648H180.466L186.052 135.578Z" fill="url(#paint9_linear_100_91)"/>
<path d="M50.0435 99.3333L119.21 129.78L181.493 94.3553L188.377 78.1781L169.49 63.073L148.238 29.5206L113.987 32.3443L87.737 32.3997L80.7016 45.577L85.4774 70.5878L55.3075 66.546L50.0435 99.3333Z" fill="#2B9BE0"/>
<path d="M62.2724 150.643L7.95645 168.305L18.6103 150.361L1.77148 140.048L56.4146 120.458L62.2724 150.643Z" fill="#2B9BE0"/>
<path d="M173.481 150.643L227.797 168.305L217.143 150.361L233.982 140.048L179.339 120.458L173.481 150.643Z" fill="#2B9BE0"/>
<path d="M173.481 150.643L201.416 146.828C201.416 146.828 177.054 134.934 176.536 135.05C176.017 135.166 173.481 150.643 173.481 150.643Z" fill="#1388B7"/>
<path d="M62.2724 150.643L34.3369 146.828C34.3369 146.828 58.6993 134.934 59.2177 135.05C59.736 135.166 62.2724 150.643 62.2724 150.643Z" fill="#1388B7"/>
<path d="M117.177 133.193C92.9304 133.082 59.8063 138.568 34.3368 146.722L27.563 111.237C53.7019 101.472 90.9727 95.4929 117.529 95.6338C144.086 95.7747 181.392 101.17 207.611 111.237L201.416 146.722C175.72 138.01 141.841 133.384 117.177 133.193Z" fill="#3BB5F2"/>
<path d="M173.098 122.049L174.467 120.635L172.555 120.156L172.011 118.264L170.643 119.683L168.735 119.205L169.279 121.098L167.91 122.512L169.822 122.99L170.361 124.883L171.73 123.468L173.642 123.941L173.098 122.049Z" fill="#E7F3F7"/>
<path d="M62.0611 122.049L60.6973 120.635L62.6046 120.156L63.1481 118.264L64.5169 119.683L66.4243 119.205L65.8808 121.098L67.2496 122.512L65.3423 122.99L64.7988 124.883L63.4299 123.468L61.5226 123.941L62.0611 122.049Z" fill="#E7F3F7"/>
<path d="M52.0212 98.4474C51.6632 98.4459 51.3157 98.3261 51.0327 98.1068C50.7497 97.8874 50.547 97.5808 50.4561 97.2344L49.0621 91.8034C48.955 91.3876 49.0173 90.9463 49.2353 90.5763C49.4532 90.2064 49.809 89.9381 50.2246 89.8303L52.5496 89.2465L49.0772 74.836L48.5186 74.9719C48.3923 75.0062 48.2619 75.0231 48.1311 75.0222C47.8368 75.0218 47.5482 74.9418 47.2957 74.7907C47.1123 74.6803 46.9528 74.5344 46.8267 74.3615C46.7005 74.1887 46.6101 73.9923 46.5609 73.784L45.2122 68.3681C45.1087 67.9516 45.1745 67.5111 45.3952 67.1431C45.616 66.7751 45.9737 66.5097 46.3898 66.4051C52.0866 64.9857 54.8847 64.3615 60.652 63.229C61.5448 63.0465 62.4532 62.9504 63.3645 62.9421C69.6703 62.9421 71.4618 68.4788 72.4532 74.4081L75.3872 91.9494C75.457 92.3732 75.3558 92.8074 75.1057 93.1566C74.8557 93.5058 74.4772 93.7414 74.0536 93.8117C71.2102 94.2899 69.8212 94.5365 67.008 95.0902C66.9052 95.1102 66.8008 95.1203 66.696 95.1204C66.3754 95.1218 66.0616 95.0271 65.7952 94.8486C65.4385 94.6066 65.1909 94.2343 65.1058 93.8117L61.5025 75.4098C60.9036 72.3545 60.4607 72.3545 60.2494 72.3545C60.1164 72.3562 59.9836 72.3663 59.8518 72.3847L64.4163 93.9678C64.4606 94.1757 64.4634 94.3902 64.4246 94.5992C64.3858 94.8082 64.3061 95.0075 64.1902 95.1856C64.0742 95.3638 63.9243 95.5173 63.7489 95.6374C63.5736 95.7575 63.3762 95.8418 63.1682 95.8855C58.8352 96.8015 56.7317 97.2948 52.4339 98.4021C52.299 98.4357 52.1602 98.4509 52.0212 98.4474Z" fill="#F4DE40"/>
<path d="M63.3645 64.5729C67.8938 64.5729 69.7307 67.9352 70.8579 74.6849C72.0305 81.7014 72.6193 85.2097 73.7919 92.2262C70.9435 92.6993 69.5193 92.956 66.686 93.5147C65.2467 86.1509 64.522 82.4715 63.0827 75.1077C62.4184 71.7102 61.7189 70.7438 60.2393 70.7438C59.7952 70.7562 59.3534 70.8136 58.9208 70.915L57.9143 71.1264C59.877 80.3928 60.8583 85.0285 62.816 94.2798C58.483 95.2009 56.324 95.7042 52.0162 96.7965C51.4626 94.6221 51.1808 93.5349 50.6272 91.3655C52.1722 90.9679 52.9472 90.7766 54.4972 90.4041L50.2699 72.8427L48.1261 73.3461L46.8025 67.9855C52.449 66.5762 55.2873 65.9722 60.9841 64.8296C61.7742 64.6673 62.5781 64.5813 63.3847 64.5729M63.3847 61.3365C62.3702 61.3426 61.3588 61.4488 60.3651 61.6536C54.6381 62.776 51.6891 63.4304 46.0225 64.8447C45.1903 65.0529 44.4747 65.5825 44.0323 66.3174C43.5898 67.0524 43.4568 67.9328 43.6622 68.7657L44.095 70.4922L45.016 74.1866C45.1787 74.8398 45.541 75.426 46.0524 75.8635C46.5639 76.3011 47.199 76.5682 47.8694 76.6278L50.6021 88.0837L49.827 88.2851C49.4148 88.3902 49.0273 88.5755 48.6867 88.8305C48.3462 89.0856 48.0593 89.4053 47.8424 89.7713C47.6255 90.1374 47.4829 90.5426 47.4228 90.9639C47.3626 91.3851 47.3862 91.8141 47.492 92.2262L47.9952 94.1087L48.9061 97.632C49.0872 98.3265 49.4929 98.9416 50.06 99.3813C50.6271 99.8211 51.3238 100.061 52.0414 100.063C52.3129 100.063 52.5833 100.029 52.8466 99.9625C57.1141 98.8652 59.2077 98.377 63.5155 97.4458C64.2042 97.302 64.8265 96.9359 65.2869 96.4039C65.7291 96.6192 66.2144 96.7311 66.7061 96.731C66.9156 96.7309 67.1245 96.7107 67.3301 96.6706C70.1433 96.122 71.5172 95.8703 74.3455 95.3972C75.1909 95.2542 75.9453 94.7819 76.4433 94.0838C76.9414 93.3857 77.1425 92.5187 77.0027 91.6725L74.9896 79.527L74.0888 74.1313C73.3943 69.9687 71.945 61.3163 63.3998 61.3163L63.3847 61.3365Z" fill="#2B9BE0"/>
<path d="M78.4168 93.1171C78.0287 93.1187 77.653 92.98 77.3589 92.7266C77.0649 92.4732 76.8723 92.1221 76.8165 91.7379L72.5137 62.8062C72.4516 62.3812 72.5602 61.949 72.8157 61.6038C73.0712 61.2587 73.453 61.0286 73.8775 60.964C77.1184 60.4607 78.6986 60.2744 81.9295 59.8818H82.1258C82.521 59.8826 82.9023 60.0278 83.198 60.2902C83.4937 60.5525 83.6833 60.9139 83.7311 61.3063L87.2136 90.3487C87.2396 90.5597 87.2236 90.7738 87.1664 90.9785C87.1093 91.1833 87.0122 91.3747 86.8807 91.5418C86.7493 91.7088 86.5861 91.8482 86.4005 91.9518C86.2149 92.0555 86.0107 92.1213 85.7995 92.1457C82.9008 92.498 81.4967 92.6842 78.6332 93.1121C78.5612 93.1179 78.489 93.1196 78.4168 93.1171Z" fill="#F4DE40"/>
<path d="M82.1407 61.4824C83.5347 73.0994 84.2342 78.9079 85.6282 90.5249C82.7396 90.8722 81.2952 91.0635 78.4166 91.4963C76.6955 79.9196 75.835 74.1363 74.1189 62.5646C77.3246 62.0613 78.9249 61.87 82.1407 61.4824ZM82.1407 58.246C82.01 58.2387 81.8789 58.2387 81.7482 58.246C78.5223 58.6336 76.8515 58.855 73.6357 59.3332C72.7871 59.4613 72.0237 59.9202 71.5126 60.6098C71.0014 61.2993 70.7841 62.1632 70.9081 63.0126L72.9211 76.502L75.216 91.9443C75.3314 92.7114 75.7176 93.4118 76.3048 93.9187C76.8919 94.4256 77.641 94.7054 78.4166 94.7076C78.5767 94.7082 78.7365 94.6965 78.8947 94.6724C81.7532 94.2496 83.1522 94.0583 86.0208 93.7161C86.4432 93.6656 86.8516 93.5322 87.2225 93.3237C87.5934 93.1152 87.9195 92.8355 88.1822 92.5008C88.4449 92.166 88.639 91.7828 88.7534 91.3729C88.8679 90.963 88.9004 90.5346 88.8491 90.1122L87.1028 75.5708L85.3615 61.0747C85.268 60.2886 84.8895 59.564 84.2979 59.0381C83.7062 58.5122 82.9423 58.2214 82.1508 58.2208L82.1407 58.246Z" fill="#2B9BE0"/>
<path d="M89.9713 91.6575C89.5713 91.6572 89.1855 91.509 88.8882 91.2414C88.5909 90.9738 88.4031 90.6056 88.3609 90.2078L87.1178 78.1278C86.6699 73.7387 88.2803 70.5777 91.5917 69.103C89.921 66.5007 88.7534 64.7491 86.7001 61.7392C86.5425 61.5074 86.4479 61.2386 86.4256 60.9592C86.4032 60.6798 86.4539 60.3994 86.5727 60.1456C86.6915 59.8917 86.8743 59.6731 87.1031 59.5113C87.3319 59.3494 87.5988 59.2499 87.8777 59.2225C90.9426 58.9155 92.4422 58.7896 95.5121 58.5631H95.6178C95.8906 58.5628 96.1591 58.6313 96.3984 58.7624C96.6377 58.8935 96.84 59.0829 96.9866 59.3131C99.6639 63.5512 101.269 66.1736 103.287 69.6617L102.875 59.7409C102.865 59.5283 102.898 59.3159 102.971 59.1159C103.044 58.9159 103.155 58.7323 103.299 58.5757C103.443 58.419 103.617 58.2923 103.81 58.2029C104.003 58.1135 104.212 58.0632 104.425 58.0547C107.444 57.9289 108.954 57.8836 112.024 57.8383C112.444 57.8379 112.848 58.0003 113.151 58.2913C113.461 58.5904 113.641 58.9986 113.654 59.4289L113.81 69.717C113.866 73.3008 113.307 77.4734 108.687 79.2804C110.408 82.3508 111.49 84.3742 113.342 87.9579C113.469 88.2024 113.532 88.4753 113.524 88.7506C113.516 89.026 113.437 89.2947 113.296 89.5313C113.155 89.7678 112.955 89.9643 112.717 90.1021C112.478 90.2399 112.209 90.3144 111.933 90.3186C109.18 90.3689 107.837 90.4092 105.069 90.535H104.998C104.705 90.5351 104.417 90.4556 104.165 90.3049C103.914 90.1542 103.708 89.938 103.569 89.6793C101.224 85.2651 99.7042 82.5471 97.6308 79.0237L98.4158 89.2918C98.4463 89.7229 98.3044 90.1485 98.0213 90.475C97.7382 90.8016 97.3371 91.0024 96.9061 91.0333C94.1533 91.2397 92.8146 91.3605 90.1021 91.6423L89.9713 91.6575Z" fill="#F4DE40"/>
<path d="M112.059 59.459C112.125 63.5763 112.155 65.635 112.22 69.7472C112.291 74.4735 111.032 77.3879 106.302 78.3039C108.637 82.4464 109.764 84.5302 111.933 88.7179C109.165 88.7632 107.787 88.8085 105.024 88.9293C101.813 82.9346 100.117 79.9549 96.564 74.0658C95.7286 74.1967 95.7135 74.9618 95.8494 76.7536C96.2369 81.8222 96.4281 84.359 96.8156 89.4276C94.0779 89.634 92.7091 89.7598 89.9714 90.0417C89.4681 85.2147 89.2266 82.7987 88.7284 77.9617C88.356 74.3125 89.5587 70.8646 94.1031 70.0341C91.7479 66.3245 90.535 64.4974 88.0389 60.8281C91.0584 60.5261 92.5682 60.3952 95.6279 60.1738C99.1507 65.7658 100.852 68.5895 104.073 74.2672C105.009 74.1111 105.079 73.3712 104.973 70.9502C104.782 66.4202 104.692 64.1753 104.5 59.6553C107.52 59.5295 109.03 59.4892 112.049 59.4389M112.049 56.2025H111.999C108.979 56.2528 107.389 56.2981 104.354 56.4239C103.497 56.4605 102.69 56.8356 102.108 57.4668C101.527 58.098 101.22 58.9339 101.254 59.7912L101.405 63.3146C100.504 61.8499 99.5281 60.2946 98.3556 58.4322C98.0639 57.9697 97.6599 57.5887 97.1811 57.3246C96.7024 57.0606 96.1646 56.9221 95.6179 56.9222H95.3813C92.3316 57.1437 90.7565 57.2796 87.7068 57.5816C87.1504 57.6392 86.6184 57.8399 86.1625 58.1642C85.7067 58.4884 85.3425 58.9251 85.1054 59.4318C84.8683 59.9385 84.7663 60.498 84.8095 61.0558C84.8526 61.6136 85.0393 62.1507 85.3515 62.6149C87.0022 65.031 88.0741 66.6416 89.3021 68.5191C86.4688 70.5324 85.0597 73.9752 85.4975 78.2536V78.3744L86.7254 90.3236C86.8087 91.1201 87.1839 91.8576 87.7786 92.3938C88.3733 92.9301 89.1455 93.2272 89.9462 93.2278C90.0569 93.2278 90.1677 93.2278 90.2784 93.2278C92.9909 92.946 94.3044 92.8302 97.0371 92.6188C97.8929 92.5532 98.6878 92.1507 99.2473 91.4995C99.8068 90.8484 100.085 90.0019 100.021 89.1458L99.7848 86.0654C100.499 87.369 101.264 88.7834 102.145 90.4242C102.421 90.9415 102.832 91.3741 103.335 91.6755C103.837 91.977 104.412 92.136 104.998 92.1356H105.18C107.922 92.0148 109.261 91.9745 112.004 91.9242C112.554 91.9136 113.093 91.7629 113.569 91.4864C114.045 91.2098 114.443 90.8165 114.725 90.3436C115.007 89.8707 115.164 89.3337 115.181 88.7833C115.198 88.2329 115.074 87.6873 114.822 87.1979C113.312 84.2383 112.255 82.2853 110.962 79.9498C115.587 77.0858 115.491 71.6951 115.491 69.6667L115.431 65.7558L115.295 59.3936C115.283 58.5436 114.937 57.7325 114.331 57.1361C113.725 56.5397 112.909 56.2061 112.059 56.2075L112.049 56.2025Z" fill="#2B9BE0"/>
<path d="M136.074 91.0333C131.943 90.7212 129.92 90.6055 125.763 90.4595C125.334 90.4424 124.93 90.2567 124.638 89.9428C124.345 89.6288 124.189 89.2121 124.203 88.7834L124.268 87.0217C124.162 87.6609 124.052 88.3203 123.941 88.9998C123.88 89.379 123.686 89.7241 123.394 89.9731C123.101 90.2222 122.73 90.3589 122.346 90.3588H122.29C120.162 90.3085 118.828 90.2934 117.097 90.2934H115.159C114.927 90.2936 114.698 90.2439 114.487 90.1477C114.276 90.0515 114.089 89.911 113.937 89.7357C113.785 89.5605 113.673 89.3546 113.607 89.1321C113.542 88.9096 113.526 88.6756 113.559 88.4462C114.807 79.5774 115.512 74.9316 116.895 66.6215H116.156C115.727 66.6202 115.317 66.4497 115.013 66.1471C114.71 65.8446 114.538 65.4344 114.535 65.0058V59.4288C114.535 59.2162 114.576 59.0056 114.657 58.809C114.738 58.6124 114.857 58.4337 115.007 58.2831C115.157 58.1325 115.335 58.0131 115.531 57.9316C115.728 57.8501 115.938 57.8081 116.151 57.8081H117.031C121.42 57.8081 123.921 57.8584 128.687 58.0598C132.562 58.2208 135.158 59.1923 136.849 61.11C138.862 63.4052 139.557 67.0191 139.069 72.8327L137.801 89.5384C137.773 89.947 137.591 90.3299 137.292 90.6101C136.993 90.8902 136.6 91.0468 136.19 91.0484L136.074 91.0333ZM127.836 66.8732C126.704 72.8377 125.969 76.8946 125.124 81.8675C125.388 81.688 125.7 81.5931 126.019 81.5958L127.7 81.6562L128.274 69.6768C128.349 68.0812 128.274 67.1601 128.113 66.9738C128.024 66.9283 127.926 66.9026 127.826 66.8984L127.836 66.8732Z" fill="#F4DE40"/>
<path d="M117.011 59.4238C121.45 59.4238 123.936 59.4792 128.631 59.6755C135.923 59.9825 138.264 63.1988 137.468 72.6968C136.965 79.3861 136.703 82.7283 136.2 89.4176C132.053 89.1055 129.975 88.9898 125.823 88.8388C125.899 86.5989 125.939 85.4765 126.019 83.2366C127.308 83.2819 127.952 83.3121 129.24 83.3725C129.497 77.9365 129.628 75.2185 129.889 69.7825C130.04 66.6517 129.849 65.3129 127.278 65.2172L126.513 65.187C124.721 74.5994 123.891 79.3106 122.346 88.7431C120.197 88.6978 118.853 88.6777 117.112 88.6777H115.174C116.508 79.2049 117.238 74.4736 118.818 65.0209H116.775H116.171C116.171 62.7911 116.171 61.6737 116.171 59.4389H117.021M117.021 56.2025H116.166C115.308 56.2051 114.486 56.5478 113.881 57.1554C113.275 57.763 112.935 58.586 112.935 59.444V65.0209C112.935 65.4465 113.018 65.868 113.182 66.2611C113.345 66.6541 113.584 67.011 113.886 67.3111C114.21 67.6397 114.601 67.8939 115.033 68.056C113.831 75.3544 113.136 79.9599 111.969 88.2448C111.905 88.7032 111.941 89.1697 112.073 89.6132C112.205 90.0566 112.431 90.4666 112.734 90.8157C113.038 91.1647 113.413 91.4447 113.834 91.6367C114.255 91.8288 114.712 91.9286 115.174 91.9292H117.112C118.763 91.9292 120.066 91.9292 122.27 91.9947H122.346C122.929 91.9947 123.501 91.8364 124.001 91.5366C124.507 91.8773 125.098 92.0691 125.707 92.0903C129.829 92.2363 131.837 92.352 135.954 92.6641H136.2C137.02 92.6622 137.809 92.3495 138.407 91.7891C139.006 91.2287 139.37 90.4622 139.426 89.6441L140.488 75.6312L140.694 72.9233C141.198 66.6568 140.412 62.6703 138.072 60.0178C135.44 57.033 131.5 56.5347 128.767 56.4239C123.976 56.2226 121.45 56.1672 117.011 56.1672L117.021 56.2025Z" fill="#2B9BE0"/>
<path d="M158.021 93.6204C157.936 93.6279 157.85 93.6279 157.764 93.6204C150.865 92.503 147.483 92.0752 140.518 91.4259C140.306 91.4063 140.1 91.3451 139.912 91.2455C139.723 91.146 139.556 91.0103 139.421 90.8461C139.285 90.6819 139.183 90.4925 139.121 90.2888C139.059 90.0851 139.038 89.8711 139.059 89.6592L139.562 84.0822C139.599 83.6808 139.785 83.3078 140.083 83.036C140.381 82.7642 140.769 82.6132 141.172 82.6125H141.323C143.537 82.8189 144.957 82.9648 146.703 83.1661C144.257 74.7806 142.677 69.9939 139.386 61.0194C139.298 60.7756 139.27 60.5145 139.304 60.2577C139.338 60.0009 139.433 59.756 139.581 59.5433C139.728 59.3306 139.925 59.1562 140.153 59.0347C140.382 58.9133 140.636 58.8482 140.895 58.845H141.031C144.453 59.1369 146.119 59.303 149.516 59.6906C149.824 59.7251 150.116 59.848 150.356 60.0444C150.596 60.2409 150.775 60.5025 150.87 60.7979C152.068 64.4622 152.797 66.7775 153.673 69.717L154.75 61.9657C154.804 61.5796 154.996 61.2261 155.29 60.97C155.584 60.714 155.96 60.5724 156.35 60.5714C156.426 60.5664 156.501 60.5664 156.577 60.5714C159.752 61.0143 161.302 61.2509 164.478 61.7794C164.9 61.8533 165.277 62.0908 165.525 62.4403C165.774 62.7899 165.875 63.2233 165.806 63.6468L164.297 72.5659C163.23 78.9281 159.576 80.6193 156.843 80.9968C157.885 84.807 158.504 87.2532 159.551 91.6222C159.613 91.8615 159.619 92.1118 159.568 92.3538C159.518 92.5958 159.412 92.8229 159.26 93.0175C159.108 93.2122 158.913 93.3692 158.69 93.4763C158.467 93.5835 158.223 93.638 157.976 93.6355L158.021 93.6204Z" fill="#F4DE40"/>
<path d="M140.911 60.4557C144.287 60.7426 145.973 60.9087 149.345 61.2962C150.991 66.3296 151.766 68.8463 153.225 73.9098C153.338 73.9348 153.452 73.9482 153.567 73.9501C154.609 73.9501 154.906 72.7068 155.077 71.4837C155.58 67.7641 155.852 65.9017 156.371 62.1821C159.516 62.62 161.086 62.8616 164.221 63.3901C164.221 63.3901 163.889 65.4034 162.712 72.3092C161.886 77.2318 159.315 79.4666 155.601 79.4666C155.313 79.4679 155.026 79.4545 154.74 79.4264C156.134 84.4597 156.783 86.9764 157.986 92.0098C151.071 90.8873 147.594 90.4444 140.634 89.7951C140.84 87.5653 140.946 86.4479 141.137 84.2131C144.247 84.505 145.802 84.6711 148.902 85.0537C146.054 75.1782 144.448 70.2506 140.85 60.4557M140.85 57.2142C140.332 57.2184 139.822 57.3471 139.363 57.5894C138.904 57.8317 138.511 58.1805 138.215 58.6066C137.919 59.0327 137.73 59.5236 137.663 60.038C137.596 60.5525 137.654 61.0754 137.831 61.563C140.78 69.6164 142.36 74.3075 144.428 81.2837C143.538 81.1881 142.591 81.0975 141.439 80.9918C141.338 80.9918 141.238 80.9918 141.137 80.9918C140.331 80.9921 139.553 81.2937 138.957 81.8375C138.362 82.3812 137.99 83.1279 137.916 83.9312L137.413 89.5132C137.336 90.3678 137.6 91.218 138.148 91.8782C138.696 92.5385 139.483 92.9549 140.337 93.0366C147.257 93.6808 150.618 94.1087 157.478 95.2211C157.644 95.2465 157.812 95.2599 157.981 95.2613C158.47 95.2602 158.952 95.1485 159.391 94.9346C159.831 94.7207 160.216 94.4102 160.519 94.0263C160.821 93.6424 161.033 93.1951 161.138 92.7177C161.243 92.2404 161.239 91.7454 161.126 91.2699C160.246 87.5905 159.647 85.2047 158.852 82.24C162.566 81.0723 165.067 77.7956 165.897 72.8578L167.407 63.9387C167.548 63.0918 167.348 62.2235 166.85 61.5242C166.351 60.825 165.596 60.352 164.75 60.209C161.599 59.7057 159.969 59.4339 156.803 58.9909C156.657 58.9709 156.509 58.9608 156.36 58.9607C155.579 58.9596 154.823 59.2421 154.233 59.7558C153.644 60.2695 153.261 60.9795 153.155 61.7543L153.074 62.3331C152.868 61.6939 152.646 61.0244 152.415 60.3198C152.222 59.7299 151.864 59.2077 151.383 58.8152C150.902 58.4227 150.319 58.1763 149.702 58.1051C146.321 57.7225 144.564 57.5464 141.172 57.2595C141.082 57.2545 140.991 57.2545 140.901 57.2595L140.85 57.2142Z" fill="#2B9BE0"/>
<path d="M162.651 95.5432C162.274 95.5423 161.91 95.4107 161.619 95.1707C161.453 95.0336 161.316 94.8645 161.217 94.6734C161.118 94.4823 161.058 94.2731 161.041 94.0584C160.855 91.8286 160.759 90.7112 160.537 88.4814C160.518 88.2692 160.541 88.0552 160.604 87.8518C160.668 87.6483 160.77 87.4594 160.907 87.2958C161.043 87.1321 161.211 86.997 161.4 86.8982C161.588 86.7993 161.795 86.7387 162.007 86.7197L164.362 86.5184C165.042 77.7805 165.369 73.0642 165.897 63.8683C165.925 63.4588 166.107 63.0752 166.407 62.7949C166.707 62.5146 167.102 62.3586 167.513 62.3583C167.609 62.3592 167.705 62.3676 167.799 62.3834C171.02 62.9623 172.585 63.2643 175.786 63.9337C176.175 64.0149 176.52 64.2362 176.755 64.5556C176.991 64.8749 177.101 65.2699 177.064 65.6652C176.491 71.9821 176.108 76.0188 175.59 80.9666L178.931 66.2591C179.012 65.9018 179.212 65.5827 179.499 65.3541C179.785 65.1254 180.14 65.0008 180.507 65.0008C180.628 64.9992 180.75 65.0127 180.869 65.0411C184.044 65.7608 185.594 66.1383 188.765 66.9487C188.971 67.0015 189.165 67.0945 189.335 67.2222C189.505 67.35 189.649 67.5101 189.757 67.6933C189.866 67.8765 189.937 68.0793 189.967 68.2901C189.997 68.5009 189.985 68.7155 189.932 68.9218L186.309 83.0403C184.231 91.139 182.313 94.4912 171.534 94.9845C165.937 95.2412 162.832 95.5533 162.802 95.5583L162.651 95.5432Z" fill="#F4DE40"/>
<path d="M167.528 63.9589C170.708 64.5276 172.298 64.8347 175.469 65.4991C174.659 74.3981 174.216 78.8375 173.255 87.7163C175.268 87.5905 175.861 87.1375 176.647 83.6896L180.522 66.6165C183.672 67.3363 185.247 67.7138 188.382 68.5191C186.928 74.1665 186.203 76.9902 184.754 82.6125C182.821 90.1625 181.463 92.8805 171.473 93.3436C165.756 93.6053 162.651 93.9224 162.651 93.9224C162.47 91.6826 162.374 90.5652 162.148 88.3253C163.632 88.1945 164.377 88.1341 165.872 88.0234C166.622 78.4046 166.949 73.5927 167.513 63.9538M167.513 60.7174C166.691 60.7168 165.901 61.0285 165.301 61.5893C164.701 62.1501 164.337 62.918 164.282 63.7374C163.778 72.435 163.461 77.1211 162.857 84.9882L161.851 85.0788C161.427 85.1168 161.014 85.2381 160.637 85.4358C160.26 85.6336 159.925 85.9039 159.653 86.2312C159.38 86.5585 159.175 86.9365 159.048 87.3434C158.922 87.7502 158.878 88.178 158.917 88.6022C159.123 90.8269 159.219 91.9343 159.42 94.1389C159.48 94.9552 159.846 95.7187 160.446 96.2761C161.045 96.8334 161.833 97.1434 162.651 97.1438C162.762 97.1438 162.873 97.1438 162.978 97.1438C163.008 97.1438 166.083 96.8317 171.624 96.575C183.38 96.0364 185.715 91.9544 187.889 83.4178L191.518 69.2993C191.624 68.8875 191.647 68.4588 191.587 68.0379C191.528 67.6169 191.385 67.2118 191.169 66.8458C190.953 66.4798 190.666 66.1601 190.326 65.9048C189.986 65.6495 189.599 65.4638 189.188 65.3581C186.042 64.5478 184.407 64.1552 181.241 63.4354C180.747 63.323 180.233 63.3282 179.741 63.4506C179.249 63.5729 178.792 63.8091 178.408 64.1401C178.197 63.6795 177.881 63.275 177.485 62.9593C177.089 62.6436 176.624 62.4257 176.128 62.323C172.948 61.6586 171.297 61.3164 168.076 60.7677C167.889 60.7333 167.698 60.7164 167.507 60.7174H167.513Z" fill="#2B9BE0"/>
<path d="M65.0906 48.4461C64.7308 48.4462 64.3812 48.3265 64.097 48.106C63.8127 47.8854 63.6099 47.5765 63.5205 47.228L59.4945 31.4786C59.4407 31.2727 59.4282 31.0582 59.4576 30.8475C59.4871 30.6367 59.5578 30.4338 59.6658 30.2505C59.7738 30.0672 59.917 29.907 60.0871 29.7791C60.2572 29.6513 60.4508 29.5583 60.657 29.5055C63.9885 28.6499 65.7197 28.2422 69.0915 27.4922C69.5112 27.4009 69.95 27.4801 70.3115 27.7123C70.6729 27.9444 70.9273 28.3107 71.0189 28.7304L74.4612 44.6257C74.507 44.8337 74.5114 45.0486 74.4739 45.2582C74.4364 45.4678 74.3579 45.6679 74.2429 45.8471C74.1278 46.0262 73.9785 46.1808 73.8035 46.3021C73.6285 46.4233 73.4313 46.5088 73.2232 46.5535C70.1131 47.228 68.5983 47.5602 65.5083 48.3806C65.372 48.4181 65.2319 48.4401 65.0906 48.4461Z" fill="#F4DE40"/>
<path d="M69.4487 29.0928C70.8226 35.4499 71.512 38.626 72.8909 44.9831C69.7708 45.6626 68.2157 46.03 65.1157 46.8253C63.4952 40.5236 62.69 37.3727 61.0897 31.0759C64.4313 30.2152 66.1222 29.8176 69.4688 29.0928M69.4688 25.8513C69.2369 25.8513 69.0057 25.8766 68.7794 25.9268C65.3925 26.6617 63.6462 27.0744 60.2845 27.9402C59.4535 28.1547 58.7416 28.6901 58.3048 29.4289C57.8679 30.1677 57.742 31.0497 57.9544 31.8813L60.9236 43.458L62.0006 47.6458C62.1769 48.3428 62.5814 48.9608 63.1495 49.4014C63.7177 49.842 64.4169 50.0797 65.1358 50.0769C65.4074 50.0782 65.6781 50.0443 65.941 49.9762C68.9454 49.1759 70.4552 48.8236 73.5502 48.1491C73.9666 48.0596 74.3612 47.8887 74.7114 47.6463C75.0616 47.4039 75.3606 47.0947 75.5911 46.7365C75.8216 46.3783 75.9791 45.9781 76.0546 45.5589C76.1302 45.1397 76.1222 44.7097 76.0312 44.2935L75.1958 40.443L72.5839 28.3982C72.4268 27.6814 72.031 27.0392 71.4615 26.5765C70.892 26.1139 70.1824 25.8582 69.4487 25.8513H69.4688Z" fill="#2B9BE0"/>
<path d="M79.9214 59.5396C79.6196 59.5409 79.3235 59.457 79.0671 59.2977C78.8108 59.1383 78.6045 58.9099 78.4721 58.6386C77.4656 56.6253 76.9623 55.6186 75.9558 53.6355C75.856 53.4448 75.796 53.2358 75.7796 53.0212C75.7632 52.8066 75.7906 52.5909 75.8602 52.3872C75.9273 52.1829 76.0344 51.9941 76.1753 51.8316C76.3161 51.6692 76.4878 51.5363 76.6805 51.4409C77.5863 50.998 78.1902 50.701 78.9099 50.3688C76.3634 41.9983 74.9241 37.4935 72.0153 28.7254C71.944 28.5073 71.9197 28.2766 71.9439 28.0484C71.9681 27.8202 72.0404 27.5997 72.1559 27.4015C72.2714 27.2032 72.4276 27.0316 72.6141 26.8981C72.8007 26.7645 73.0134 26.6719 73.2382 26.6265C76.6 25.9621 78.3463 25.655 81.7231 25.1165C81.8069 25.1117 81.8909 25.1117 81.9747 25.1165C82.3273 25.117 82.6701 25.2322 82.9515 25.4446C83.2329 25.6571 83.4376 25.9553 83.5348 26.2943C85.3918 32.7974 86.509 36.809 87.903 42.0738L85.7642 26.1735C85.7084 25.7471 85.8238 25.316 86.085 24.9745C86.3463 24.6331 86.7322 24.409 87.1582 24.3514C90.53 23.8984 92.2763 23.6971 95.6682 23.3447H95.8242C96.2265 23.3454 96.6142 23.4957 96.9119 23.7664C97.2095 24.0371 97.3959 24.4089 97.4346 24.8094L98.8286 39.3206C99.6237 47.5803 98.9393 51.3705 88.7887 55.6689C83.5247 57.8987 80.6813 59.3383 80.6562 59.3534C80.4291 59.4718 80.1775 59.5355 79.9214 59.5396Z" fill="#F4DE40"/>
<path d="M95.8241 24.9755C96.3827 30.779 96.6595 33.6832 97.2181 39.4867C97.9629 47.223 97.5805 50.1977 88.1596 54.1891C82.7697 56.4693 79.9213 57.9189 79.9213 57.9189C78.9148 55.9055 78.4116 54.8988 77.4051 52.8855C78.784 52.211 79.4785 51.8788 80.8725 51.2295C78.0744 41.9984 76.6099 37.3979 73.5653 28.2271C76.922 27.5627 78.5978 27.2607 81.9847 26.7171C84.4456 35.3141 85.6232 39.6226 87.8727 48.2649C89.7851 47.4243 90.1827 46.8002 89.7146 43.2768C88.7836 36.3358 88.3156 32.8678 87.3846 25.9268C90.7614 25.4738 92.4523 25.2775 95.8392 24.9554M95.8392 21.7139C95.7335 21.7139 95.6329 21.7139 95.5272 21.7139C92.1151 22.0461 90.3538 22.2475 86.9719 22.7206C86.1204 22.8369 85.3496 23.2857 84.8281 23.9689C84.6775 24.1645 84.5508 24.3774 84.4506 24.6031C84.1466 24.2526 83.771 23.9715 83.349 23.7787C82.9271 23.5859 82.4687 23.486 82.0048 23.4857C81.8362 23.4846 81.6678 23.4981 81.5016 23.5259C78.0996 24.0645 76.3432 24.3766 72.9463 25.0359C72.4887 25.1193 72.0545 25.3001 71.673 25.5661C71.2916 25.8322 70.9718 26.1773 70.7355 26.5779C70.4992 26.9785 70.3518 27.4253 70.3035 27.8879C70.2551 28.3505 70.3068 28.8181 70.4552 29.2589C73.1979 37.5136 74.6322 41.9833 76.927 49.5081L75.9205 50.0115C75.534 50.2003 75.189 50.4643 74.9057 50.7881C74.6224 51.1119 74.4065 51.4889 74.2706 51.8971C74.1347 52.3053 74.0816 52.7365 74.1143 53.1655C74.147 53.5945 74.2649 54.0126 74.4611 54.3955C75.4676 56.4089 75.9708 57.3652 76.9773 59.3785C77.2459 59.9192 77.66 60.3743 78.1729 60.6926C78.6859 61.0109 79.2774 61.1799 79.8811 61.1805C80.3917 61.1792 80.8949 61.0585 81.3506 60.8281C81.3757 60.8281 84.1839 59.3886 89.4026 57.189C100.444 52.513 101.259 47.9025 100.419 39.1948L99.8703 33.4869L99.0449 24.6635C98.9686 23.862 98.5962 23.1177 98.0007 22.5761C97.4051 22.0344 96.6291 21.7342 95.8241 21.7341L95.8392 21.7139Z" fill="#2B9BE0"/>
<path d="M102.865 55.3669C102.454 55.3666 102.059 55.2106 101.76 54.9303C101.46 54.6501 101.277 54.2664 101.249 53.8569L99.0753 24.6635C99.0603 24.4503 99.0874 24.2362 99.1551 24.0335C99.2229 23.8307 99.3299 23.6434 99.4702 23.4821C99.6104 23.3208 99.7811 23.1888 99.9724 23.0935C100.164 22.9982 100.372 22.9416 100.585 22.927C103.992 22.6753 105.764 22.5746 109.186 22.4488H109.246C109.665 22.4485 110.068 22.6112 110.369 22.9023C110.671 23.1934 110.847 23.5903 110.861 24.0091L111.938 53.2378C111.947 53.4505 111.913 53.6626 111.838 53.862C111.764 54.0615 111.652 54.2443 111.507 54.4001C111.362 54.5558 111.187 54.6814 110.994 54.7695C110.8 54.8577 110.591 54.9068 110.378 54.9139C107.409 55.0247 105.96 55.1052 103.001 55.3267L102.865 55.3669Z" fill="#F4DE40"/>
<path d="M109.231 24.0846C109.659 35.7771 109.875 41.6208 110.303 53.3133C107.324 53.4241 105.839 53.5046 102.865 53.7261C101.994 42.0587 101.561 36.2251 100.691 24.5578C104.103 24.3061 105.814 24.2105 109.246 24.0846M109.246 20.8431H109.125C105.683 20.969 103.901 21.0696 100.464 21.3465C99.6084 21.4109 98.813 21.8121 98.2526 22.4623C97.6922 23.1124 97.4125 23.9583 97.4749 24.8145L98.8437 43.1812L99.6489 53.9828C99.705 54.8018 100.07 55.569 100.669 56.1295C101.269 56.6901 102.059 57.0021 102.88 57.0028H103.116C106.055 56.7813 107.495 56.7008 110.439 56.5951C110.864 56.5802 111.282 56.4814 111.669 56.3044C112.056 56.1274 112.404 55.8757 112.694 55.5638C112.983 55.2518 113.208 54.8858 113.356 54.4866C113.503 54.0875 113.571 53.6631 113.554 53.2378L113.161 42.5621L112.482 24.0091C112.451 23.1714 112.096 22.3784 111.493 21.7965C110.889 21.2146 110.084 20.8892 109.246 20.8884V20.8431Z" fill="#2B9BE0"/>
<path d="M128.667 55.1102C125.707 54.9441 124.258 54.8888 121.284 54.8334C121.071 54.8295 120.861 54.7836 120.666 54.6985C120.471 54.6134 120.294 54.4907 120.147 54.3374C119.999 54.1841 119.883 54.0032 119.805 53.805C119.728 53.6068 119.69 53.3953 119.694 53.1824L120.011 36.3006V35.5959C120.051 34.0154 120.096 32.3796 119.437 31.7001C119.07 31.3226 118.37 31.1313 117.348 31.1313C115.723 31.1313 114.913 31.1313 113.297 31.1716H113.262C112.839 31.1716 112.432 31.0056 112.13 30.7091C111.828 30.4126 111.654 30.0093 111.647 29.5861L111.536 24.0041C111.529 23.5752 111.692 23.1611 111.989 22.8514C112.136 22.6965 112.312 22.5723 112.507 22.4859C112.702 22.3995 112.913 22.3527 113.126 22.3481C114.807 22.3179 115.99 22.3028 117.268 22.3028C118.133 22.3028 119.044 22.3028 120.187 22.3028C124.213 22.3481 127.076 23.3095 128.898 25.2775C131.56 28.1214 131.55 32.4349 131.294 36.9801L130.352 53.5599C130.324 53.9694 130.142 54.3531 129.842 54.6333C129.542 54.9136 129.147 55.0696 128.737 55.07L128.667 55.1102Z" fill="#F4DE40"/>
<path d="M117.298 23.9236C118.153 23.9236 119.059 23.9236 120.187 23.9236C129.673 24.0343 130.116 29.4603 129.693 36.8945C129.321 43.5235 129.134 46.8404 128.757 53.4744C125.783 53.3083 124.293 53.2529 121.314 53.1925C121.44 46.4428 121.505 43.0654 121.631 36.3107C121.691 33.1094 122.159 29.4905 117.368 29.4905C115.738 29.4905 114.923 29.4905 113.292 29.5358C113.252 27.301 113.227 26.1836 113.186 23.9538C114.862 23.9185 116.035 23.9034 117.308 23.9034M117.308 20.667C116.085 20.667 114.907 20.667 113.121 20.7173C112.696 20.7252 112.277 20.8167 111.888 20.9867C111.498 21.1568 111.146 21.4019 110.852 21.7081C110.558 22.0143 110.326 22.3756 110.172 22.7713C110.017 23.167 109.942 23.5894 109.95 24.0142L109.991 26.249L110.056 29.5962C110.073 30.4436 110.421 31.2506 111.026 31.8443C111.631 32.438 112.445 32.7711 113.292 32.7722H113.357C114.968 32.742 115.758 32.7319 117.383 32.7319C117.695 32.7214 118.007 32.7553 118.309 32.8326C118.491 33.336 118.455 34.695 118.43 35.5305V36.2503L118.37 39.4162L118.108 53.1321C118.1 53.5578 118.176 53.9809 118.332 54.3773C118.487 54.7736 118.719 55.1354 119.014 55.4421C119.31 55.7487 119.663 55.9941 120.053 56.1643C120.443 56.3345 120.863 56.4262 121.289 56.434C124.233 56.4894 125.667 56.5397 128.611 56.7058H128.792C129.62 56.7083 130.417 56.3925 131.018 55.8239C131.619 55.2552 131.979 54.4771 132.023 53.6506L132.793 40.0605L132.964 37.0808C133.231 32.3695 133.231 27.4922 130.136 24.1803C127.992 21.8851 124.761 20.7425 120.257 20.6922C119.115 20.6922 118.204 20.6922 117.333 20.6922L117.308 20.667Z" fill="#2B9BE0"/>
<path d="M141.721 43.1963H141.535C138.394 42.8339 136.854 42.6929 133.684 42.4413C133.47 42.4272 133.262 42.3711 133.07 42.276C132.879 42.181 132.708 42.0489 132.567 41.8875C132.427 41.7261 132.32 41.5385 132.252 41.3355C132.185 41.1325 132.158 40.9181 132.174 40.7048L133.427 24.4873C133.443 24.2758 133.501 24.0696 133.597 23.8804C133.692 23.6912 133.825 23.5229 133.986 23.385C134.28 23.133 134.655 22.9938 135.043 22.9924H135.163C138.585 23.2591 140.352 23.4303 143.744 23.8178C144.172 23.8677 144.563 24.0848 144.831 24.4218C144.962 24.5879 145.06 24.7783 145.118 24.9822C145.176 25.186 145.193 25.3993 145.168 25.6097L143.331 41.7769C143.287 42.1724 143.098 42.5375 142.8 42.8022C142.503 43.0669 142.119 43.2126 141.721 43.2114V43.1963Z" fill="#F4DE40"/>
<path d="M135.063 24.603C138.475 24.8648 140.176 25.0309 143.583 25.4235L141.721 41.5755C138.56 41.2131 136.98 41.0722 133.81 40.8155C134.313 34.3325 134.56 31.091 135.063 24.603ZM135.063 21.3666C134.25 21.3717 133.469 21.6818 132.875 22.2356C132.28 22.7893 131.915 23.5462 131.852 24.3564L130.78 38.2887L130.604 40.5688C130.571 40.9929 130.622 41.4193 130.754 41.8237C130.886 42.2281 131.096 42.6025 131.373 42.9255C131.649 43.2486 131.987 43.5139 132.366 43.7063C132.746 43.8987 133.159 44.0144 133.583 44.0469C136.719 44.2885 138.248 44.4345 141.369 44.7969C141.494 44.7969 141.62 44.7969 141.746 44.7969C142.54 44.7947 143.305 44.5015 143.897 43.9727C144.488 43.4439 144.866 42.7163 144.957 41.9278L145.148 40.2618L146.819 25.7708C146.864 25.3469 146.825 24.9183 146.704 24.5095C146.584 24.1007 146.383 23.7198 146.115 23.3886C145.846 23.0575 145.515 22.7827 145.14 22.5799C144.765 22.3772 144.354 22.2505 143.93 22.2071C140.513 21.8095 138.737 21.6384 135.289 21.3766C135.207 21.3716 135.125 21.3716 135.043 21.3766L135.063 21.3666Z" fill="#2B9BE0"/>
<path d="M166.259 60.8734C166.125 60.8744 165.991 60.8575 165.862 60.8231C163.104 60.1234 161.75 59.8164 158.967 59.2074C158.672 59.1429 158.401 58.9976 158.185 58.7878C157.968 58.578 157.813 58.312 157.739 58.0195C156.471 52.9861 155.631 49.9259 154.367 45.8841L152.586 56.2931C152.551 56.5027 152.475 56.7033 152.362 56.883C152.249 57.0628 152.101 57.2182 151.927 57.34C151.653 57.5337 151.326 57.6375 150.991 57.637C150.899 57.6361 150.809 57.6277 150.719 57.6118C147.946 57.1387 146.587 56.9323 143.794 56.5548C143.368 56.4972 142.983 56.273 142.722 55.9313C142.462 55.5897 142.348 55.1585 142.405 54.7327L144.026 42.708C144.614 38.334 147.045 35.606 150.744 35.0221C149.687 32.1128 148.917 30.1297 147.533 26.7271C147.433 26.4804 147.395 26.2129 147.423 25.9482C147.451 25.6835 147.544 25.4297 147.693 25.2093C147.842 24.9889 148.044 24.8086 148.279 24.6844C148.514 24.5603 148.777 24.496 149.043 24.4973C149.117 24.4923 149.191 24.4923 149.264 24.4973C152.47 24.9453 154.121 25.207 157.316 25.7657C157.593 25.8233 157.85 25.9519 158.062 26.139C158.274 26.3262 158.433 26.5653 158.524 26.8328C160.255 31.7051 161.277 34.7654 162.495 38.8474L164.684 28.8613C164.764 28.5012 164.964 28.179 165.251 27.9476C165.538 27.7162 165.895 27.5893 166.264 27.5878C166.381 27.5888 166.498 27.6023 166.611 27.6281C169.762 28.3177 171.382 28.7052 174.502 29.5055C174.709 29.5584 174.903 29.6513 175.073 29.7791C175.243 29.9068 175.387 30.0669 175.495 30.2501C175.603 30.4334 175.675 30.6362 175.705 30.847C175.735 31.0577 175.723 31.2724 175.67 31.4786L173.119 41.4396C172.238 44.8724 170.562 48.7783 165.439 49.2917C166.365 52.6791 166.949 54.9945 167.829 58.8953C167.884 59.1322 167.884 59.3783 167.83 59.6153C167.777 59.8523 167.67 60.0742 167.519 60.2643C167.367 60.4544 167.175 60.6079 166.956 60.7134C166.737 60.8188 166.497 60.8736 166.254 60.8734H166.259Z" fill="#F4DE40"/>
<path d="M149.033 26.1181C152.229 26.561 153.829 26.8177 157.015 27.3764C159.264 33.6933 160.281 36.8643 162.097 43.2164H162.259C163.109 43.2164 163.371 42.4715 163.859 40.2367C164.825 35.8224 165.313 33.6128 166.279 29.1985C169.425 29.8881 170.99 30.2605 174.115 31.0659C173.109 35.0473 172.58 37.0405 171.559 41.0269C170.462 45.3002 168.589 47.7263 164.282 47.7263C163.97 47.7263 163.653 47.7263 163.32 47.6911C164.614 52.3117 165.197 54.627 166.259 59.2678C163.486 58.5681 162.097 58.2611 159.309 57.642C157.634 51.003 156.677 47.686 154.524 41.0772H154.393C153.623 41.0772 153.426 41.8272 153.135 43.5083C152.279 48.5417 151.851 51.0282 150.991 56.0364C148.208 55.5632 146.809 55.3468 144.011 54.9693C144.66 50.1624 144.982 47.7565 145.631 42.9446C146.094 39.4917 147.971 36.5422 152.309 36.5422C152.536 36.5422 152.772 36.5422 153.014 36.5422C151.504 32.3544 150.724 30.2706 149.033 26.113M149.033 22.8716C148.5 22.8677 147.975 22.9954 147.503 23.2434C147.032 23.4914 146.629 23.852 146.33 24.2932C146.031 24.7344 145.846 25.2425 145.791 25.7724C145.736 26.3024 145.812 26.8378 146.014 27.3311C147.106 30.0189 147.815 31.8158 148.59 33.8745C145.218 35.1077 142.984 38.1277 142.4 42.4614L140.78 54.4911C140.667 55.342 140.896 56.2029 141.416 56.8851C141.937 57.5673 142.707 58.0151 143.558 58.1302C146.326 58.5027 147.674 58.7091 150.427 59.1822C150.608 59.2121 150.792 59.2272 150.976 59.2275C151.739 59.2265 152.477 58.9557 153.06 58.4629C153.643 57.9701 154.033 57.2872 154.161 56.5347L154.76 53.0465C155.193 54.632 155.636 56.3484 156.149 58.3869C156.297 58.9721 156.605 59.5045 157.039 59.9241C157.473 60.3438 158.015 60.6342 158.605 60.7627C161.363 61.3566 162.706 61.6687 165.444 62.3633C165.704 62.4292 165.971 62.463 166.239 62.464C166.726 62.4633 167.206 62.3531 167.644 62.1416C168.082 61.9301 168.466 61.6228 168.769 61.2423C169.072 60.8618 169.286 60.418 169.394 59.9438C169.502 59.4695 169.503 58.977 169.395 58.5027C168.65 55.2512 168.126 53.0969 167.442 50.5248C172.827 49.0148 174.181 43.7348 174.674 41.8121L177.23 31.8511C177.444 31.0188 177.319 30.1355 176.882 29.3955C176.445 28.6555 175.732 28.1194 174.9 27.9049C171.76 27.0996 170.124 26.712 166.954 26.0174C166.539 25.9255 166.11 25.9165 165.691 25.9908C165.272 26.065 164.873 26.2212 164.515 26.4503C164.156 26.6795 163.847 26.977 163.604 27.326C163.361 27.6749 163.19 28.0683 163.099 28.4838L162.55 31.0004L162.213 32.5356C161.589 30.6632 160.905 28.6851 160.044 26.2691C159.851 25.7303 159.518 25.2522 159.081 24.8828C158.644 24.5134 158.117 24.2659 157.553 24.1651C154.347 23.6014 152.682 23.3397 149.461 22.8917C149.313 22.8677 149.163 22.8559 149.013 22.8565L149.033 22.8716Z" fill="#2B9BE0"/>
<path d="M79.388 117.655C78.9854 115.495 78.3815 114.846 76.8215 115.138L75.0752 115.495L74.7229 113.809C75.669 113.613 76.1421 113.522 77.0882 113.336C80.2033 112.727 81.1142 113.87 81.7131 117.131L83.0719 124.857C82.171 125.019 81.7231 125.099 80.8223 125.27L79.388 117.655Z" fill="#E7F3F7"/>
<path d="M86.1265 118.973C85.6887 116.165 85.4672 114.761 85.0344 111.957C85.9906 111.806 86.4687 111.735 87.4299 111.595C87.8375 114.408 88.0388 115.812 88.4364 118.641C87.5155 118.757 87.0625 118.827 86.1265 118.973Z" fill="#E7F3F7"/>
<path d="M93.313 123.342C92.704 118.41 92.4021 115.943 91.8032 111.011L94.2088 110.729C94.7573 115.672 95.0341 118.138 95.5826 123.081C94.6718 123.181 94.2188 123.232 93.313 123.342Z" fill="#E7F3F7"/>
<path d="M99.7998 122.653L98.6926 110.281C99.6538 110.195 100.137 110.155 101.103 110.08C101.491 115.032 101.687 117.509 102.074 122.462C101.154 122.532 100.711 122.572 99.7998 122.653Z" fill="#E7F3F7"/>
<path d="M111.677 117.096C112.628 119.009 113.086 119.97 113.992 121.888L111.777 121.943C110.504 119.311 109.845 118.002 108.491 115.4C107.947 115.611 107.862 116.074 107.902 116.88C107.998 118.963 108.048 120.005 108.149 122.089L105.914 122.21C105.809 120.368 105.753 119.447 105.643 117.599C105.517 115.45 106.146 114.453 107.761 113.965C106.881 112.289 106.428 111.449 105.512 109.788L107.867 109.667C109.145 112.073 109.769 113.276 110.982 115.707C111.526 115.44 111.661 115.022 111.636 114.131C111.581 112.294 111.556 111.373 111.5 109.536L113.856 109.481C113.886 111.081 113.896 111.881 113.926 113.477C113.971 115.903 113.181 116.658 111.677 117.096Z" fill="#E7F3F7"/>
<path d="M125.103 121.999C124.193 121.963 123.74 121.953 122.829 121.928C122.94 117.645 123 115.505 123.111 111.227C120.992 111.172 119.935 111.157 117.816 111.152V109.435C120.921 109.435 122.471 109.465 125.572 109.586C125.385 114.549 125.31 117.036 125.103 121.999ZM120.277 114.026L120.177 121.873C119.266 121.873 118.813 121.873 117.902 121.873C117.902 118.732 117.902 117.166 117.902 114.026C118.843 114.011 119.316 114.016 120.277 114.026Z" fill="#E7F3F7"/>
<path d="M139.325 112.284C137.69 112.113 136.869 112.037 135.229 111.897C135.36 110.387 135.425 109.632 135.551 108.122C136.492 108.202 136.96 108.242 137.896 108.333C137.821 109.158 137.78 109.571 137.7 110.397C139.562 110.573 140.488 110.673 142.345 110.9C140.563 115.697 139.713 118.098 138.072 122.925C137.171 122.834 136.723 122.789 135.823 122.708C137.171 118.52 137.891 116.437 139.325 112.284Z" fill="#E7F3F7"/>
<path d="M144.937 118.374C145.314 115.561 145.505 114.151 145.883 111.328C146.844 111.459 147.327 111.524 148.288 111.665L147.257 118.712L144.937 118.374Z" fill="#E7F3F7"/>
<path d="M159.531 118.223L157.92 125.99C157.025 125.804 156.577 125.713 155.681 125.542C156.29 122.396 156.597 120.821 157.191 117.675C157.608 115.541 157.191 114.927 155.726 114.655L154.72 114.469C153.96 118.682 153.582 120.79 152.823 125.003C151.922 124.842 151.474 124.762 150.573 124.611C151.393 119.713 151.806 117.262 152.631 112.36C154.212 112.626 154.997 112.767 156.572 113.064C159.299 113.578 160.235 114.761 159.531 118.223Z" fill="#E7F3F7"/>
<path d="M147.493 28.061H145.198V30.3562H147.493V28.061Z" fill="#2B9BE0"/>
<path d="M109.13 148.731H100.419V144.045H116.407L108.748 168.537H102.764L109.13 148.731Z" fill="#E7F3F7" stroke="#2B9BE0" stroke-width="2" stroke-linecap="round" stroke-linejoin="round"/>
<path d="M135.022 159.789C135.022 165.668 132.431 168.748 126.588 168.748C121.309 168.748 118.576 165.945 118.576 161.118H123.966C123.966 163.005 124.842 164.339 126.588 164.339C128.48 164.339 129.356 163.076 129.356 159.895C129.356 156.714 128.48 155.556 126.588 155.556C126.028 155.534 125.474 155.688 125.005 155.994C124.535 156.301 124.172 156.746 123.966 157.267H118.576V144.045H134.288V148.449H123.825V152.44C125.054 151.553 126.542 151.098 128.057 151.147C132.959 151.147 135.022 154.021 135.022 159.789Z" fill="#E7F3F7" stroke="#2B9BE0" stroke-width="2" stroke-linecap="round" stroke-linejoin="round"/>
</g>
<defs>
<linearGradient id="paint0_linear_100_91" x1="0" y1="75.3443" x2="141.63" y2="75.3443" gradientUnits="userSpaceOnUse">
<stop offset="0.34" stop-color="#BFE9F7"/>
<stop offset="0.4" stop-color="#BDE8F7" stop-opacity="0.96"/>
<stop offset="0.49" stop-color="#B6E6F8" stop-opacity="0.86"/>
<stop offset="0.61" stop-color="#ABE2F9" stop-opacity="0.7"/>
<stop offset="0.75" stop-color="#9BDDFA" stop-opacity="0.47"/>
<stop offset="0.91" stop-color="#88D6FB" stop-opacity="0.18"/>
<stop offset="1" stop-color="#7CD2FC" stop-opacity="0"/>
</linearGradient>
<linearGradient id="paint1_linear_100_91" x1="15.7014" y1="96.3736" x2="127.62" y2="96.3736" gradientUnits="userSpaceOnUse">
<stop offset="0.34" stop-color="#BFE9F7"/>
<stop offset="0.4" stop-color="#BDE8F7" stop-opacity="0.96"/>
<stop offset="0.49" stop-color="#B6E6F8" stop-opacity="0.86"/>
<stop offset="0.61" stop-color="#ABE2F9" stop-opacity="0.7"/>
<stop offset="0.75" stop-color="#9BDDFA" stop-opacity="0.47"/>
<stop offset="0.91" stop-color="#88D6FB" stop-opacity="0.18"/>
<stop offset="1" stop-color="#7CD2FC" stop-opacity="0"/>
</linearGradient>
<linearGradient id="paint2_linear_100_91" x1="28.0312" y1="113.447" x2="113.916" y2="113.447" gradientUnits="userSpaceOnUse">
<stop offset="0.34" stop-color="#BFE9F7"/>
<stop offset="0.4" stop-color="#BDE8F7" stop-opacity="0.96"/>
<stop offset="0.49" stop-color="#B6E6F8" stop-opacity="0.86"/>
<stop offset="0.61" stop-color="#ABE2F9" stop-opacity="0.7"/>
<stop offset="0.75" stop-color="#9BDDFA" stop-opacity="0.47"/>
<stop offset="0.91" stop-color="#88D6FB" stop-opacity="0.18"/>
<stop offset="1" stop-color="#7CD2FC" stop-opacity="0"/>
</linearGradient>
<linearGradient id="paint3_linear_100_91" x1="40.1494" y1="129.835" x2="100.062" y2="129.835" gradientUnits="userSpaceOnUse">
<stop offset="0.34" stop-color="#BFE9F7"/>
<stop offset="0.4" stop-color="#BDE8F7" stop-opacity="0.96"/>
<stop offset="0.49" stop-color="#B6E6F8" stop-opacity="0.86"/>
<stop offset="0.61" stop-color="#ABE2F9" stop-opacity="0.7"/>
<stop offset="0.75" stop-color="#9BDDFA" stop-opacity="0.47"/>
<stop offset="0.91" stop-color="#88D6FB" stop-opacity="0.18"/>
<stop offset="1" stop-color="#7CD2FC" stop-opacity="0"/>
</linearGradient>
<linearGradient id="paint4_linear_100_91" x1="49.9529" y1="143.113" x2="85.88" y2="143.113" gradientUnits="userSpaceOnUse">
<stop offset="0.34" stop-color="#BFE9F7"/>
<stop offset="0.4" stop-color="#BDE8F7" stop-opacity="0.96"/>
<stop offset="0.49" stop-color="#B6E6F8" stop-opacity="0.86"/>
<stop offset="0.61" stop-color="#ABE2F9" stop-opacity="0.7"/>
<stop offset="0.75" stop-color="#9BDDFA" stop-opacity="0.47"/>
<stop offset="0.91" stop-color="#88D6FB" stop-opacity="0.18"/>
<stop offset="1" stop-color="#7CD2FC" stop-opacity="0"/>
</linearGradient>
<linearGradient id="paint5_linear_100_91" x1="236" y1="75.3443" x2="94.3648" y2="75.3443" gradientUnits="userSpaceOnUse">
<stop offset="0.34" stop-color="#BFE9F7"/>
<stop offset="0.4" stop-color="#BDE8F7" stop-opacity="0.96"/>
<stop offset="0.49" stop-color="#B6E6F8" stop-opacity="0.86"/>
<stop offset="0.61" stop-color="#ABE2F9" stop-opacity="0.7"/>
<stop offset="0.75" stop-color="#9BDDFA" stop-opacity="0.47"/>
<stop offset="0.91" stop-color="#88D6FB" stop-opacity="0.18"/>
<stop offset="1" stop-color="#7CD2FC" stop-opacity="0"/>
</linearGradient>
<linearGradient id="paint6_linear_100_91" x1="220.299" y1="96.3736" x2="108.38" y2="96.3736" gradientUnits="userSpaceOnUse">
<stop offset="0.34" stop-color="#BFE9F7"/>
<stop offset="0.4" stop-color="#BDE8F7" stop-opacity="0.96"/>
<stop offset="0.49" stop-color="#B6E6F8" stop-opacity="0.86"/>
<stop offset="0.61" stop-color="#ABE2F9" stop-opacity="0.7"/>
<stop offset="0.75" stop-color="#9BDDFA" stop-opacity="0.47"/>
<stop offset="0.91" stop-color="#88D6FB" stop-opacity="0.18"/>
<stop offset="1" stop-color="#7CD2FC" stop-opacity="0"/>
</linearGradient>
<linearGradient id="paint7_linear_100_91" x1="207.969" y1="113.447" x2="122.084" y2="113.447" gradientUnits="userSpaceOnUse">
<stop offset="0.34" stop-color="#BFE9F7"/>
<stop offset="0.4" stop-color="#BDE8F7" stop-opacity="0.96"/>
<stop offset="0.49" stop-color="#B6E6F8" stop-opacity="0.86"/>
<stop offset="0.61" stop-color="#ABE2F9" stop-opacity="0.7"/>
<stop offset="0.75" stop-color="#9BDDFA" stop-opacity="0.47"/>
<stop offset="0.91" stop-color="#88D6FB" stop-opacity="0.18"/>
<stop offset="1" stop-color="#7CD2FC" stop-opacity="0"/>
</linearGradient>
<linearGradient id="paint8_linear_100_91" x1="195.846" y1="129.835" x2="135.938" y2="129.835" gradientUnits="userSpaceOnUse">
<stop offset="0.34" stop-color="#BFE9F7"/>
<stop offset="0.4" stop-color="#BDE8F7" stop-opacity="0.96"/>
<stop offset="0.49" stop-color="#B6E6F8" stop-opacity="0.86"/>
<stop offset="0.61" stop-color="#ABE2F9" stop-opacity="0.7"/>
<stop offset="0.75" stop-color="#9BDDFA" stop-opacity="0.47"/>
<stop offset="0.91" stop-color="#88D6FB" stop-opacity="0.18"/>
<stop offset="1" stop-color="#7CD2FC" stop-opacity="0"/>
</linearGradient>
<linearGradient id="paint9_linear_100_91" x1="186.047" y1="143.113" x2="150.12" y2="143.113" gradientUnits="userSpaceOnUse">
<stop offset="0.34" stop-color="#BFE9F7"/>
<stop offset="0.4" stop-color="#BDE8F7" stop-opacity="0.96"/>
<stop offset="0.49" stop-color="#B6E6F8" stop-opacity="0.86"/>
<stop offset="0.61" stop-color="#ABE2F9" stop-opacity="0.7"/>
<stop offset="0.75" stop-color="#9BDDFA" stop-opacity="0.47"/>
<stop offset="0.91" stop-color="#88D6FB" stop-opacity="0.18"/>
<stop offset="1" stop-color="#7CD2FC" stop-opacity="0"/>
</linearGradient>
<clipPath id="clip0_100_91">
<rect width="236" height="169" fill="white"/>
</clipPath>
</defs>
</svg>
