<svg width="285" height="204" viewBox="0 0 285 204" fill="none" xmlns="http://www.w3.org/2000/svg">
<g clip-path="url(#clip0_100_91)">
<path d="M171.036 181.848L0 0.0425415L13.4918 36.9407L163.908 181.848H171.036Z" fill="url(#paint0_linear_100_91)"/>
<path d="M18.9614 50.8116L154.117 181.848H146.988L29.3963 79.9389L18.9614 50.8116Z" fill="url(#paint1_linear_100_91)"/>
<path d="M33.8511 92.0297L137.568 181.848H130.439L42.7606 116.454L33.8511 92.0297Z" fill="url(#paint2_linear_100_91)"/>
<path d="M48.4856 131.595L55.742 151.572L113.708 181.848H120.837L48.4856 131.595Z" fill="url(#paint3_linear_100_91)"/>
<path d="M60.3245 163.657L103.711 181.848H67.0643L60.3245 163.657Z" fill="url(#paint4_linear_100_91)"/>
<path d="M113.964 181.848L285 0.0425415L271.508 36.9407L121.092 181.848H113.964Z" fill="url(#paint5_linear_100_91)"/>
<path d="M266.039 50.8116L130.883 181.848H138.012L255.604 79.9389L266.039 50.8116Z" fill="url(#paint6_linear_100_91)"/>
<path d="M251.155 92.0297L147.432 181.848H154.561L242.239 116.454L251.155 92.0297Z" fill="url(#paint7_linear_100_91)"/>
<path d="M236.514 131.595L229.264 151.572L171.292 181.848H164.163L236.514 131.595Z" fill="url(#paint8_linear_100_91)"/>
<path d="M224.682 163.657L181.289 181.848H217.936L224.682 163.657Z" fill="url(#paint9_linear_100_91)"/>
<path d="M60.4338 119.905L143.962 156.658L219.176 113.896L227.49 94.3689L204.681 76.1355L179.016 35.6344L137.653 39.0429L105.954 39.1097L97.4574 55.0161L103.225 85.2066L66.7908 80.3278L60.4338 119.905Z" fill="#2B9BE0"/>
<path d="M75.2018 181.842L9.60829 203.162L22.4742 181.501L2.13916 169.052L68.1277 145.405L75.2018 181.842Z" fill="#2B9BE0"/>
<path d="M209.5 181.842L275.094 203.162L262.228 181.501L282.563 169.052L216.575 145.405L209.5 181.842Z" fill="#2B9BE0"/>
<path d="M209.5 181.842L243.236 177.236C243.236 177.236 213.815 162.879 213.189 163.019C212.564 163.159 209.5 181.842 209.5 181.842Z" fill="#1388B7"/>
<path d="M75.2017 181.842L41.4661 177.236C41.4661 177.236 70.8868 162.879 71.5128 163.019C72.1387 163.159 75.2017 181.842 75.2017 181.842Z" fill="#1388B7"/>
<path d="M141.506 160.777C112.225 160.643 72.2238 167.266 41.4661 177.109L33.2859 134.274C64.8519 122.487 109.861 115.269 141.932 115.44C174.002 115.61 219.054 122.123 250.717 134.274L243.236 177.109C212.205 166.591 171.292 161.008 141.506 160.777Z" fill="#3BB5F2"/>
<path d="M209.039 147.325L210.692 145.618L208.382 145.041L207.726 142.756L206.073 144.47L203.769 143.892L204.426 146.177L202.773 147.884L205.082 148.461L205.732 150.746L207.385 149.039L209.695 149.61L209.039 147.325Z" fill="#E7F3F7"/>
<path d="M74.9465 147.325L73.2996 145.618L75.6029 145.041L76.2593 142.756L77.9123 144.47L80.2157 143.892L79.5593 146.177L81.2123 147.884L78.909 148.461L78.2526 150.746L76.5996 149.039L74.2963 149.61L74.9465 147.325Z" fill="#E7F3F7"/>
<path d="M62.8221 118.836C62.3897 118.834 61.9701 118.689 61.6283 118.425C61.2865 118.16 61.0418 117.79 60.932 117.372L59.2486 110.816C59.1193 110.314 59.1945 109.781 59.4577 109.335C59.7209 108.888 60.1506 108.564 60.6525 108.434L63.4602 107.729L59.2668 90.3345L58.5922 90.4986C58.4397 90.54 58.2823 90.5604 58.1243 90.5593C57.7689 90.5589 57.4203 90.4623 57.1154 90.2798C56.894 90.1466 56.7014 89.9705 56.549 89.7618C56.3966 89.5532 56.2875 89.3161 56.2281 89.0647L54.5994 82.5272C54.4743 82.0244 54.5538 81.4926 54.8204 81.0484C55.087 80.6042 55.5189 80.2839 56.0215 80.1576C62.9011 78.4442 66.2801 77.6908 73.2448 76.3238C74.3231 76.1035 75.4201 75.9875 76.5206 75.9775C84.1356 75.9775 86.2991 82.6608 87.4964 89.8181L91.0395 110.992C91.1238 111.504 91.0015 112.028 90.6996 112.449C90.3976 112.871 89.9406 113.155 89.429 113.24C85.9952 113.817 84.3179 114.115 80.9206 114.783C80.7965 114.808 80.6703 114.82 80.5438 114.82C80.1565 114.822 79.7777 114.707 79.456 114.492C79.0252 114.2 78.7262 113.75 78.6233 113.24L74.2719 91.0272C73.5487 87.3392 73.0139 87.3392 72.7586 87.3392C72.598 87.3412 72.4376 87.3534 72.2785 87.3756L77.7907 113.429C77.8442 113.679 77.8476 113.939 77.8007 114.191C77.7539 114.443 77.6577 114.684 77.5177 114.899C77.3776 115.114 77.1966 115.299 76.9848 115.444C76.773 115.589 76.5347 115.691 76.2835 115.743C71.0509 116.849 68.5105 117.445 63.3204 118.781C63.1575 118.822 62.9899 118.84 62.8221 118.836Z" fill="#F4DE40"/>
<path d="M76.5207 77.946C81.9904 77.946 84.2087 82.0047 85.57 90.1523C86.986 98.6219 87.6971 102.857 89.1131 111.326C85.6733 111.897 83.9534 112.207 80.5318 112.882C78.7937 103.993 77.9185 99.5515 76.1804 90.6626C75.3782 86.5615 74.5334 85.3949 72.7467 85.3949C72.2103 85.4099 71.6768 85.4791 71.1544 85.6015L69.9389 85.8567C72.3091 97.0422 73.4942 102.638 75.8583 113.805C70.6257 114.917 68.0185 115.525 62.8162 116.843C62.1477 114.218 61.8073 112.906 61.1388 110.287C63.0046 109.807 63.9405 109.576 65.8124 109.127L60.7073 87.9285L58.1184 88.5361L56.52 82.0654C63.3388 80.3642 66.7665 79.6351 73.6461 78.2559C74.6003 78.06 75.571 77.9562 76.5451 77.946M76.5451 74.0393C75.3199 74.0467 74.0985 74.1749 72.8986 74.4221C65.9825 75.777 62.4212 76.5668 55.578 78.2741C54.5731 78.5254 53.7088 79.1646 53.1746 80.0518C52.6403 80.939 52.4796 82.0017 52.7277 83.0071L53.2504 85.0911L54.3625 89.5508C54.559 90.3392 54.9966 91.0467 55.6142 91.5749C56.2318 92.1031 56.9988 92.4256 57.8084 92.4975L61.1084 106.326L60.1725 106.569C59.6747 106.696 59.2067 106.92 58.7955 107.227C58.3842 107.535 58.0377 107.921 57.7758 108.363C57.5138 108.805 57.3417 109.294 57.269 109.803C57.1964 110.311 57.2248 110.829 57.3526 111.326L57.9603 113.599L59.0604 117.852C59.279 118.69 59.769 119.432 60.4538 119.963C61.1387 120.494 61.98 120.783 62.8466 120.786C63.1745 120.786 63.501 120.745 63.819 120.665C68.9726 119.34 71.5008 118.751 76.7031 117.627C77.5347 117.453 78.2863 117.011 78.8423 116.369C79.3762 116.629 79.9623 116.764 80.5561 116.764C80.8091 116.764 81.0614 116.74 81.3097 116.691C84.707 116.029 86.3661 115.725 89.7816 115.154C90.8026 114.981 91.7136 114.411 92.3151 113.569C92.9165 112.726 93.1594 111.679 92.9905 110.658L90.5596 95.9971L89.4717 89.4839C88.633 84.4593 86.8827 74.015 76.5633 74.015L76.5451 74.0393Z" fill="#2B9BE0"/>
<path d="M94.6982 112.402C94.2295 112.404 93.7759 112.236 93.4208 111.93C93.0657 111.625 92.833 111.201 92.7656 110.737L87.5694 75.8135C87.4945 75.3005 87.6256 74.7787 87.9342 74.362C88.2428 73.9454 88.7038 73.6678 89.2164 73.5897C93.1303 72.9822 95.0386 72.7574 98.9403 72.2834H99.1773C99.6546 72.2844 100.115 72.4597 100.472 72.7763C100.829 73.093 101.058 73.5292 101.116 74.0029L105.322 109.06C105.353 109.315 105.334 109.573 105.265 109.82C105.196 110.067 105.078 110.299 104.92 110.5C104.761 110.702 104.564 110.87 104.34 110.995C104.115 111.12 103.869 111.2 103.614 111.229C100.113 111.654 98.4176 111.879 94.9596 112.396C94.8727 112.403 94.7854 112.405 94.6982 112.402Z" fill="#F4DE40"/>
<path d="M99.1955 74.2155C100.879 88.2384 101.724 95.2499 103.407 109.273C99.9188 109.692 98.1745 109.923 94.6983 110.445C92.6198 96.4711 91.5806 89.49 89.5082 75.5218C93.3795 74.9143 95.3121 74.6834 99.1955 74.2155ZM99.1955 70.3088C99.0377 70.3 98.8794 70.3 98.7215 70.3088C94.8259 70.7767 92.8082 71.044 88.9247 71.6212C87.8999 71.7758 86.978 72.3298 86.3607 73.1621C85.7434 73.9945 85.481 75.0373 85.6308 76.0626L88.0617 92.3456L90.833 110.986C90.9724 111.912 91.4389 112.757 92.1479 113.369C92.8569 113.981 93.7616 114.319 94.6983 114.322C94.8915 114.322 95.0846 114.308 95.2756 114.279C98.7276 113.769 100.417 113.538 103.881 113.125C104.391 113.064 104.885 112.903 105.332 112.651C105.78 112.399 106.174 112.062 106.491 111.658C106.809 111.254 107.043 110.791 107.181 110.296C107.319 109.802 107.359 109.284 107.297 108.775L105.188 91.2216L103.085 73.7234C102.972 72.7745 102.515 71.8998 101.801 71.265C101.086 70.6302 100.164 70.2792 99.2077 70.2784L99.1955 70.3088Z" fill="#2B9BE0"/>
<path d="M108.652 110.64C108.169 110.639 107.703 110.461 107.344 110.138C106.985 109.814 106.758 109.37 106.707 108.89L105.206 94.3081C104.665 89.01 106.61 85.1944 110.609 83.4142C108.591 80.273 107.181 78.1587 104.702 74.5254C104.511 74.2456 104.397 73.9212 104.37 73.5839C104.343 73.2467 104.404 72.9082 104.548 72.6017C104.691 72.2953 104.912 72.0314 105.188 71.8361C105.464 71.6407 105.787 71.5206 106.124 71.4875C109.825 71.1169 111.636 70.965 115.343 70.6916H115.471C115.8 70.6911 116.125 70.7739 116.413 70.9321C116.702 71.0904 116.947 71.319 117.124 71.5968C120.357 76.7126 122.296 79.8781 124.733 84.0886L124.234 72.1133C124.223 71.8566 124.262 71.6002 124.35 71.3588C124.438 71.1175 124.573 70.8958 124.747 70.7067C124.921 70.5176 125.131 70.3646 125.364 70.2567C125.597 70.1488 125.849 70.0881 126.106 70.0779C129.753 69.926 131.576 69.8713 135.283 69.8167C135.791 69.8162 136.278 70.0121 136.644 70.3635C137.018 70.7245 137.236 71.2172 137.252 71.7366L137.441 84.1555C137.507 88.4814 136.833 93.5182 131.254 95.6994C133.332 99.4056 134.639 101.848 136.875 106.174C137.029 106.469 137.104 106.799 137.094 107.131C137.085 107.463 136.99 107.788 136.819 108.073C136.649 108.359 136.408 108.596 136.12 108.762C135.832 108.929 135.506 109.019 135.174 109.024C131.849 109.084 130.227 109.133 126.884 109.285H126.799C126.445 109.285 126.097 109.189 125.793 109.007C125.489 108.825 125.24 108.564 125.073 108.252C122.241 102.924 120.406 99.6426 117.902 95.3896L118.85 107.784C118.887 108.305 118.715 108.818 118.373 109.212C118.031 109.607 117.547 109.849 117.027 109.886C113.702 110.135 112.086 110.281 108.81 110.622L108.652 110.64Z" fill="#F4DE40"/>
<path d="M135.326 71.7731C135.405 76.743 135.441 79.228 135.52 84.1919C135.605 89.8971 134.086 93.415 128.373 94.5207C131.193 99.5211 132.554 102.036 135.174 107.091C131.831 107.146 130.166 107.201 126.829 107.347C122.952 100.11 120.904 96.5136 116.613 89.4049C115.604 89.5629 115.586 90.4864 115.75 92.6494C116.218 98.7677 116.449 101.83 116.917 107.948C113.611 108.197 111.958 108.349 108.652 108.689C108.044 102.863 107.752 99.9464 107.151 94.1076C106.701 89.7027 108.153 85.5408 113.641 84.5382C110.797 80.0604 109.333 77.8549 106.318 73.4257C109.965 73.0611 111.788 72.9032 115.483 72.6358C119.737 79.386 121.791 82.7945 125.681 89.648C126.811 89.4596 126.896 88.5665 126.769 85.644C126.538 80.1759 126.428 77.4661 126.197 72.01C129.844 71.8581 131.667 71.8095 135.313 71.7488M135.313 67.842H135.253C131.606 67.9028 129.686 67.9575 126.021 68.1094C124.986 68.1536 124.011 68.6063 123.309 69.3682C122.607 70.1301 122.236 71.1391 122.277 72.1741L122.46 76.4271C121.372 74.6591 120.193 72.7816 118.777 70.5336C118.425 69.9753 117.937 69.5153 117.359 69.1966C116.78 68.8779 116.131 68.7107 115.471 68.7109H115.185C111.502 68.9782 109.6 69.1423 105.917 69.5068C105.245 69.5764 104.603 69.8187 104.052 70.21C103.502 70.6014 103.062 71.1286 102.775 71.7402C102.489 72.3519 102.366 73.0272 102.418 73.7005C102.47 74.3738 102.696 75.0222 103.073 75.5826C105.066 78.4989 106.361 80.4432 107.844 82.7094C104.422 85.1398 102.72 89.2956 103.249 94.46V94.6058L104.732 109.03C104.833 109.991 105.286 110.881 106.004 111.529C106.722 112.176 107.654 112.535 108.621 112.535C108.755 112.535 108.889 112.535 109.023 112.535C112.298 112.195 113.884 112.055 117.185 111.8C118.218 111.721 119.178 111.235 119.854 110.449C120.529 109.663 120.865 108.641 120.788 107.608L120.503 103.89C121.366 105.463 122.29 107.17 123.353 109.151C123.686 109.776 124.183 110.298 124.79 110.662C125.397 111.025 126.091 111.217 126.799 111.217H127.018C130.33 111.071 131.947 111.023 135.259 110.962C135.923 110.949 136.574 110.767 137.149 110.433C137.724 110.099 138.204 109.625 138.545 109.054C138.885 108.483 139.075 107.835 139.095 107.17C139.116 106.506 138.967 105.847 138.662 105.257C136.839 101.684 135.563 99.3267 134.001 96.5075C139.586 93.0504 139.47 86.5433 139.47 84.0947L139.397 79.3738L139.233 71.6941C139.219 70.668 138.801 69.6889 138.069 68.9691C137.338 68.2492 136.352 67.8464 135.326 67.8481L135.313 67.842Z" fill="#2B9BE0"/>
<path d="M164.327 109.886C159.337 109.51 156.894 109.37 151.874 109.194C151.357 109.173 150.868 108.949 150.516 108.57C150.163 108.191 149.974 107.688 149.99 107.17L150.069 105.044C149.942 105.816 149.808 106.612 149.674 107.432C149.601 107.889 149.366 108.306 149.013 108.607C148.66 108.907 148.211 109.072 147.748 109.072H147.681C145.11 109.011 143.5 108.993 141.409 108.993H139.069C138.789 108.993 138.512 108.934 138.258 108.817C138.003 108.701 137.776 108.532 137.593 108.32C137.41 108.109 137.274 107.86 137.195 107.591C137.116 107.323 137.096 107.04 137.137 106.763C138.644 96.0579 139.495 90.45 141.166 80.4189H140.273C139.755 80.4173 139.259 80.2115 138.893 79.8463C138.526 79.481 138.319 78.9859 138.316 78.4686V71.7366C138.315 71.48 138.365 71.2257 138.462 70.9884C138.56 70.7511 138.704 70.5353 138.885 70.3536C139.066 70.1718 139.281 70.0276 139.518 69.9293C139.756 69.8309 140.01 69.7802 140.266 69.7802H141.33C146.63 69.7802 149.65 69.841 155.405 70.084C160.085 70.2784 163.221 71.4511 165.263 73.7659C167.694 76.5365 168.532 80.8989 167.943 87.9164L166.411 108.082C166.378 108.575 166.158 109.037 165.798 109.375C165.437 109.714 164.961 109.903 164.467 109.905L164.327 109.886ZM154.378 80.7227C153.011 87.9225 152.123 92.8195 151.102 98.8224C151.421 98.6056 151.799 98.4912 152.184 98.4943L154.214 98.5672L154.907 84.1069C154.998 82.1809 154.907 81.069 154.712 80.8442C154.605 80.7892 154.487 80.7581 154.366 80.7531L154.378 80.7227Z" fill="#F4DE40"/>
<path d="M141.306 71.7305C146.666 71.7305 149.668 71.7974 155.338 72.0343C164.145 72.4049 166.971 76.2873 166.01 87.7523C165.403 95.827 165.087 99.8613 164.479 107.936C159.471 107.559 156.961 107.42 151.947 107.237C152.038 104.534 152.087 103.179 152.184 100.475C153.74 100.53 154.518 100.566 156.074 100.639C156.384 94.0772 156.542 90.7963 156.858 84.2345C157.04 80.4553 156.809 78.8392 153.704 78.7237L152.78 78.6873C150.616 90.049 149.614 95.7359 147.748 107.122C145.153 107.067 143.53 107.043 141.427 107.043H139.087C140.698 95.6083 141.579 89.8971 143.488 78.4868H141.02H140.291C140.291 75.7952 140.291 74.4464 140.291 71.7487H141.318M141.318 67.842H140.285C139.249 67.8453 138.256 68.2589 137.525 68.9924C136.794 69.7258 136.383 70.7192 136.383 71.7548V78.4868C136.383 79.0005 136.484 79.5093 136.681 79.9838C136.878 80.4582 137.167 80.889 137.532 81.2512C137.923 81.6479 138.396 81.9548 138.917 82.1505C137.465 90.9603 136.626 96.5197 135.216 106.52C135.14 107.074 135.183 107.637 135.342 108.172C135.502 108.707 135.774 109.202 136.141 109.624C136.508 110.045 136.96 110.383 137.469 110.615C137.977 110.847 138.529 110.967 139.087 110.968H141.427C143.421 110.968 144.995 110.968 147.657 111.047H147.748C148.452 111.047 149.143 110.856 149.747 110.494C150.358 110.905 151.072 111.137 151.807 111.162C156.785 111.338 159.21 111.478 164.181 111.855H164.479C165.469 111.853 166.422 111.475 167.144 110.799C167.867 110.122 168.307 109.197 168.374 108.209L169.657 91.2945L169.906 88.0257C170.514 80.4614 169.566 75.6494 166.74 72.4475C163.561 68.8445 158.803 68.243 155.503 68.1094C149.717 67.8663 146.666 67.7995 141.306 67.7995L141.318 67.842Z" fill="#2B9BE0"/>
<path d="M190.831 113.009C190.728 113.018 190.624 113.018 190.521 113.009C182.189 111.66 178.105 111.144 169.693 110.36C169.437 110.337 169.188 110.263 168.961 110.143C168.734 110.022 168.532 109.859 168.369 109.66C168.205 109.462 168.082 109.234 168.007 108.988C167.932 108.742 167.906 108.484 167.931 108.228L168.539 101.496C168.584 101.011 168.808 100.561 169.168 100.233C169.528 99.9047 169.997 99.7225 170.483 99.7216H170.666C173.34 99.9707 175.054 100.147 177.163 100.39C174.209 90.2677 172.301 84.4896 168.326 73.6565C168.22 73.3623 168.187 73.047 168.228 72.7371C168.269 72.4272 168.383 72.1315 168.561 71.8747C168.74 71.618 168.977 71.4075 169.253 71.2609C169.529 71.1142 169.837 71.0357 170.149 71.0318H170.313C174.446 71.3842 176.458 71.5847 180.56 72.0525C180.932 72.0942 181.285 72.2425 181.575 72.4797C181.865 72.7168 182.08 73.0326 182.195 73.3892C183.641 77.8124 184.522 80.6072 185.58 84.1555L186.88 74.7988C186.946 74.3328 187.178 73.9061 187.533 73.597C187.888 73.2878 188.342 73.117 188.813 73.1158C188.904 73.1097 188.995 73.1097 189.086 73.1158C192.921 73.6505 194.793 73.936 198.628 74.574C199.138 74.6632 199.593 74.9498 199.893 75.3717C200.193 75.7937 200.315 76.3169 200.232 76.8281L198.409 87.5943C197.121 95.2741 192.709 97.3156 189.409 97.7713C190.667 102.371 191.414 105.323 192.678 110.597C192.753 110.886 192.76 111.188 192.699 111.48C192.638 111.772 192.511 112.047 192.327 112.282C192.143 112.516 191.907 112.706 191.638 112.835C191.369 112.965 191.074 113.03 190.776 113.028L190.831 113.009Z" fill="#F4DE40"/>
<path d="M170.167 72.976C174.245 73.3223 176.281 73.5228 180.353 73.9907C182.34 80.0664 183.276 83.1043 185.039 89.2166C185.175 89.2467 185.313 89.2629 185.452 89.2652C186.71 89.2652 187.069 87.7645 187.275 86.288C187.883 81.798 188.211 79.55 188.837 75.06C192.636 75.5886 194.532 75.8802 198.318 76.5182C198.318 76.5182 197.917 78.9485 196.495 87.2845C195.498 93.2266 192.392 95.9242 187.907 95.9242C187.56 95.9258 187.213 95.9096 186.868 95.8756C188.552 101.951 189.336 104.989 190.788 111.065C182.438 109.71 178.238 109.175 169.833 108.392C170.082 105.7 170.21 104.351 170.441 101.654C174.197 102.006 176.075 102.207 179.818 102.668C176.379 90.7476 174.44 84.7995 170.094 72.976M170.094 69.0632C169.468 69.0683 168.852 69.2237 168.298 69.5161C167.744 69.8086 167.269 70.2297 166.912 70.7441C166.554 71.2584 166.326 71.8509 166.245 72.4719C166.164 73.0929 166.234 73.7242 166.448 74.3127C170.009 84.0339 171.918 89.6965 174.415 98.1176C173.34 98.0021 172.197 97.8928 170.806 97.7652C170.684 97.7652 170.562 97.7652 170.441 97.7652C169.467 97.7656 168.528 98.1297 167.809 98.786C167.089 99.4424 166.641 100.344 166.551 101.313L165.944 108.051C165.851 109.083 166.17 110.109 166.831 110.906C167.493 111.703 168.443 112.206 169.475 112.304C177.831 113.082 181.891 113.599 190.174 114.941C190.375 114.972 190.578 114.988 190.782 114.99C191.372 114.989 191.954 114.854 192.485 114.596C193.016 114.337 193.481 113.963 193.847 113.499C194.212 113.036 194.468 112.496 194.595 111.92C194.722 111.343 194.717 110.746 194.58 110.172C193.517 105.73 192.794 102.851 191.833 99.272C196.318 97.8624 199.339 93.9071 200.342 87.9467L202.165 77.1805C202.336 76.1582 202.094 75.11 201.492 74.2659C200.89 73.4218 199.978 72.8509 198.956 72.6783C195.152 72.0707 193.183 71.7426 189.36 71.208C189.183 71.1838 189.004 71.1716 188.825 71.1715C187.881 71.1702 186.968 71.5111 186.256 72.1312C185.544 72.7513 185.082 73.6084 184.954 74.5436L184.856 75.2423C184.607 74.4707 184.34 73.6626 184.06 72.812C183.827 72.0999 183.395 71.4697 182.814 70.9959C182.233 70.5221 181.529 70.2246 180.785 70.1386C176.701 69.6769 174.58 69.4642 170.483 69.1179C170.374 69.1119 170.265 69.1119 170.155 69.1179L170.094 69.0632Z" fill="#2B9BE0"/>
<path d="M196.422 115.33C195.967 115.329 195.526 115.17 195.176 114.881C194.975 114.715 194.81 114.511 194.69 114.28C194.57 114.05 194.497 113.797 194.477 113.538C194.252 110.846 194.137 109.498 193.869 106.806C193.846 106.55 193.873 106.292 193.95 106.046C194.026 105.8 194.151 105.572 194.315 105.375C194.48 105.177 194.682 105.014 194.91 104.895C195.138 104.776 195.388 104.702 195.644 104.679L198.488 104.436C199.308 93.8889 199.703 88.1959 200.342 77.0954C200.375 76.6011 200.596 76.1381 200.958 75.7998C201.32 75.4614 201.797 75.2731 202.292 75.2727C202.409 75.2738 202.524 75.2839 202.639 75.3031C206.528 76.0018 208.418 76.3663 212.284 77.1744C212.753 77.2724 213.17 77.5396 213.454 77.9251C213.739 78.3106 213.872 78.7874 213.827 79.2645C213.135 86.8896 212.673 91.7623 212.047 97.7348L216.082 79.9814C216.18 79.5501 216.422 79.1649 216.767 78.8889C217.113 78.6129 217.542 78.4626 217.984 78.4625C218.132 78.4606 218.279 78.4769 218.422 78.5111C222.257 79.3799 224.129 79.8356 227.957 80.8138C228.206 80.8776 228.44 80.9898 228.646 81.144C228.852 81.2982 229.025 81.4914 229.156 81.7126C229.287 81.9338 229.373 82.1786 229.409 82.433C229.445 82.6875 229.431 82.9466 229.367 83.1955L224.992 100.238C222.482 110.014 220.166 114.06 207.148 114.656C200.39 114.966 196.64 115.342 196.604 115.348L196.422 115.33Z" fill="#F4DE40"/>
<path d="M202.311 77.2048C206.152 77.8913 208.072 78.262 211.901 79.064C210.922 89.8059 210.388 95.1647 209.227 105.882C211.658 105.731 212.375 105.184 213.323 101.022L218.003 80.4128C221.807 81.2816 223.709 81.7373 227.496 82.7094C225.739 89.5264 224.864 92.9349 223.114 99.7216C220.78 108.835 219.139 112.116 207.075 112.675C200.172 112.991 196.422 113.374 196.422 113.374C196.203 110.67 196.087 109.321 195.814 106.618C197.607 106.46 198.506 106.387 200.311 106.253C201.217 94.6422 201.612 88.8338 202.293 77.1987M202.293 73.292C201.301 73.2913 200.346 73.6675 199.622 74.3444C198.897 75.0214 198.457 75.9483 198.391 76.9374C197.783 87.4364 197.4 93.0929 196.671 102.589L195.455 102.699C194.943 102.744 194.445 102.891 193.989 103.13C193.534 103.368 193.13 103.695 192.801 104.09C192.471 104.485 192.223 104.941 192.071 105.432C191.919 105.923 191.865 106.44 191.912 106.952C192.161 109.637 192.277 110.974 192.52 113.635C192.592 114.62 193.035 115.542 193.758 116.215C194.482 116.888 195.433 117.262 196.422 117.262C196.555 117.262 196.689 117.262 196.817 117.262C196.853 117.262 200.567 116.886 207.258 116.576C221.455 115.926 224.275 110.998 226.9 100.694L231.282 83.6512C231.41 83.1541 231.438 82.6367 231.366 82.1285C231.294 81.6204 231.122 81.1314 230.861 80.6896C230.6 80.2478 230.254 79.8618 229.843 79.5537C229.433 79.2456 228.965 79.0213 228.468 78.8938C224.67 77.9156 222.694 77.4417 218.872 76.5729C218.275 76.4372 217.654 76.4435 217.06 76.5912C216.465 76.7389 215.914 77.024 215.45 77.4235C215.196 76.8675 214.814 76.3792 214.336 75.9982C213.857 75.6172 213.296 75.354 212.697 75.2301C208.856 74.4281 206.863 74.015 202.973 73.3527C202.747 73.3112 202.517 73.2908 202.286 73.292H202.293Z" fill="#2B9BE0"/>
<path d="M78.6052 58.4793C78.1707 58.4794 77.7485 58.335 77.4052 58.0687C77.0619 57.8025 76.817 57.4297 76.709 57.0089L71.8471 37.9978C71.7823 37.7493 71.7671 37.4904 71.8027 37.236C71.8382 36.9816 71.9236 36.7367 72.0541 36.5154C72.1845 36.2941 72.3574 36.1007 72.5628 35.9464C72.7682 35.7921 73.0021 35.6798 73.251 35.6161C77.2742 34.5833 79.3649 34.0911 83.4367 33.1858C83.9436 33.0757 84.4735 33.1712 84.91 33.4515C85.3465 33.7317 85.6538 34.1738 85.7644 34.6805L89.9213 53.8678C89.9767 54.1187 89.9819 54.3782 89.9367 54.6312C89.8915 54.8842 89.7967 55.1258 89.6577 55.342C89.5188 55.5583 89.3385 55.7449 89.1271 55.8913C88.9158 56.0376 88.6776 56.1408 88.4263 56.1948C84.6704 57.0089 82.8411 57.4099 79.1096 58.4003C78.945 58.4455 78.7758 58.472 78.6052 58.4793Z" fill="#F4DE40"/>
<path d="M83.8681 35.1179C85.5273 42.7916 86.3599 46.6254 88.0251 54.2991C84.2571 55.1194 82.3792 55.5629 78.6355 56.5229C76.6786 48.916 75.7062 45.1126 73.7736 37.5118C77.809 36.4728 79.851 35.9928 83.8924 35.1179M83.8924 31.2051C83.6124 31.2051 83.3332 31.2356 83.0598 31.2963C78.9697 32.1833 76.8609 32.6815 72.8012 33.7266C71.7977 33.9855 70.9379 34.6318 70.4104 35.5236C69.8829 36.4155 69.7308 37.4801 69.9873 38.4839L73.573 52.4582L74.8736 57.5132C75.0865 58.3547 75.575 59.1007 76.2611 59.6325C76.9472 60.1643 77.7916 60.4513 78.6598 60.4478C78.9878 60.4494 79.3146 60.4085 79.6322 60.3263C83.2604 59.3603 85.0836 58.935 88.8212 58.1208C89.3241 58.0127 89.8006 57.8065 90.2235 57.5139C90.6465 57.2213 91.0075 56.8481 91.2858 56.4157C91.5642 55.9833 91.7544 55.5002 91.8457 54.9942C91.9369 54.4881 91.9273 53.9691 91.8174 53.4668L90.8085 48.8188L87.6543 34.2795C87.4645 33.4142 86.9866 32.639 86.2989 32.0805C85.6111 31.5221 84.7541 31.2135 83.8681 31.2051H83.8924Z" fill="#2B9BE0"/>
<path d="M96.5152 71.8703C96.1507 71.8718 95.7931 71.7706 95.4835 71.5783C95.174 71.3859 94.9249 71.1102 94.7649 70.7827C93.5494 68.3524 92.9417 67.1373 91.7262 64.7434C91.6057 64.5132 91.5333 64.2609 91.5134 64.0019C91.4936 63.7428 91.5267 63.4825 91.6107 63.2366C91.6918 62.9901 91.8212 62.7621 91.9912 62.566C92.1613 62.3699 92.3687 62.2096 92.6014 62.0944C93.6953 61.5597 94.4246 61.2012 95.2937 60.8002C92.2185 50.6962 90.4804 45.2584 86.9676 34.6744C86.8815 34.4112 86.8521 34.1327 86.8813 33.8572C86.9106 33.5818 86.9978 33.3157 87.1373 33.0763C87.2768 32.837 87.4654 32.6299 87.6907 32.4687C87.916 32.3075 88.1728 32.1957 88.4444 32.1408C92.5041 31.3388 94.613 30.9682 98.6909 30.3181C98.7921 30.3123 98.8936 30.3123 98.9948 30.3181C99.4206 30.3188 99.8346 30.4578 100.174 30.7142C100.514 30.9707 100.761 31.3307 100.879 31.7398C103.121 39.5897 104.471 44.4321 106.154 50.7874L103.571 31.594C103.504 31.0794 103.643 30.559 103.959 30.1468C104.274 29.7346 104.74 29.4641 105.255 29.3946C109.326 28.8478 111.435 28.6047 115.531 28.1794H115.72C116.206 28.1802 116.674 28.3616 117.033 28.6884C117.393 29.0152 117.618 29.464 117.665 29.9475L119.348 47.4639C120.308 57.4343 119.482 62.0093 107.224 67.198C100.867 69.8896 97.4329 71.6273 97.4025 71.6455C97.1283 71.7884 96.8244 71.8654 96.5152 71.8703Z" fill="#F4DE40"/>
<path d="M115.72 30.148C116.394 37.1533 116.729 40.6591 117.403 47.6644C118.303 57.0029 117.841 60.5936 106.464 65.4117C99.955 68.1641 96.5152 69.9139 96.5152 69.9139C95.2997 67.4836 94.692 66.2684 93.4765 63.8381C95.1417 63.024 95.9804 62.623 97.6638 61.8392C94.2848 50.6962 92.5163 45.143 88.8394 34.0729C92.8931 33.2709 94.9168 32.9064 99.0069 32.2502C101.979 42.6276 103.401 47.8285 106.117 58.2606C108.427 57.2459 108.907 56.4925 108.342 52.2395C107.218 43.861 106.652 39.6748 105.528 31.2963C109.606 30.7495 111.648 30.5125 115.738 30.1237M115.738 26.2109C115.61 26.2109 115.489 26.2109 115.361 26.2109C111.241 26.6119 109.114 26.8549 105.03 27.426C104.001 27.5664 103.071 28.1082 102.441 28.9328C102.259 29.169 102.106 29.426 101.985 29.6984C101.618 29.2753 101.164 28.936 100.655 28.7033C100.145 28.4706 99.5914 28.35 99.0312 28.3495C98.8276 28.3483 98.6243 28.3646 98.4235 28.3982C94.3152 29.0483 92.1942 29.425 88.0919 30.2209C87.5394 30.3215 87.015 30.5397 86.5543 30.8609C86.0936 31.1821 85.7075 31.5986 85.4221 32.0821C85.1367 32.5657 84.9588 33.105 84.9004 33.6634C84.842 34.2219 84.9045 34.7863 85.0836 35.3185C88.3958 45.2827 90.1278 50.678 92.8991 59.7613L91.6837 60.3688C91.2169 60.5968 90.8003 60.9155 90.4582 61.3063C90.1161 61.6971 89.8553 62.1522 89.6912 62.645C89.5271 63.1377 89.463 63.6582 89.5024 64.1761C89.5419 64.6939 89.6843 65.1987 89.9212 65.6608C91.1367 68.0911 91.7444 69.2455 92.9599 71.6758C93.2843 72.3285 93.7843 72.8779 94.4038 73.2621C95.0232 73.6463 95.7376 73.8503 96.4666 73.851C97.0832 73.8494 97.6909 73.7037 98.2412 73.4257C98.2716 73.4257 101.663 71.688 107.965 69.0329C121.299 63.3885 122.283 57.8231 121.268 47.312L120.606 40.4221L119.609 29.7713C119.517 28.8038 119.068 27.9054 118.348 27.2516C117.629 26.5977 116.692 26.2353 115.72 26.2352L115.738 26.2109Z" fill="#2B9BE0"/>
<path d="M124.222 66.8334C123.727 66.833 123.25 66.6447 122.888 66.3064C122.526 65.9681 122.305 65.505 122.271 65.0107L119.646 29.7712C119.628 29.5139 119.661 29.2555 119.742 29.0108C119.824 28.7661 119.953 28.5399 120.123 28.3452C120.292 28.1505 120.498 27.9911 120.729 27.8761C120.96 27.7611 121.212 27.6928 121.469 27.6751C125.584 27.3713 127.723 27.2498 131.856 27.0979H131.928C132.434 27.0976 132.921 27.2939 133.285 27.6453C133.649 27.9967 133.862 28.4758 133.879 28.9814L135.18 64.2634C135.19 64.52 135.149 64.7761 135.059 65.0168C134.97 65.2576 134.833 65.4783 134.658 65.6663C134.483 65.8543 134.273 66.0059 134.039 66.1123C133.805 66.2188 133.553 66.278 133.296 66.2866C129.71 66.4203 127.96 66.5175 124.386 66.7848L124.222 66.8334Z" fill="#F4DE40"/>
<path d="M131.91 29.0725C132.427 43.1865 132.688 50.2405 133.205 64.3545C129.607 64.4882 127.814 64.5854 124.222 64.8527C123.171 50.7691 122.648 43.7273 121.597 29.6436C125.717 29.3399 127.784 29.2244 131.928 29.0725M131.928 25.1597H131.782C127.625 25.3116 125.474 25.4331 121.323 25.7673C120.29 25.845 119.329 26.3294 118.652 27.1142C117.976 27.899 117.638 28.9201 117.713 29.9535L119.366 52.124L120.339 65.1626C120.406 66.1512 120.847 67.0773 121.571 67.7539C122.295 68.4306 123.249 68.8073 124.24 68.808H124.526C128.075 68.5407 129.813 68.4435 133.369 68.3159C133.882 68.2979 134.387 68.1787 134.854 67.965C135.322 67.7514 135.742 67.4476 136.092 67.071C136.441 66.6945 136.713 66.2526 136.891 65.7708C137.07 65.289 137.151 64.7767 137.131 64.2634L136.657 51.3767L135.836 28.9814C135.798 27.9702 135.37 27.0129 134.642 26.3105C133.913 25.6081 132.94 25.2153 131.928 25.2144V25.1597Z" fill="#2B9BE0"/>
<path d="M155.381 66.5236C151.808 66.3231 150.057 66.2563 146.466 66.1894C146.209 66.1847 145.955 66.1294 145.719 66.0267C145.484 65.9239 145.271 65.7758 145.092 65.5907C144.914 65.4057 144.774 65.1873 144.68 64.9481C144.586 64.7089 144.54 64.4535 144.545 64.1966L144.928 43.8185V42.9679C144.977 41.0601 145.031 39.0854 144.235 38.2652C143.791 37.8095 142.947 37.5786 141.713 37.5786C139.75 37.5786 138.772 37.5787 136.821 37.6273H136.778C136.267 37.6273 135.776 37.4269 135.411 37.069C135.047 36.7111 134.837 36.2243 134.827 35.7134L134.694 28.9754C134.686 28.4577 134.882 27.9578 135.241 27.584C135.418 27.397 135.631 27.2471 135.866 27.1428C136.102 27.0385 136.356 26.982 136.614 26.9764C138.644 26.94 140.072 26.9218 141.616 26.9218C142.661 26.9218 143.761 26.9218 145.141 26.9218C150.003 26.9764 153.461 28.1369 155.661 30.5125C158.876 33.9453 158.863 39.1523 158.553 44.6387L157.417 64.6523C157.383 65.1466 157.163 65.6096 156.801 65.948C156.439 66.2863 155.962 66.4746 155.466 66.475L155.381 66.5236Z" fill="#F4DE40"/>
<path d="M141.652 28.8781C142.685 28.8781 143.779 28.8781 145.141 28.8781C156.596 29.0118 157.131 35.5614 156.621 44.5354C156.171 52.5371 155.946 56.5411 155.49 64.5489C151.899 64.3484 150.1 64.2816 146.502 64.2087C146.654 56.0611 146.733 51.9842 146.885 43.8306C146.958 39.9664 147.523 35.5979 141.737 35.5979C139.768 35.5979 138.784 35.5979 136.815 35.6526C136.766 32.9549 136.736 31.6061 136.687 28.9146C138.711 28.872 140.127 28.8538 141.664 28.8538M141.664 24.9471C140.187 24.9471 138.765 24.9471 136.608 25.0078C136.095 25.0173 135.589 25.1278 135.119 25.3331C134.649 25.5383 134.224 25.8342 133.868 26.2038C133.512 26.5735 133.233 27.0096 133.046 27.4872C132.859 27.9649 132.769 28.4747 132.779 28.9875L132.828 31.6851L132.907 35.7255C132.927 36.7484 133.348 37.7226 134.078 38.4392C134.809 39.1558 135.791 39.5579 136.815 39.5593H136.894C138.838 39.5228 139.792 39.5107 141.755 39.5107C142.132 39.498 142.509 39.5389 142.874 39.6322C143.092 40.2398 143.05 41.8802 143.02 42.8888V43.7577L142.947 47.5793L142.631 64.1358C142.621 64.6496 142.713 65.1604 142.9 65.6388C143.088 66.1172 143.369 66.554 143.725 66.9241C144.082 67.2942 144.508 67.5905 144.979 67.7959C145.45 68.0014 145.958 68.112 146.472 68.1215C150.027 68.1883 151.759 68.2491 155.314 68.4496H155.533C156.532 68.4525 157.495 68.0714 158.221 67.385C158.947 66.6985 159.382 65.7593 159.435 64.7616L160.364 48.357L160.571 44.7602C160.893 39.0732 160.893 33.1858 157.156 29.188C154.567 26.4174 150.665 25.0382 145.226 24.9775C143.846 24.9775 142.746 24.9775 141.695 24.9775L141.664 24.9471Z" fill="#2B9BE0"/>
<path d="M171.146 52.1422H170.921C167.129 51.7048 165.269 51.5346 161.44 51.2309C161.183 51.2139 160.931 51.1461 160.699 51.0314C160.468 50.9167 160.262 50.7573 160.092 50.5624C159.923 50.3676 159.793 50.1411 159.712 49.896C159.63 49.651 159.598 49.3922 159.617 49.1347L161.13 29.5586C161.15 29.3033 161.219 29.0544 161.335 28.826C161.451 28.5977 161.61 28.3945 161.805 28.228C162.161 27.9238 162.613 27.7559 163.081 27.7541H163.227C167.36 28.0761 169.493 28.2827 173.589 28.7505C174.106 28.8106 174.578 29.0728 174.902 29.4796C175.061 29.6801 175.178 29.9099 175.248 30.156C175.318 30.402 175.339 30.6595 175.309 30.9135L173.091 50.4289C173.037 50.9063 172.809 51.347 172.45 51.6666C172.091 51.9861 171.627 52.162 171.146 52.1604V52.1422Z" fill="#F4DE40"/>
<path d="M163.105 29.6983C167.226 30.0143 169.28 30.2148 173.394 30.6887L171.146 50.1858C167.329 49.7484 165.421 49.5783 161.592 49.2684C162.2 41.4428 162.498 37.53 163.105 29.6983ZM163.105 25.7916C162.124 25.7978 161.181 26.1722 160.463 26.8406C159.745 27.509 159.304 28.4227 159.228 29.4006L157.933 46.2184L157.721 48.9707C157.681 49.4826 157.742 49.9973 157.902 50.4855C158.061 50.9736 158.315 51.4255 158.649 51.8155C158.983 52.2054 159.391 52.5256 159.849 52.7579C160.307 52.9901 160.806 53.1299 161.319 53.169C165.105 53.4607 166.952 53.6369 170.72 54.0743C170.872 54.0743 171.024 54.0743 171.176 54.0743C172.134 54.0717 173.059 53.7177 173.773 53.0794C174.488 52.4411 174.943 51.5629 175.054 50.6111L175.284 48.6001L177.302 31.1079C177.357 30.5963 177.31 30.0789 177.164 29.5854C177.018 29.0919 176.776 28.6322 176.452 28.2324C176.128 27.8327 175.728 27.501 175.275 27.2562C174.822 27.0115 174.326 26.8586 173.814 26.8063C169.687 26.3263 167.542 26.1197 163.379 25.8038C163.28 25.7977 163.18 25.7977 163.081 25.8038L163.105 25.7916Z" fill="#2B9BE0"/>
<path d="M200.779 73.4803C200.617 73.4815 200.456 73.4611 200.299 73.4196C196.969 72.575 195.334 72.2044 191.973 71.4692C191.617 71.3914 191.29 71.216 191.028 70.9628C190.766 70.7095 190.58 70.3884 190.49 70.0354C188.959 63.9596 187.944 60.2655 186.418 55.3867L184.267 67.9514C184.225 68.2044 184.133 68.4465 183.996 68.6635C183.86 68.8806 183.681 69.0681 183.471 69.2151C183.14 69.449 182.745 69.5743 182.34 69.5736C182.23 69.5725 182.121 69.5624 182.012 69.5432C178.664 68.9721 177.023 68.723 173.65 68.2673C173.136 68.1979 172.67 67.9272 172.356 67.5147C172.041 67.1023 171.903 66.5819 171.972 66.0679L173.929 51.5529C174.64 46.273 177.576 42.98 182.043 42.2752C180.766 38.7634 179.836 36.3695 178.165 32.2623C178.044 31.9645 177.999 31.6416 178.033 31.3221C178.066 31.0025 178.178 30.6962 178.358 30.4301C178.539 30.1641 178.782 29.9465 179.066 29.7966C179.35 29.6467 179.667 29.5692 179.988 29.5708C180.077 29.5647 180.167 29.5647 180.256 29.5708C184.127 30.1115 186.12 30.4274 189.98 31.1018C190.314 31.1713 190.624 31.3266 190.88 31.5525C191.136 31.7783 191.328 32.067 191.438 32.3899C193.529 38.2713 194.763 41.9653 196.233 46.8928L198.877 34.8384C198.973 34.4038 199.215 34.0149 199.562 33.7356C199.908 33.4563 200.34 33.3031 200.785 33.3013C200.926 33.3025 201.067 33.3187 201.205 33.3499C205.009 34.1823 206.966 34.6501 210.734 35.6161C210.983 35.6799 211.217 35.7921 211.423 35.9463C211.628 36.1005 211.802 36.2938 211.933 36.5149C212.064 36.7361 212.15 36.9809 212.186 37.2354C212.222 37.4898 212.208 37.7489 212.144 37.9978L209.063 50.0218C207.999 54.1655 205.975 58.8803 199.789 59.5C200.907 63.589 201.612 66.3838 202.675 71.0926C202.741 71.3785 202.742 71.6755 202.677 71.9617C202.612 72.2478 202.483 72.5155 202.3 72.745C202.117 72.9745 201.885 73.1598 201.621 73.2872C201.356 73.4145 201.067 73.4805 200.773 73.4803H200.779Z" fill="#F4DE40"/>
<path d="M179.976 31.5272C183.836 32.0618 185.768 32.3717 189.615 33.0461C192.332 40.6712 193.559 44.4989 195.753 52.1665H195.948C196.975 52.1665 197.291 51.2673 197.88 48.5697C199.047 43.2412 199.637 40.574 200.804 35.2455C204.602 36.0779 206.492 36.5275 210.266 37.4996C209.051 42.3056 208.413 44.7116 207.179 49.5236C205.854 54.6819 203.593 57.6104 198.391 57.6104C198.014 57.6104 197.631 57.6104 197.23 57.5679C198.792 63.1455 199.497 65.9403 200.779 71.5422C197.431 70.6976 195.753 70.327 192.386 69.5797C190.363 61.5658 189.208 57.5618 186.607 49.5843H186.449C185.519 49.5843 185.282 50.4896 184.929 52.5189C183.896 58.5947 183.38 61.5961 182.341 67.6415C178.98 67.0704 177.29 66.8091 173.911 66.3535C174.695 60.5511 175.084 57.6469 175.868 51.8384C176.427 47.6705 178.694 44.1101 183.933 44.1101C184.206 44.1101 184.492 44.1101 184.784 44.1101C182.96 39.055 182.018 36.5397 179.976 31.5211M179.976 27.6083C179.333 27.6036 178.699 27.7578 178.129 28.0571C177.56 28.3565 177.073 28.7917 176.712 29.3243C176.351 29.8569 176.128 30.4702 176.061 31.1099C175.994 31.7497 176.087 32.3959 176.33 32.9914C177.649 36.2359 178.506 38.4049 179.442 40.8899C175.37 42.3785 172.671 46.0239 171.966 51.2552L170.009 65.7763C169.873 66.8033 170.149 67.8425 170.778 68.666C171.407 69.4895 172.337 70.0301 173.364 70.169C176.707 70.6186 178.336 70.8678 181.66 71.4389C181.879 71.4749 182.1 71.4932 182.322 71.4936C183.244 71.4923 184.136 71.1654 184.84 70.5706C185.543 69.9758 186.014 69.1514 186.169 68.243L186.892 64.0325C187.415 65.9464 187.95 68.0182 188.57 70.4789C188.749 71.1853 189.121 71.8279 189.645 72.3345C190.169 72.841 190.823 73.1916 191.536 73.3467C194.866 74.0636 196.489 74.4403 199.795 75.2788C200.109 75.3583 200.431 75.3992 200.755 75.4003C201.342 75.3994 201.922 75.2665 202.451 75.0112C202.98 74.7559 203.445 74.3849 203.811 73.9256C204.177 73.4664 204.434 72.9306 204.565 72.3582C204.696 71.7857 204.696 71.1912 204.566 70.6187C203.666 66.6937 203.034 64.0933 202.208 60.9886C208.71 59.1658 210.345 52.7923 210.941 50.4714L214.028 38.4475C214.287 37.4428 214.135 36.3766 213.608 35.4834C213.08 34.5901 212.219 33.9429 211.214 33.684C207.422 32.7119 205.447 32.2441 201.618 31.4056C201.117 31.2947 200.599 31.2838 200.093 31.3735C199.588 31.4631 199.105 31.6517 198.672 31.9282C198.24 32.2048 197.866 32.564 197.573 32.9852C197.28 33.4064 197.072 33.8813 196.963 34.3828L196.3 37.4206L195.893 39.2738C195.14 37.0136 194.313 34.6258 193.274 31.7094C193.04 31.0591 192.639 30.4819 192.11 30.036C191.582 29.5902 190.946 29.2914 190.265 29.1698C186.394 28.4893 184.383 28.1733 180.493 27.6326C180.314 27.6036 180.133 27.5893 179.952 27.5901L179.976 27.6083Z" fill="#2B9BE0"/>
<path d="M95.8711 142.021C95.3849 139.415 94.6556 138.631 92.7716 138.983L90.6627 139.415L90.2373 137.379C91.3799 137.142 91.9511 137.033 93.0937 136.808C96.8556 136.073 97.9556 137.452 98.6788 141.389L100.32 150.716C99.2319 150.91 98.691 151.007 97.6031 151.214L95.8711 142.021Z" fill="#E7F3F7"/>
<path d="M104.009 143.613C103.48 140.223 103.213 138.528 102.69 135.143C103.845 134.961 104.422 134.876 105.583 134.706C106.075 138.102 106.318 139.797 106.798 143.212C105.686 143.352 105.139 143.437 104.009 143.613Z" fill="#E7F3F7"/>
<path d="M112.687 148.887C111.952 142.932 111.587 139.955 110.864 134.001L113.769 133.661C114.431 139.627 114.766 142.604 115.428 148.571C114.328 148.692 113.781 148.753 112.687 148.887Z" fill="#E7F3F7"/>
<path d="M120.521 148.054L119.184 133.12C120.345 133.017 120.928 132.968 122.095 132.877C122.563 138.856 122.8 141.845 123.268 147.823C122.156 147.909 121.621 147.957 120.521 148.054Z" fill="#E7F3F7"/>
<path d="M134.864 141.347C136.012 143.655 136.565 144.816 137.659 147.131L134.985 147.198C133.448 144.02 132.652 142.44 131.017 139.299C130.36 139.554 130.257 140.113 130.306 141.085C130.421 143.601 130.482 144.858 130.604 147.374L127.905 147.52C127.778 145.296 127.711 144.184 127.577 141.954C127.425 139.36 128.185 138.157 130.136 137.568C129.072 135.544 128.525 134.53 127.419 132.525L130.263 132.379C131.807 135.283 132.56 136.735 134.025 139.67C134.681 139.348 134.846 138.843 134.815 137.768C134.748 135.55 134.718 134.439 134.651 132.221L137.495 132.154C137.532 134.086 137.544 135.052 137.58 136.978C137.635 139.907 136.681 140.818 134.864 141.347Z" fill="#E7F3F7"/>
<path d="M151.078 147.264C149.978 147.222 149.431 147.21 148.331 147.179C148.465 142.009 148.538 139.427 148.672 134.262C146.113 134.196 144.837 134.177 142.278 134.171V132.099C146.028 132.099 147.9 132.136 151.643 132.282C151.418 138.272 151.327 141.274 151.078 147.264ZM145.25 137.64L145.128 147.113C144.028 147.113 143.481 147.113 142.381 147.113C142.381 143.321 142.381 141.432 142.381 137.64C143.518 137.622 144.089 137.628 145.25 137.64Z" fill="#E7F3F7"/>
<path d="M168.253 135.538C166.278 135.332 165.287 135.24 163.306 135.07C163.464 133.248 163.543 132.336 163.695 130.514C164.831 130.611 165.397 130.659 166.527 130.769C166.436 131.765 166.387 132.263 166.29 133.26C168.539 133.472 169.657 133.594 171.899 133.867C169.748 139.658 168.721 142.556 166.74 148.382C165.652 148.273 165.111 148.218 164.023 148.121C165.652 143.066 166.521 140.551 168.253 135.538Z" fill="#E7F3F7"/>
<path d="M175.029 142.89C175.485 139.494 175.716 137.792 176.172 134.384C177.333 134.542 177.916 134.621 179.077 134.791L177.831 143.297L175.029 142.89Z" fill="#E7F3F7"/>
<path d="M192.654 142.708L190.709 152.083C189.627 151.858 189.086 151.748 188.005 151.542C188.74 147.744 189.111 145.843 189.828 142.045C190.332 139.469 189.828 138.728 188.059 138.4L186.844 138.175C185.926 143.261 185.47 145.806 184.553 150.892C183.465 150.697 182.924 150.6 181.836 150.418C182.827 144.506 183.325 141.547 184.322 135.629C186.23 135.951 187.178 136.122 189.08 136.48C192.374 137.1 193.505 138.528 192.654 142.708Z" fill="#E7F3F7"/>
<path d="M178.117 33.8724H175.345V36.643H178.117V33.8724Z" fill="#2B9BE0"/>
<path d="M131.789 179.533H121.269V173.876H140.576L131.327 203.441H124.101L131.789 179.533Z" fill="#E7F3F7" stroke="#2B9BE0" stroke-width="2" stroke-linecap="round" stroke-linejoin="round"/>
<path d="M163.057 192.881C163.057 199.978 159.927 203.696 152.871 203.696C146.496 203.696 143.196 200.312 143.196 194.485H149.705C149.705 196.764 150.762 198.374 152.871 198.374C155.156 198.374 156.214 196.849 156.214 193.009C156.214 189.169 155.156 187.772 152.871 187.772C152.194 187.746 151.526 187.931 150.959 188.301C150.392 188.671 149.953 189.208 149.705 189.837H143.196V173.876H162.169V179.193H149.535V184.011C151.019 182.94 152.816 182.39 154.646 182.449C160.565 182.449 163.057 185.919 163.057 192.881Z" fill="#E7F3F7" stroke="#2B9BE0" stroke-width="2" stroke-linecap="round" stroke-linejoin="round"/>
</g>
<defs>
<linearGradient id="paint0_linear_100_91" x1="0" y1="90.9482" x2="171.036" y2="90.9482" gradientUnits="userSpaceOnUse">
<stop offset="0.34" stop-color="#BFE9F7"/>
<stop offset="0.4" stop-color="#BDE8F7" stop-opacity="0.96"/>
<stop offset="0.49" stop-color="#B6E6F8" stop-opacity="0.86"/>
<stop offset="0.61" stop-color="#ABE2F9" stop-opacity="0.7"/>
<stop offset="0.75" stop-color="#9BDDFA" stop-opacity="0.47"/>
<stop offset="0.91" stop-color="#88D6FB" stop-opacity="0.18"/>
<stop offset="1" stop-color="#7CD2FC" stop-opacity="0"/>
</linearGradient>
<linearGradient id="paint1_linear_100_91" x1="18.9614" y1="116.333" x2="154.117" y2="116.333" gradientUnits="userSpaceOnUse">
<stop offset="0.34" stop-color="#BFE9F7"/>
<stop offset="0.4" stop-color="#BDE8F7" stop-opacity="0.96"/>
<stop offset="0.49" stop-color="#B6E6F8" stop-opacity="0.86"/>
<stop offset="0.61" stop-color="#ABE2F9" stop-opacity="0.7"/>
<stop offset="0.75" stop-color="#9BDDFA" stop-opacity="0.47"/>
<stop offset="0.91" stop-color="#88D6FB" stop-opacity="0.18"/>
<stop offset="1" stop-color="#7CD2FC" stop-opacity="0"/>
</linearGradient>
<linearGradient id="paint2_linear_100_91" x1="33.8511" y1="136.942" x2="137.568" y2="136.942" gradientUnits="userSpaceOnUse">
<stop offset="0.34" stop-color="#BFE9F7"/>
<stop offset="0.4" stop-color="#BDE8F7" stop-opacity="0.96"/>
<stop offset="0.49" stop-color="#B6E6F8" stop-opacity="0.86"/>
<stop offset="0.61" stop-color="#ABE2F9" stop-opacity="0.7"/>
<stop offset="0.75" stop-color="#9BDDFA" stop-opacity="0.47"/>
<stop offset="0.91" stop-color="#88D6FB" stop-opacity="0.18"/>
<stop offset="1" stop-color="#7CD2FC" stop-opacity="0"/>
</linearGradient>
<linearGradient id="paint3_linear_100_91" x1="48.4856" y1="156.724" x2="120.837" y2="156.724" gradientUnits="userSpaceOnUse">
<stop offset="0.34" stop-color="#BFE9F7"/>
<stop offset="0.4" stop-color="#BDE8F7" stop-opacity="0.96"/>
<stop offset="0.49" stop-color="#B6E6F8" stop-opacity="0.86"/>
<stop offset="0.61" stop-color="#ABE2F9" stop-opacity="0.7"/>
<stop offset="0.75" stop-color="#9BDDFA" stop-opacity="0.47"/>
<stop offset="0.91" stop-color="#88D6FB" stop-opacity="0.18"/>
<stop offset="1" stop-color="#7CD2FC" stop-opacity="0"/>
</linearGradient>
<linearGradient id="paint4_linear_100_91" x1="60.3245" y1="172.752" x2="103.711" y2="172.752" gradientUnits="userSpaceOnUse">
<stop offset="0.34" stop-color="#BFE9F7"/>
<stop offset="0.4" stop-color="#BDE8F7" stop-opacity="0.96"/>
<stop offset="0.49" stop-color="#B6E6F8" stop-opacity="0.86"/>
<stop offset="0.61" stop-color="#ABE2F9" stop-opacity="0.7"/>
<stop offset="0.75" stop-color="#9BDDFA" stop-opacity="0.47"/>
<stop offset="0.91" stop-color="#88D6FB" stop-opacity="0.18"/>
<stop offset="1" stop-color="#7CD2FC" stop-opacity="0"/>
</linearGradient>
<linearGradient id="paint5_linear_100_91" x1="285" y1="90.9482" x2="113.958" y2="90.9482" gradientUnits="userSpaceOnUse">
<stop offset="0.34" stop-color="#BFE9F7"/>
<stop offset="0.4" stop-color="#BDE8F7" stop-opacity="0.96"/>
<stop offset="0.49" stop-color="#B6E6F8" stop-opacity="0.86"/>
<stop offset="0.61" stop-color="#ABE2F9" stop-opacity="0.7"/>
<stop offset="0.75" stop-color="#9BDDFA" stop-opacity="0.47"/>
<stop offset="0.91" stop-color="#88D6FB" stop-opacity="0.18"/>
<stop offset="1" stop-color="#7CD2FC" stop-opacity="0"/>
</linearGradient>
<linearGradient id="paint6_linear_100_91" x1="266.039" y1="116.333" x2="130.883" y2="116.333" gradientUnits="userSpaceOnUse">
<stop offset="0.34" stop-color="#BFE9F7"/>
<stop offset="0.4" stop-color="#BDE8F7" stop-opacity="0.96"/>
<stop offset="0.49" stop-color="#B6E6F8" stop-opacity="0.86"/>
<stop offset="0.61" stop-color="#ABE2F9" stop-opacity="0.7"/>
<stop offset="0.75" stop-color="#9BDDFA" stop-opacity="0.47"/>
<stop offset="0.91" stop-color="#88D6FB" stop-opacity="0.18"/>
<stop offset="1" stop-color="#7CD2FC" stop-opacity="0"/>
</linearGradient>
<linearGradient id="paint7_linear_100_91" x1="251.149" y1="136.942" x2="147.432" y2="136.942" gradientUnits="userSpaceOnUse">
<stop offset="0.34" stop-color="#BFE9F7"/>
<stop offset="0.4" stop-color="#BDE8F7" stop-opacity="0.96"/>
<stop offset="0.49" stop-color="#B6E6F8" stop-opacity="0.86"/>
<stop offset="0.61" stop-color="#ABE2F9" stop-opacity="0.7"/>
<stop offset="0.75" stop-color="#9BDDFA" stop-opacity="0.47"/>
<stop offset="0.91" stop-color="#88D6FB" stop-opacity="0.18"/>
<stop offset="1" stop-color="#7CD2FC" stop-opacity="0"/>
</linearGradient>
<linearGradient id="paint8_linear_100_91" x1="236.508" y1="156.724" x2="164.163" y2="156.724" gradientUnits="userSpaceOnUse">
<stop offset="0.34" stop-color="#BFE9F7"/>
<stop offset="0.4" stop-color="#BDE8F7" stop-opacity="0.96"/>
<stop offset="0.49" stop-color="#B6E6F8" stop-opacity="0.86"/>
<stop offset="0.61" stop-color="#ABE2F9" stop-opacity="0.7"/>
<stop offset="0.75" stop-color="#9BDDFA" stop-opacity="0.47"/>
<stop offset="0.91" stop-color="#88D6FB" stop-opacity="0.18"/>
<stop offset="1" stop-color="#7CD2FC" stop-opacity="0"/>
</linearGradient>
<linearGradient id="paint9_linear_100_91" x1="224.676" y1="172.752" x2="181.289" y2="172.752" gradientUnits="userSpaceOnUse">
<stop offset="0.34" stop-color="#BFE9F7"/>
<stop offset="0.4" stop-color="#BDE8F7" stop-opacity="0.96"/>
<stop offset="0.49" stop-color="#B6E6F8" stop-opacity="0.86"/>
<stop offset="0.61" stop-color="#ABE2F9" stop-opacity="0.7"/>
<stop offset="0.75" stop-color="#9BDDFA" stop-opacity="0.47"/>
<stop offset="0.91" stop-color="#88D6FB" stop-opacity="0.18"/>
<stop offset="1" stop-color="#7CD2FC" stop-opacity="0"/>
</linearGradient>
<clipPath id="clip0_100_91">
<rect width="285" height="204" fill="white"/>
</clipPath>
</defs>
</svg>
