<svg width="241" height="75" viewBox="0 0 241 75" fill="none" xmlns="http://www.w3.org/2000/svg">
<g clip-path="url(#clip0_100_25)">
<path d="M171.807 55.4262C171.409 55.5587 170.88 55.6747 170.2 55.7575C169.538 55.8403 168.859 55.89 168.181 55.89C166.06 55.89 164.421 55.2772 163.246 54.0517C162.07 52.8264 161.49 50.7564 161.49 47.8583V27.473H155.876V24.6909H161.49V16.8248H164.917V24.6909H171.227V27.473H164.917V47.8583C164.917 49.829 165.265 51.1537 165.978 51.8659C166.69 52.5779 167.651 52.9258 168.876 52.9258C169.555 52.9258 170.482 52.8264 171.657 52.6111L171.807 55.4428V55.4262Z" fill="#5EC2CA"/>
<path d="M40.4387 26.8272C42.1444 28.6322 42.989 31.4806 42.989 35.3556V55.3105H39.6272V35.3225C39.6272 32.2755 38.998 30.1392 37.7229 28.8972C36.4478 27.6551 34.6263 27.0259 32.2747 27.0259C30.4697 27.0259 28.8967 27.4234 27.5553 28.2348C26.2304 29.0297 25.1873 30.0564 24.4587 31.2819C23.7299 32.5073 23.2994 33.7658 23.1836 35.0409V55.3105H19.7887V35.0409C19.7887 32.1595 19.143 30.0895 17.8513 28.864C16.5597 27.6386 14.7215 27.0259 12.3369 27.0259C9.95235 27.0259 8.03144 27.7048 6.57418 29.0628C5.11694 30.4208 4.05712 32.143 3.41129 34.2461V55.3105H0V24.6744H3.27881L3.36161 29.6258C4.42143 27.887 5.79588 26.529 7.48496 25.5686C9.17406 24.5915 11.1115 24.1114 13.2974 24.1114C15.6157 24.1114 17.5698 24.5915 19.1264 25.552C20.6996 26.5125 21.8091 28.0029 22.4715 30.0233C23.4981 28.2348 24.9057 26.794 26.7107 25.7176C28.5157 24.6412 30.6023 24.1114 32.9537 24.1114C36.2326 24.1114 38.7331 25.0222 40.4221 26.8272H40.4387Z" fill="#1B5098"/>
<path d="M45.5888 40.1912V40.8372C45.5888 43.0892 46.0358 45.1426 46.9135 46.9975C47.8077 48.8522 49.0332 50.3259 50.6229 51.4023C52.2126 52.4787 54.0176 53.0087 56.0544 53.0087C57.8926 53.0087 59.4989 52.6775 60.8898 51.9986C62.2809 51.3361 63.5394 50.2597 64.6323 48.819L66.7851 50.4253C65.6756 52.0648 64.2184 53.3895 62.4465 54.3833C60.6746 55.3769 58.4887 55.8736 55.922 55.8736C53.3552 55.8736 50.9376 55.2278 48.851 53.9526C46.7646 52.6609 45.1252 50.889 43.9494 48.6037C42.7736 46.3184 42.1775 43.7351 42.1775 40.8372V39.6117C42.1775 36.5481 42.7736 33.8487 43.9825 31.4808C45.1748 29.1292 46.7811 27.3076 48.8013 26.0159C50.805 24.7242 52.9909 24.095 55.3258 24.095C57.8594 24.095 60.0288 24.6911 61.8669 25.8834C63.705 27.0758 65.0795 28.7317 66.0234 30.8348C66.9672 32.9545 67.431 35.3723 67.431 38.1047V40.1747H45.5722L45.5888 40.1912ZM50.7223 28.2681C49.3478 29.1126 48.2382 30.3215 47.3607 31.8781C46.4995 33.4348 45.9531 35.2398 45.7213 37.2933H64.0362V36.9289C64.0031 35.157 63.6388 33.5176 62.9764 31.994C62.3141 30.4872 61.3205 29.2783 60.0123 28.3509C58.704 27.4401 57.1475 26.9764 55.3093 26.9764C53.6037 26.9764 52.0801 27.407 50.7056 28.2515L50.7223 28.2681Z" fill="#1B5098"/>
<path d="M71.4548 39.2306C69.9147 38.5351 68.7391 37.6409 67.9276 36.548C67.1162 35.455 66.7023 34.0805 66.7023 32.4411C66.7023 30.9175 67.1493 29.51 68.027 28.2514C68.9212 26.9928 70.1798 25.9826 71.8026 25.2375C73.442 24.4922 75.3298 24.1114 77.4826 24.1114C79.8008 24.1114 81.8212 24.5087 83.5269 25.2872C85.2325 26.0655 86.5408 27.1584 87.4514 28.5494C88.3623 29.9405 88.8094 31.5137 88.8094 33.269H85.3815C85.3815 32.1926 85.0669 31.1659 84.4542 30.2055C83.8414 29.245 82.9141 28.4667 81.7219 27.887C80.5296 27.3075 79.1054 27.0094 77.4826 27.0094C75.8596 27.0094 74.4024 27.2578 73.3096 27.7711C72.2167 28.2845 71.3886 28.9469 70.8587 29.7583C70.3288 30.5697 70.0638 31.4309 70.0638 32.3417C70.0638 33.3187 70.2792 34.1467 70.6931 34.8256C71.1071 35.5047 71.9184 36.1339 73.1108 36.697C74.3031 37.26 76.0088 37.8064 78.2278 38.3033C80.7614 38.8828 82.7983 39.5784 84.3548 40.3567C85.9114 41.135 87.0707 42.0955 87.8157 43.2215C88.5776 44.3476 88.9419 45.7222 88.9419 47.345C88.9419 48.968 88.4782 50.4914 87.5343 51.7831C86.5904 53.0748 85.2821 54.1015 83.5765 54.8136C81.8708 55.5256 79.8837 55.89 77.6482 55.89C75.1642 55.89 73.0115 55.4759 71.1898 54.6314C69.3683 53.7869 67.9939 52.6608 67.0499 51.2697C66.1061 49.8622 65.6423 48.3551 65.6423 46.7323H69.004C69.153 48.9348 70.0638 50.5411 71.7364 51.5347C73.4089 52.5283 75.3795 53.0251 77.6482 53.0251C79.3041 53.0251 80.7283 52.7767 81.9206 52.2634C83.1128 51.75 84.007 51.0876 84.6198 50.2595C85.2325 49.4315 85.5471 48.5208 85.5471 47.5437C85.5471 46.0864 84.9676 44.8114 83.7918 43.7184C82.616 42.6255 80.4634 41.7478 77.3335 41.0853C74.9159 40.572 72.9453 39.9758 71.4052 39.2803L71.4548 39.2306Z" fill="#1B5098"/>
<path d="M108.979 26.7939C110.652 28.5823 111.48 31.4308 111.48 35.3389V55.2936H108.085V35.3389C108.085 32.325 107.472 30.1722 106.247 28.9136C105.021 27.655 103.233 27.0092 100.865 27.0092C98.6626 27.0092 96.7748 27.7047 95.2016 29.0958C93.6284 30.4867 92.4859 32.209 91.7407 34.2625V55.2936H88.3458V4.57037H91.7407V29.8078C92.8336 28.0359 94.2412 26.6448 95.9633 25.6347C97.6856 24.6245 99.59 24.1278 101.71 24.1278C104.889 24.1278 107.307 25.022 108.979 26.8105V26.7939Z" fill="#1B5098"/>
<path d="M236.936 26.7939C238.609 28.5823 239.436 31.4308 239.436 35.3389V55.2936H236.042V35.3389C236.042 32.325 235.429 30.1722 234.204 28.9136C232.979 27.655 231.189 27.0092 228.821 27.0092C226.619 27.0092 224.732 27.7047 223.158 29.0958C221.585 30.4867 220.442 32.209 219.697 34.2625V55.2936H216.303V4.57037H219.697V29.8078C220.79 28.0359 222.197 26.6448 223.92 25.6347C225.643 24.6245 227.546 24.1278 229.667 24.1278C232.845 24.1278 235.263 25.022 236.936 26.8105V26.7939Z" fill="#5EC2CA"/>
<path d="M114.195 40.1912V40.8372C114.195 43.0892 114.643 45.1426 115.52 46.9975C116.415 48.8522 117.64 50.3259 119.23 51.4023C120.819 52.4787 122.624 53.0087 124.661 53.0087C126.499 53.0087 128.106 52.6775 129.497 51.9986C130.888 51.3361 132.146 50.2597 133.239 48.819L135.392 50.4253C134.282 52.0648 132.825 53.3895 131.053 54.3833C129.281 55.3769 127.096 55.8736 124.529 55.8736C121.962 55.8736 119.544 55.2278 117.458 53.9526C115.371 52.6609 113.732 50.889 112.556 48.6037C111.38 46.3184 110.784 43.7351 110.784 40.8372V39.6117C110.784 36.5481 111.38 33.8487 112.589 31.4808C113.781 29.1292 115.388 27.3076 117.408 26.0159C119.412 24.7242 121.598 24.095 123.933 24.095C126.466 24.095 128.636 24.6911 130.474 25.8834C132.312 27.0758 133.686 28.7317 134.63 30.8348C135.574 32.9545 136.038 35.3723 136.038 38.1047V40.1747H114.179L114.195 40.1912ZM119.329 28.2681C117.954 29.1126 116.845 30.3215 115.967 31.8781C115.106 33.4348 114.56 35.2398 114.328 37.2933H132.643V36.9289C132.61 35.157 132.245 33.5176 131.583 31.994C130.921 30.4872 129.927 29.2783 128.619 28.3509C127.311 27.4401 125.754 26.9764 123.916 26.9764C122.21 26.9764 120.687 27.407 119.312 28.2515L119.329 28.2681Z" fill="#1B5098"/>
<path d="M143.109 39.8767L139.234 43.5861V55.3106H135.872V11.824H139.234V39.6283L142.43 36.1672L154.187 24.6745H158.46L145.46 37.5914L159.586 55.3106H155.512L143.109 39.8767Z" fill="#1B5098"/>
<path d="M170.101 40.1912V40.8372C170.101 43.0892 170.549 45.1426 171.425 46.9975C172.32 48.8522 173.545 50.3259 175.135 51.4023C176.724 52.4787 178.53 53.0087 180.566 53.0087C182.404 53.0087 184.01 52.6775 185.402 51.9986C186.794 51.3361 188.051 50.2597 189.144 48.819L191.298 50.4253C190.188 52.0648 188.731 53.3895 186.958 54.3833C185.187 55.3769 183.001 55.8736 180.434 55.8736C177.867 55.8736 175.449 55.2278 173.363 53.9526C171.276 52.6609 169.637 50.889 168.462 48.6037C167.285 46.3184 166.689 43.7351 166.689 40.8372V39.6117C166.689 36.5481 167.285 33.8487 168.495 31.4808C169.687 29.1292 171.293 27.3076 173.313 26.0159C175.317 24.7242 177.503 24.095 179.837 24.095C182.372 24.095 184.541 24.6911 186.378 25.8834C188.218 27.0758 189.592 28.7317 190.536 30.8348C191.48 32.9545 191.943 35.3723 191.943 38.1047V40.1747H170.084L170.101 40.1912ZM175.235 28.2681C173.86 29.1126 172.75 30.3215 171.873 31.8781C171.012 33.4348 170.465 35.2398 170.233 37.2933H188.549V36.9289C188.515 35.157 188.151 33.5176 187.489 31.994C186.826 30.4872 185.833 29.2783 184.525 28.3509C183.216 27.4401 181.659 26.9764 179.822 26.9764C178.116 26.9764 176.592 27.407 175.218 28.2515L175.235 28.2681Z" fill="#5EC2CA"/>
<path d="M216.303 45.8383C216.203 47.7426 215.624 49.4648 214.548 51.005C213.47 52.545 212.046 53.7373 210.29 54.5984C208.519 55.4597 206.615 55.8901 204.561 55.8901C201.764 55.8901 199.396 55.2278 197.424 53.8864C195.454 52.5615 193.98 50.74 192.987 48.4381C191.993 46.1362 191.48 43.5198 191.48 40.5887V39.3964C191.48 36.4818 191.976 33.8818 192.987 31.5636C193.98 29.2451 195.47 27.4236 197.424 26.0987C199.396 24.7739 201.747 24.095 204.496 24.095C206.682 24.095 208.652 24.542 210.407 25.4197C212.162 26.314 213.554 27.5725 214.597 29.2286C215.641 30.8845 216.203 32.7889 216.303 34.9583H213.074C212.974 33.3354 212.543 31.9278 211.781 30.7189C211.02 29.5267 209.993 28.5992 208.718 27.9368C207.444 27.2745 206.035 26.9598 204.478 26.9598C202.277 26.9598 200.439 27.5228 198.998 28.6489C197.556 29.775 196.497 31.2654 195.818 33.1367C195.156 35.0079 194.807 37.0779 194.807 39.3632V40.5556C194.807 42.8575 195.139 44.944 195.801 46.7987C196.463 48.6534 197.524 50.1439 198.981 51.27C200.439 52.3959 202.277 52.959 204.528 52.959C205.985 52.959 207.344 52.6775 208.586 52.1311C209.844 51.5679 210.87 50.7565 211.665 49.6801C212.461 48.6037 212.924 47.312 213.039 45.8051H216.269L216.303 45.8383Z" fill="#5EC2CA"/>
<path d="M65.6921 46.7159C65.6921 46.7159 65.096 48.67 63.4565 50.2267C61.8171 51.7833 67.3813 50.3922 67.3813 50.3922L66.9175 48.4381L65.6921 46.7159Z" fill="#1B5098"/>
<path d="M24.663 60.1442L22.2509 62.5564L24.663 64.9686L27.0751 62.5564L24.663 60.1442Z" fill="#5EC2CA"/>
<path d="M17.5648 60.1547L15.1526 62.5669L17.5648 64.9792L19.9768 62.5669L17.5648 60.1547Z" fill="#5EC2CA"/>
<path d="M21.123 65.1429L18.7108 67.5553L21.123 69.9675L23.5352 67.5553L21.123 65.1429Z" fill="#5EC2CA"/>
<path d="M83.1314 60.1476L80.7192 62.5598L83.1314 64.972L85.5436 62.5598L83.1314 60.1476Z" fill="#5EC2CA"/>
<path d="M76.0618 60.1467L73.6497 62.5589L76.0618 64.9711L78.474 62.5589L76.0618 60.1467Z" fill="#5EC2CA"/>
<path d="M79.6032 65.1516L77.1912 67.5637L79.6032 69.9761L82.0154 67.5637L79.6032 65.1516Z" fill="#5EC2CA"/>
<path d="M232.282 46.7159H223.671V55.3272H232.282V46.7159Z" fill="#1B5098"/>
<path d="M107.919 75.0002V72.1517H110.006V75.0002H107.919Z" fill="#1B5098"/>
<path d="M121.316 74.8843H119.511V61.8186H115.057V73.4767C115.057 73.8576 114.924 74.1889 114.659 74.4703C114.394 74.7518 114.079 74.8843 113.715 74.8843H111.264V73.245H113.235V61.8186H112.125V60.1625H120.107C120.935 60.1625 121.333 60.5931 121.333 61.4376V74.8843H121.316Z" fill="#1B5098"/>
<path d="M131.633 74.8843H129.828V61.8186H125.208V74.8843H123.403V60.1625H130.44C131.235 60.1625 131.633 60.5931 131.633 61.4376V74.8843Z" fill="#1B5098"/>
<path d="M142.165 74.8842H140.194L136.551 67.0017L135.442 67.3162L135.491 68.0781C135.524 68.7073 135.541 69.5353 135.541 70.5289V74.8842H133.819V66.3889L136.054 65.8425L133.504 60.1789H135.475L138.836 67.6144L140.128 67.2831L140.062 66.2233V60.1789H141.883V68.1278L139.366 68.7736L142.165 74.9173V74.8842Z" fill="#1B5098"/>
<path d="M155.876 74.8843H154.071V61.8186H147.646V60.1625H154.634C155.462 60.1625 155.893 60.5931 155.893 61.4376V74.8843H155.876ZM149.468 74.8843H147.629V65.2133H149.468V74.8843Z" fill="#1B5098"/>
<path d="M166.889 74.8846H161.44V73.2452H165.133L165.017 61.8188H160.48L159.718 74.8846H157.962V74.2553L158.758 61.8022H157.25V60.1461H160.512V61.2888C161.159 60.8417 161.772 60.4608 162.367 60.1461H165.696C166.044 60.1461 166.341 60.2786 166.557 60.5271C166.772 60.7921 166.889 61.1066 166.889 61.5041V74.8514V74.8846Z" fill="#1B5098"/>
<path d="M175.748 73.4603C175.748 73.8413 175.616 74.1725 175.35 74.4539C175.086 74.7355 174.77 74.868 174.406 74.868H168.727V73.2286H173.943V61.8022H168.727V60.1461H174.539C175.35 60.1461 175.748 60.5436 175.748 61.355V73.4603Z" fill="#1B5098"/>
<path d="M186.064 74.8843H184.259V61.8186H179.64V74.8843H177.835V60.1625H184.872C185.666 60.1625 186.064 60.5931 186.064 61.4376V74.8843Z" fill="#1B5098"/>
<path d="M201.134 74.8843H199.329V61.8186H194.874V73.4767C194.874 73.8576 194.742 74.1889 194.476 74.4703C194.212 74.7518 193.898 74.8843 193.532 74.8843H191.082V73.245H193.052V61.8186H191.943V60.1625H199.924C200.753 60.1625 201.149 60.5931 201.149 61.4376V74.8843H201.134Z" fill="#1B5098"/>
<path d="M209.993 73.4603C209.993 73.8413 209.861 74.1725 209.595 74.4539C209.331 74.7355 209.017 74.868 208.652 74.868H202.972V73.2286H208.188V61.8022H202.972V60.1461H208.784C209.595 60.1461 209.993 60.5436 209.993 61.355V73.4603Z" fill="#1B5098"/>
<path d="M219.035 74.8843H217.23V61.8186H211.848V60.1625H217.892C218.654 60.1625 219.052 60.5931 219.052 61.4376V74.8843H219.035Z" fill="#1B5098"/>
<path d="M228.606 73.4933C228.54 74.4208 228.159 74.8843 227.446 74.8843H220.277V73.245H223.771L222.595 72.0195L221.602 61.8186H220.409V60.1625H223.34L224.433 73.245H226.868L227.58 60.1625H229.418V61.0733L228.606 73.4933Z" fill="#1B5098"/>
<path d="M240.347 74.8846H234.899V73.2452H238.592L238.475 61.8188H233.938L233.176 74.8846H231.421V74.2553L232.217 61.8022H230.708V60.1461H233.972V61.2888C234.617 60.8417 235.23 60.4608 235.825 60.1461H239.154C239.503 60.1461 239.801 60.2786 240.016 60.5271C240.23 60.7921 240.347 61.1066 240.347 61.5041V74.8514V74.8846Z" fill="#1B5098"/>
<path d="M158.244 37.3097H151.72V40.1911H158.244V37.3097Z" fill="#5EC2CA"/>
<path d="M90.0681 4.91828L93.7939 8.64428L95.1518 7.28635L90.0846 2.21899L85.0173 7.28635L86.3587 8.62771L90.0681 4.91828Z" fill="white"/>
<path d="M90.0681 2.69928L93.7939 6.42528L95.1518 5.06736L90.0846 0L85.0173 5.06736L86.3587 6.40872L90.0681 2.69928Z" fill="#1B5098"/>
</g>
<defs>
<clipPath id="clip0_100_25">
<rect width="241" height="75" fill="white"/>
</clipPath>
</defs>
</svg>
