<svg width="269" height="93" viewBox="0 0 269 93" fill="none" xmlns="http://www.w3.org/2000/svg">
<rect width="269" height="93" rx="15" fill="white"/>
<g clip-path="url(#clip0_108_312)">
<path d="M185.807 64.4262C185.409 64.5587 184.88 64.6747 184.2 64.7575C183.538 64.8403 182.859 64.89 182.181 64.89C180.06 64.89 178.421 64.2772 177.246 63.0517C176.07 61.8264 175.49 59.7564 175.49 56.8583V36.473H169.876V33.6909H175.49V25.8248H178.917V33.6909H185.227V36.473H178.917V56.8583C178.917 58.829 179.265 60.1537 179.978 60.8659C180.69 61.578 181.651 61.9258 182.876 61.9258C183.555 61.9258 184.482 61.8264 185.657 61.6111L185.807 64.4428V64.4262Z" fill="#5EC2CA"/>
<path d="M54.4387 35.8272C56.1444 37.6322 56.989 40.4806 56.989 44.3556V64.3105H53.6272V44.3225C53.6272 41.2755 52.998 39.1392 51.7229 37.8972C50.4478 36.6551 48.6263 36.0259 46.2747 36.0259C44.4697 36.0259 42.8967 36.4234 41.5553 37.2348C40.2304 38.0297 39.1873 39.0564 38.4587 40.2819C37.7299 41.5073 37.2994 42.7658 37.1836 44.0409V64.3105H33.7887V44.0409C33.7887 41.1595 33.143 39.0895 31.8513 37.864C30.5597 36.6386 28.7215 36.0259 26.3369 36.0259C23.9524 36.0259 22.0314 36.7048 20.5742 38.0628C19.1169 39.4208 18.0571 41.143 17.4113 43.2461V64.3105H14V33.6744H17.2788L17.3616 38.6258C18.4214 36.887 19.7959 35.529 21.485 34.5686C23.1741 33.5915 25.1115 33.1114 27.2974 33.1114C29.6157 33.1114 31.5698 33.5915 33.1264 34.552C34.6996 35.5125 35.8091 37.0029 36.4715 39.0233C37.4981 37.2348 38.9057 35.794 40.7107 34.7176C42.5157 33.6412 44.6023 33.1114 46.9537 33.1114C50.2326 33.1114 52.7331 34.0222 54.4221 35.8272H54.4387Z" fill="#1B5098"/>
<path d="M59.5888 49.1912V49.8372C59.5888 52.0892 60.0358 54.1426 60.9135 55.9975C61.8077 57.8522 63.0332 59.3259 64.6229 60.4023C66.2126 61.4787 68.0176 62.0087 70.0544 62.0087C71.8926 62.0087 73.4989 61.6775 74.8898 60.9986C76.2809 60.3361 77.5394 59.2597 78.6323 57.819L80.7851 59.4253C79.6756 61.0648 78.2184 62.3895 76.4465 63.3833C74.6746 64.3768 72.4887 64.8736 69.922 64.8736C67.3552 64.8736 64.9376 64.2278 62.851 62.9526C60.7646 61.6609 59.1252 59.889 57.9494 57.6037C56.7736 55.3184 56.1775 52.7351 56.1775 49.8372V48.6117C56.1775 45.5481 56.7736 42.8487 57.9825 40.4808C59.1748 38.1292 60.7811 36.3076 62.8013 35.0159C64.805 33.7242 66.9909 33.095 69.3258 33.095C71.8594 33.095 74.0288 33.6911 75.8669 34.8834C77.705 36.0758 79.0795 37.7317 80.0234 39.8348C80.9672 41.9545 81.431 44.3723 81.431 47.1047V49.1747H59.5722L59.5888 49.1912ZM64.7223 37.2681C63.3478 38.1126 62.2382 39.3215 61.3607 40.8781C60.4995 42.4348 59.9531 44.2398 59.7213 46.2933H78.0362V45.9289C78.0031 44.157 77.6388 42.5176 76.9764 40.994C76.3141 39.4872 75.3205 38.2783 74.0123 37.3509C72.704 36.4401 71.1475 35.9764 69.3093 35.9764C67.6037 35.9764 66.0801 36.407 64.7056 37.2515L64.7223 37.2681Z" fill="#1B5098"/>
<path d="M85.4548 48.2306C83.9147 47.5351 82.7391 46.6409 81.9276 45.548C81.1162 44.455 80.7023 43.0805 80.7023 41.4411C80.7023 39.9175 81.1493 38.51 82.027 37.2514C82.9212 35.9928 84.1798 34.9826 85.8026 34.2375C87.442 33.4922 89.3298 33.1114 91.4826 33.1114C93.8008 33.1114 95.8212 33.5087 97.5269 34.2872C99.2325 35.0655 100.541 36.1584 101.451 37.5494C102.362 38.9405 102.809 40.5137 102.809 42.269H99.3815C99.3815 41.1926 99.0669 40.1659 98.4542 39.2054C97.8414 38.245 96.9141 37.4667 95.7219 36.887C94.5296 36.3075 93.1054 36.0094 91.4826 36.0094C89.8596 36.0094 88.4024 36.2578 87.3096 36.7711C86.2167 37.2845 85.3886 37.9469 84.8587 38.7583C84.3288 39.5697 84.0638 40.4309 84.0638 41.3417C84.0638 42.3187 84.2792 43.1467 84.6931 43.8256C85.1071 44.5047 85.9184 45.1339 87.1108 45.697C88.3031 46.26 90.0088 46.8064 92.2278 47.3033C94.7614 47.8828 96.7983 48.5784 98.3548 49.3567C99.9114 50.135 101.071 51.0955 101.816 52.2215C102.578 53.3476 102.942 54.7222 102.942 56.345C102.942 57.968 102.478 59.4914 101.534 60.7831C100.59 62.0748 99.2821 63.1015 97.5765 63.8136C95.8708 64.5256 93.8837 64.89 91.6482 64.89C89.1642 64.89 87.0115 64.4759 85.1898 63.6314C83.3683 62.7869 81.9939 61.6608 81.0499 60.2697C80.1061 58.8622 79.6423 57.3551 79.6423 55.7323H83.004C83.153 57.9348 84.0638 59.5411 85.7364 60.5347C87.4089 61.5283 89.3795 62.0251 91.6482 62.0251C93.3041 62.0251 94.7283 61.7767 95.9206 61.2634C97.1128 60.75 98.007 60.0876 98.6198 59.2595C99.2325 58.4315 99.5471 57.5208 99.5471 56.5437C99.5471 55.0864 98.9676 53.8114 97.7918 52.7184C96.616 51.6255 94.4634 50.7478 91.3335 50.0853C88.9159 49.572 86.9453 48.9758 85.4052 48.2803L85.4548 48.2306Z" fill="#1B5098"/>
<path d="M122.979 35.7939C124.652 37.5823 125.48 40.4308 125.48 44.3389V64.2936H122.085V44.3389C122.085 41.325 121.472 39.1722 120.247 37.9136C119.021 36.655 117.233 36.0092 114.865 36.0092C112.663 36.0092 110.775 36.7047 109.202 38.0958C107.628 39.4867 106.486 41.209 105.741 43.2625V64.2936H102.346V13.5704H105.741V38.8078C106.834 37.0359 108.241 35.6448 109.963 34.6347C111.686 33.6245 113.59 33.1278 115.71 33.1278C118.889 33.1278 121.307 34.022 122.979 35.8105V35.7939Z" fill="#1B5098"/>
<path d="M250.936 35.7939C252.609 37.5823 253.436 40.4308 253.436 44.3389V64.2936H250.042V44.3389C250.042 41.325 249.429 39.1722 248.204 37.9136C246.979 36.655 245.189 36.0092 242.821 36.0092C240.619 36.0092 238.732 36.7047 237.158 38.0958C235.585 39.4867 234.442 41.209 233.697 43.2625V64.2936H230.303V13.5704H233.697V38.8078C234.79 37.0359 236.197 35.6448 237.92 34.6347C239.643 33.6245 241.546 33.1278 243.667 33.1278C246.845 33.1278 249.263 34.022 250.936 35.8105V35.7939Z" fill="#5EC2CA"/>
<path d="M128.195 49.1912V49.8372C128.195 52.0892 128.643 54.1426 129.52 55.9975C130.415 57.8522 131.64 59.3259 133.23 60.4023C134.819 61.4787 136.624 62.0087 138.661 62.0087C140.499 62.0087 142.106 61.6775 143.497 60.9986C144.888 60.3361 146.146 59.2597 147.239 57.819L149.392 59.4253C148.282 61.0648 146.825 62.3895 145.053 63.3833C143.281 64.3768 141.096 64.8736 138.529 64.8736C135.962 64.8736 133.544 64.2278 131.458 62.9526C129.371 61.6609 127.732 59.889 126.556 57.6037C125.38 55.3184 124.784 52.7351 124.784 49.8372V48.6117C124.784 45.5481 125.38 42.8487 126.589 40.4808C127.781 38.1292 129.388 36.3076 131.408 35.0159C133.412 33.7242 135.598 33.095 137.933 33.095C140.466 33.095 142.636 33.6911 144.474 34.8834C146.312 36.0758 147.686 37.7317 148.63 39.8348C149.574 41.9545 150.038 44.3723 150.038 47.1047V49.1747H128.179L128.195 49.1912ZM133.329 37.2681C131.954 38.1126 130.845 39.3215 129.967 40.8781C129.106 42.4348 128.56 44.2398 128.328 46.2933H146.643V45.9289C146.61 44.157 146.245 42.5176 145.583 40.994C144.921 39.4872 143.927 38.2783 142.619 37.3509C141.311 36.4401 139.754 35.9764 137.916 35.9764C136.21 35.9764 134.687 36.407 133.312 37.2515L133.329 37.2681Z" fill="#1B5098"/>
<path d="M157.109 48.8767L153.234 52.5861V64.3106H149.872V20.824H153.234V48.6283L156.43 45.1672L168.187 33.6745H172.46L159.46 46.5914L173.586 64.3106H169.512L157.109 48.8767Z" fill="#1B5098"/>
<path d="M184.101 49.1912V49.8372C184.101 52.0892 184.549 54.1426 185.425 55.9975C186.32 57.8522 187.545 59.3259 189.135 60.4023C190.724 61.4787 192.53 62.0087 194.566 62.0087C196.404 62.0087 198.01 61.6775 199.402 60.9986C200.794 60.3361 202.051 59.2597 203.144 57.819L205.298 59.4253C204.188 61.0648 202.731 62.3895 200.958 63.3833C199.187 64.3768 197.001 64.8736 194.434 64.8736C191.867 64.8736 189.449 64.2278 187.363 62.9526C185.276 61.6609 183.637 59.889 182.462 57.6037C181.285 55.3184 180.689 52.7351 180.689 49.8372V48.6117C180.689 45.5481 181.285 42.8487 182.495 40.4808C183.687 38.1292 185.293 36.3076 187.313 35.0159C189.317 33.7242 191.503 33.095 193.837 33.095C196.372 33.095 198.541 33.6911 200.378 34.8834C202.218 36.0758 203.592 37.7317 204.536 39.8348C205.48 41.9545 205.943 44.3723 205.943 47.1047V49.1747H184.084L184.101 49.1912ZM189.235 37.2681C187.86 38.1126 186.75 39.3215 185.873 40.8781C185.012 42.4348 184.465 44.2398 184.233 46.2933H202.549V45.9289C202.515 44.157 202.151 42.5176 201.489 40.994C200.826 39.4872 199.833 38.2783 198.525 37.3509C197.216 36.4401 195.659 35.9764 193.822 35.9764C192.116 35.9764 190.592 36.407 189.218 37.2515L189.235 37.2681Z" fill="#5EC2CA"/>
<path d="M230.303 54.8383C230.203 56.7426 229.624 58.4648 228.548 60.005C227.47 61.545 226.046 62.7373 224.29 63.5984C222.519 64.4597 220.615 64.8901 218.561 64.8901C215.764 64.8901 213.396 64.2278 211.424 62.8864C209.454 61.5615 207.98 59.74 206.987 57.4381C205.993 55.1362 205.48 52.5198 205.48 49.5887V48.3964C205.48 45.4818 205.976 42.8818 206.987 40.5636C207.98 38.2451 209.47 36.4236 211.424 35.0987C213.396 33.7739 215.747 33.095 218.496 33.095C220.682 33.095 222.652 33.542 224.407 34.4197C226.162 35.314 227.554 36.5725 228.597 38.2286C229.641 39.8845 230.203 41.7889 230.303 43.9583H227.074C226.974 42.3354 226.543 40.9278 225.781 39.7189C225.02 38.5267 223.993 37.5992 222.718 36.9368C221.444 36.2745 220.035 35.9598 218.478 35.9598C216.277 35.9598 214.439 36.5228 212.998 37.6489C211.556 38.775 210.497 40.2654 209.818 42.1367C209.156 44.0079 208.807 46.0779 208.807 48.3632V49.5556C208.807 51.8575 209.139 53.944 209.801 55.7987C210.463 57.6534 211.524 59.1439 212.981 60.27C214.439 61.3959 216.277 61.959 218.528 61.959C219.985 61.959 221.344 61.6775 222.586 61.1311C223.844 60.5679 224.87 59.7565 225.665 58.6801C226.461 57.6037 226.924 56.312 227.039 54.8051H230.269L230.303 54.8383Z" fill="#5EC2CA"/>
<path d="M79.6921 55.7159C79.6921 55.7159 79.096 57.67 77.4565 59.2267C75.8171 60.7833 81.3813 59.3922 81.3813 59.3922L80.9175 57.4381L79.6921 55.7159Z" fill="#1B5098"/>
<path d="M38.663 69.1442L36.2509 71.5564L38.663 73.9686L41.0751 71.5564L38.663 69.1442Z" fill="#5EC2CA"/>
<path d="M31.5648 69.1547L29.1526 71.5669L31.5648 73.9792L33.9768 71.5669L31.5648 69.1547Z" fill="#5EC2CA"/>
<path d="M35.123 74.1429L32.7108 76.5553L35.123 78.9675L37.5352 76.5553L35.123 74.1429Z" fill="#5EC2CA"/>
<path d="M97.1314 69.1476L94.7192 71.5598L97.1314 73.972L99.5436 71.5598L97.1314 69.1476Z" fill="#5EC2CA"/>
<path d="M90.0618 69.1467L87.6497 71.5589L90.0618 73.9711L92.474 71.5589L90.0618 69.1467Z" fill="#5EC2CA"/>
<path d="M93.6032 74.1516L91.1912 76.5637L93.6032 78.9761L96.0154 76.5637L93.6032 74.1516Z" fill="#5EC2CA"/>
<path d="M246.282 55.7159H237.671V64.3272H246.282V55.7159Z" fill="#1B5098"/>
<path d="M121.919 84.0002V81.1517H124.006V84.0002H121.919Z" fill="#1B5098"/>
<path d="M135.316 83.8843H133.511V70.8186H129.057V82.4767C129.057 82.8576 128.924 83.1889 128.659 83.4703C128.394 83.7518 128.079 83.8843 127.715 83.8843H125.264V82.245H127.235V70.8186H126.125V69.1625H134.107C134.935 69.1625 135.333 69.5931 135.333 70.4376V83.8843H135.316Z" fill="#1B5098"/>
<path d="M145.633 83.8843H143.828V70.8186H139.208V83.8843H137.403V69.1625H144.44C145.235 69.1625 145.633 69.5931 145.633 70.4376V83.8843Z" fill="#1B5098"/>
<path d="M156.165 83.8842H154.194L150.551 76.0017L149.442 76.3162L149.491 77.0781C149.524 77.7073 149.541 78.5353 149.541 79.5289V83.8842H147.819V75.3889L150.054 74.8425L147.504 69.1789H149.475L152.836 76.6144L154.128 76.2831L154.062 75.2233V69.1789H155.883V77.1278L153.366 77.7736L156.165 83.9173V83.8842Z" fill="#1B5098"/>
<path d="M169.876 83.8843H168.071V70.8186H161.646V69.1625H168.634C169.462 69.1625 169.893 69.5931 169.893 70.4376V83.8843H169.876ZM163.468 83.8843H161.629V74.2133H163.468V83.8843Z" fill="#1B5098"/>
<path d="M180.889 83.8846H175.44V82.2452H179.133L179.017 70.8188H174.48L173.718 83.8846H171.962V83.2553L172.758 70.8022H171.25V69.1461H174.512V70.2888C175.159 69.8417 175.772 69.4608 176.367 69.1461H179.696C180.044 69.1461 180.341 69.2786 180.557 69.5271C180.772 69.7921 180.889 70.1066 180.889 70.5041V83.8514V83.8846Z" fill="#1B5098"/>
<path d="M189.748 82.4603C189.748 82.8413 189.616 83.1725 189.35 83.4539C189.086 83.7355 188.77 83.868 188.406 83.868H182.727V82.2286H187.943V70.8022H182.727V69.1461H188.539C189.35 69.1461 189.748 69.5436 189.748 70.355V82.4603Z" fill="#1B5098"/>
<path d="M200.064 83.8843H198.259V70.8186H193.64V83.8843H191.835V69.1625H198.872C199.666 69.1625 200.064 69.5931 200.064 70.4376V83.8843Z" fill="#1B5098"/>
<path d="M215.134 83.8843H213.329V70.8186H208.874V82.4767C208.874 82.8576 208.742 83.1889 208.476 83.4703C208.212 83.7518 207.898 83.8843 207.532 83.8843H205.082V82.245H207.052V70.8186H205.943V69.1625H213.924C214.753 69.1625 215.149 69.5931 215.149 70.4376V83.8843H215.134Z" fill="#1B5098"/>
<path d="M223.993 82.4603C223.993 82.8413 223.861 83.1725 223.595 83.4539C223.331 83.7355 223.017 83.868 222.652 83.868H216.972V82.2286H222.188V70.8022H216.972V69.1461H222.784C223.595 69.1461 223.993 69.5436 223.993 70.355V82.4603Z" fill="#1B5098"/>
<path d="M233.035 83.8843H231.23V70.8186H225.848V69.1625H231.892C232.654 69.1625 233.052 69.5931 233.052 70.4376V83.8843H233.035Z" fill="#1B5098"/>
<path d="M242.606 82.4933C242.54 83.4208 242.159 83.8843 241.446 83.8843H234.277V82.245H237.771L236.595 81.0195L235.602 70.8186H234.409V69.1625H237.34L238.433 82.245H240.868L241.58 69.1625H243.418V70.0733L242.606 82.4933Z" fill="#1B5098"/>
<path d="M254.347 83.8846H248.899V82.2452H252.592L252.475 70.8188H247.938L247.176 83.8846H245.421V83.2553L246.217 70.8022H244.708V69.1461H247.972V70.2888C248.617 69.8417 249.23 69.4608 249.825 69.1461H253.154C253.503 69.1461 253.801 69.2786 254.016 69.5271C254.23 69.7921 254.347 70.1066 254.347 70.5041V83.8514V83.8846Z" fill="#1B5098"/>
<path d="M172.244 46.3097H165.72V49.1911H172.244V46.3097Z" fill="#5EC2CA"/>
<path d="M104.068 13.9183L107.794 17.6443L109.152 16.2864L104.085 11.219L99.0173 16.2864L100.359 17.6277L104.068 13.9183Z" fill="white"/>
<path d="M104.068 11.6993L107.794 15.4253L109.152 14.0674L104.085 9L99.0173 14.0674L100.359 15.4087L104.068 11.6993Z" fill="#1B5098"/>
</g>
<defs>
<clipPath id="clip0_108_312">
<rect width="241" height="75" fill="white" transform="translate(14 9)"/>
</clipPath>
</defs>
</svg>
