<svg width="120" height="124" viewBox="0 0 120 124" fill="none" xmlns="http://www.w3.org/2000/svg">
<path d="M60 1.9375C26.879 1.9375 0 28.8445 0 62C0 95.1555 26.879 122.062 60 122.062C93.121 122.062 120 95.1555 120 62C120 28.8445 93.121 1.9375 60 1.9375ZM84.3629 90.3117C83.3468 90.3117 82.7177 89.9969 81.7742 89.4398C66.6774 80.3336 49.1129 79.9461 31.7661 83.5062C30.8226 83.7484 29.5887 84.1359 28.8871 84.1359C26.5403 84.1359 25.0645 82.2711 25.0645 80.3094C25.0645 77.8148 26.5403 76.6281 28.3548 76.2406C48.1694 71.857 68.4194 72.2445 85.6935 82.5859C87.1694 83.5305 88.0403 84.3781 88.0403 86.582C88.0403 88.7859 86.3226 90.3117 84.3629 90.3117ZM90.871 74.4242C89.6129 74.4242 88.7661 73.8672 87.8952 73.407C72.7742 64.4461 50.2258 60.8375 30.1694 66.2867C29.0081 66.6016 28.379 66.9164 27.2903 66.9164C24.7016 66.9164 22.5968 64.8094 22.5968 62.218C22.5968 59.6266 23.8548 57.907 26.3468 57.2047C33.0726 55.3156 39.9435 53.9109 50.0081 53.9109C65.7097 53.9109 80.879 57.8102 92.8306 64.9305C94.7903 66.093 95.5645 67.5945 95.5645 69.7016C95.5403 72.3172 93.5081 74.4242 90.871 74.4242ZM98.371 55.9695C97.1129 55.9695 96.3387 55.6547 95.25 55.025C78.0242 44.732 47.2258 42.2617 27.2903 47.832C26.4194 48.0742 25.3306 48.4617 24.1694 48.4617C20.9758 48.4617 18.5323 45.9672 18.5323 42.7461C18.5323 39.4523 20.5645 37.5875 22.7419 36.9578C31.2581 34.4633 40.7903 33.2766 51.1694 33.2766C68.8306 33.2766 87.3387 36.9578 100.863 44.8531C102.75 45.943 103.984 47.4445 103.984 50.3266C103.984 53.6203 101.323 55.9695 98.371 55.9695Z" fill="#11AF03"/>
</svg>
