<svg width="35" height="27" viewBox="0 0 35 27" fill="none" xmlns="http://www.w3.org/2000/svg">
<path d="M3.28125 0C1.46973 0 0 1.50717 0 3.36485C0 4.42338 0.485352 5.41882 1.3125 6.05674L16.1875 17.4972C16.9668 18.0931 18.0332 18.0931 18.8125 17.4972L33.6875 6.05674C34.5146 5.41882 35 4.42338 35 3.36485C35 1.50717 33.5303 0 31.7188 0H3.28125ZM0 7.85132V22.4324C0 24.9069 1.96191 26.9188 4.375 26.9188H30.625C33.0381 26.9188 35 24.9069 35 22.4324V7.85132L20.125 19.2918C18.5664 20.4906 16.4336 20.4906 14.875 19.2918L0 7.85132Z" fill="#EEDFC2"/>
</svg>
