<svg width="35" height="36" viewBox="0 0 35 36" fill="none" xmlns="http://www.w3.org/2000/svg">
<path d="M11.7067 28.2694C11.7067 28.4146 11.5444 28.5308 11.3397 28.5308C11.1069 28.5526 10.9446 28.4364 10.9446 28.2694C10.9446 28.1242 11.1069 28.0081 11.3115 28.0081C11.5232 27.9863 11.7067 28.1024 11.7067 28.2694ZM9.5121 27.9427C9.4627 28.0879 9.60383 28.2549 9.81553 28.2985C9.99899 28.3711 10.2107 28.2985 10.253 28.1533C10.2954 28.0081 10.1613 27.8411 9.9496 27.7758C9.76613 27.7249 9.56149 27.7975 9.5121 27.9427ZM12.631 27.8193C12.4264 27.8701 12.2853 28.0081 12.3065 28.175C12.3276 28.3202 12.5111 28.4146 12.7228 28.3638C12.9274 28.313 13.0685 28.175 13.0474 28.0299C13.0262 27.8919 12.8357 27.7975 12.631 27.8193ZM17.2742 0C7.4869 0 0 7.64451 0 17.7138C0 25.7648 4.9254 32.6543 11.9607 35.0791C12.8639 35.246 13.1815 34.6725 13.1815 34.2006C13.1815 33.7505 13.1603 31.2677 13.1603 29.7432C13.1603 29.7432 8.22077 30.8321 7.18347 27.5797C7.18347 27.5797 6.37903 25.4672 5.22177 24.9227C5.22177 24.9227 3.60585 23.7829 5.33468 23.8047C5.33468 23.8047 7.09173 23.9499 8.05847 25.6777C9.60383 28.48 12.1935 27.6741 13.2026 27.195C13.3649 26.0334 13.8236 25.2276 14.3317 24.7485C10.3871 24.2983 6.40726 23.7103 6.40726 16.7264C6.40726 14.73 6.94355 13.7282 8.07258 12.4505C7.88911 11.9786 7.28931 10.033 8.25605 7.52109C9.73085 7.04921 13.125 9.48122 13.125 9.48122C14.5363 9.07467 16.0534 8.86414 17.5565 8.86414C19.0595 8.86414 20.5766 9.07467 21.9879 9.48122C21.9879 9.48122 25.3821 7.04195 26.8569 7.52109C27.8236 10.0402 27.2238 11.9786 27.0403 12.4505C28.1694 13.7354 28.8609 14.7373 28.8609 16.7264C28.8609 23.7321 24.7046 24.2911 20.7601 24.7485C21.4093 25.322 21.9597 26.4109 21.9597 28.117C21.9597 30.5635 21.9385 33.5908 21.9385 34.1861C21.9385 34.658 22.2631 35.2315 23.1593 35.0645C30.2157 32.6543 35 25.7648 35 17.7138C35 7.64451 27.0615 0 17.2742 0ZM6.85887 25.0388C6.76714 25.1114 6.78831 25.2784 6.90827 25.4163C7.02117 25.5325 7.18347 25.5833 7.2752 25.4889C7.36694 25.4163 7.34577 25.2494 7.22581 25.1114C7.1129 24.9953 6.9506 24.9445 6.85887 25.0388ZM6.09677 24.4508C6.04738 24.5452 6.11794 24.6613 6.25907 24.7339C6.37198 24.8065 6.5131 24.7847 6.5625 24.6831C6.6119 24.5887 6.54133 24.4726 6.4002 24.4C6.25907 24.3564 6.14617 24.3782 6.09677 24.4508ZM8.38306 27.0353C8.27016 27.1296 8.3125 27.3474 8.4748 27.4854C8.6371 27.6523 8.84173 27.6741 8.93347 27.558C9.0252 27.4636 8.98286 27.2458 8.84173 27.1079C8.68649 26.9409 8.4748 26.9191 8.38306 27.0353ZM7.57863 25.9681C7.46573 26.0407 7.46573 26.2294 7.57863 26.3964C7.69153 26.5634 7.88206 26.636 7.97379 26.5634C8.08669 26.469 8.08669 26.2803 7.97379 26.1133C7.875 25.9463 7.69153 25.8737 7.57863 25.9681Z" fill="#EEDFC2"/>
</svg>
