<svg width="30" height="31" viewBox="0 0 30 31" fill="none" xmlns="http://www.w3.org/2000/svg">
<path d="M9.66168 1.48422C9.21053 0.363034 8.02113 -0.233729 6.88446 0.0857499L1.72844 1.53245C0.708953 1.82179 0 2.7742 0 3.85922C0 18.7723 11.7534 30.8643 26.2488 30.8643C27.3035 30.8643 28.2292 30.1349 28.5105 29.086L29.9166 23.7815C30.2272 22.612 29.6471 21.3884 28.5573 20.9242L22.9326 18.5131C21.9775 18.1032 20.8702 18.3865 20.2198 19.2123L17.8527 22.1841C13.7279 20.1768 10.3882 16.7409 8.43713 12.4972L11.3257 10.068C12.1284 9.39284 12.4037 8.25959 12.0053 7.27705L9.66168 1.49025V1.48422Z" fill="#EEDFC2"/>
</svg>
